<mxfile host="app.diagrams.net" agent="Mozilla/5.0 (Macintosh; Intel Mac OS X 10_15_7) AppleWebKit/537.36 (KHTML, like Gecko) Chrome/127.0.0.0 Safari/537.36" version="24.7.7">
  <diagram name="Seite-1" id="EoVl_Fy_6PkT8je5NQKp">
    <mxGraphModel dx="1613" dy="967" grid="1" gridSize="10" guides="1" tooltips="1" connect="1" arrows="1" fold="1" page="1" pageScale="1" pageWidth="827" pageHeight="1169" math="0" shadow="0">
      <root>
        <mxCell id="0" />
        <mxCell id="1" parent="0" />
        <mxCell id="snpll3BRzH3zYnskAG-O-1" value="" style="shape=image;verticalLabelPosition=bottom;labelBackgroundColor=default;verticalAlign=top;aspect=fixed;imageAspect=0;image=data:image/png,iVBORw0KGgoAAAANSUhEUgAAAGYAAACQCAIAAAB1dokxAAAAAXNSR0IArs4c6QAAAGxlWElmTU0AKgAAAAgABAEaAAUAAAABAAAAPgEbAAUAAAABAAAARgEoAAMAAAABAAIAAIdpAAQAAAABAAAATgAAAAAAAABIAAAAAQAAAEgAAAABAAKgAgAEAAAAAQAAAGagAwAEAAAAAQAAAJAAAAAANQBs5AAAAAlwSFlzAAALEwAACxMBAJqcGAAAGqBJREFUeAHt3Xe8XUW1B/CbQDRCUMJDpCSQoEDEBBKkSRMD2FC6FUUSOnzoCH4ABQQMSLVSIlIiKPDBKEVAwIgUlV7UR03ovUtLf9/cBZPJPnWfe5O8G87+Y985M2utWes3a8qevWbfXjNnzuxoX2UQ6F2GuE07C4E2ZKX9oA1ZacgWbp5jxowZvXv3TvdmGHv16pXI8kEzz08E8ytRVpleuSVzQ2nyq+o0t+stZUvSMByils4hs4SXEeSaNm3a008/PWXKlIUXrsfLH5PSFMLoZyiU56f0fE8stNBC06dPf/vtt/v06bPCCiskECsVq2d2UCfgX3zxxfHjx48bN+7NN9/s27dvv379KsUVcgKpyMyVyPMLLPPlJ33e9773TZ069bXXXuMNyy+//OjRo7/4xS/CsVKfxpDxl7DwsMMO+9e//rXXXnutuOKKKvjABz6QxCF46623nnnmmUGDBqVMiVow5fk5fZ4mk8avvvrqCy+8wAZq+Kn9Qpmcsvk0CeToKBzqkUceWW655TS8NJkkS7gz5K9//ev3vve9l1566Tvf+U4IRzBbZz8aXmT95je/+cIXvqAa9YX0nOvee+8dOnSo6n/4wx/m+V1Ma/Nhw4Zpmz322EM6qu6iTMq/8sorX/nKV4gdOXIkadwqZIZdapk8efI///nP4cOH33nnnZXVzR5x6rSVpv7jH/+omgEDBmiowDuX9b+d1+uvv37ppZfm+bnMWvk5TSGtnSdNmqTZiQeZqtmTyymbBgrljcU33XQTsRMmTICXwSvqVRS+LGfttdded911r7322ijCOFu3hrWipvHKK6/88MMPhw9jUZP8dD366KO77rrrhhtuePHFFzcU2CQB4aozplB97NixwZUUaFJIgYxMOcb4E088cc011zzwwAOjDXKx0sgYeMYZZ3z6059GH1xJVEdK1UoQoT+OGDHiscceq0VDKI/QerUIWs7nXGonP10tiyowMgd2MknOixJ8v/71r41FlQSNh//ZDlk7xaX79+9fu7zFEuou1nlJtCiiNtvAgQOjMMaZ2oTFkqbGMkwN5Wqrouwu/w6ZcwMvqoX7tKB2U5A1I9fA2WWIigKinRq2VpGtud/E0tllOdYcxztUje1MGmuWuPT2UnW0TMye4KVDulqWVosxzZhBECC+a+vsv4m9MWRI8SUGqpvs088FMuFZkJm1TGsKMswhwt3s62cOYi3RPTffQFTHwGYhS/ab9S2O60hMlD00YUHuIRpq/CO/kjmNIcMWmxb865e//OUnPvGJ4447TmYSsQAkYvnKkOeee+6AAw5YY401PO3UsqsxZIE3/oceeugnP/kJoWeddZamqCWxJ+bH47quM3HixHPPPZelY8aMqWVIY8hiBjGtLL300h//+MdJX3XVVRdZZJFaEntifqyidJ0PfehDH/vYx5i8wQYb1DKkqdU/mAhdaqml+Jd+bg/AzwVp3ozVDC+D1zXXXGOwXmaZZS644AI5cYEvjUVNQRZ46/D/03nVgr+n5wNFZ1p22WXDEGDJcfkZ98hv3DF7OhDdrn8bstKQtiFrQ1YagdIMbS9rQ1YagdIMbS9rQ1YagdIMbS9rQ1YagdIMbS9rQ1YagdIMbS9rQ1YagdIMbS9rQ1YagdIMbS9rQ1YagdIMbS+bJ5DF+5jSVfUcBgaKbakVcl7idQmTyfIyJt7H9BwEymnqLQkDvR/xqjveouXvSsgq1zGJK1d/j6JmHecCEM9wh1fEOBWsLudlf/jDHwR4b7rppltuueX/KzRYVfCFFtQjROjsmWee+eCDD44aNYrA6E8FydUhSxqAOb3iFWR8zDHH3H333VdcccXnPvc5pyVaUKvAEg1Ip+jySh0ecLpAXTfffPOzzz5LATReL1LDu+fPfOYzgwcPFjPhtTau0DOERLogv8mfYSaBotb33Xdfyvz973/fbbfdYjjLQSCwOmQJ19SZ4f3BD37Qe3KHJBgQ6iaFEn3KaTIRjGGteHUvqK+77jrhsSLyv/71ry+xxBIqJUocsMvxFu1//vnnL7roojx9zz33pInSlmtPSiYzYeT0grq8NgdcNEZymnfo5da5AAxvId9OlDzxxBOPP/74CSecQG8sJKarjoRmigSPHHHEEYLVf/CDHzz55JPhWVxMRZGO6tx1HDnynf741Kc+dcoppziTkEqbqasqTYSyhznXX3/9aaedJsBcPItAd6HshVD06kHsKRreYRhs3rl/5CMfAVkyILTsFsicV/j85z8vREmwerKHZMPlkCFDvvWtb5133nm/+tWvLrroImbID91MZzqR00Ff+9rX/v3vf+eKJSGlEiTn9H4KYhe5s+SSS+6+++55aXXIErM2dy7lqquuctoCZCm/i4nQQLSIsXajjTa67LLLcpsjbcDKe5yR4fvf/34UBTvUxNTwBRJ0ZyopzW1rWckQop3E/R9//PFaJRdVfSxLnVyCYffdd5+AMgrl+V1Jw8J0zufNv8L8HF2JuSlkRlrbOhrlnN8999zDv1ZaaaVvf/vbijDGEObu2mGHHRTpp+x0GMS4kwPdFSXxOu1kOlIjyGaLzfGrTPMyx8miYulKgtZyoO/ozsYbbxzDYhJy4YUX/va3v43AUkgZ4P773/8qRaa1b7vttqA8+eST//znP0uDyUXa7bffbii89dZbk6iuJMjEzss0gEYyF6kiCWzcMQ8++GCWWFIY+xNba4lQBS/bNttsM3bqXClTxzduWj3E+bR11lmHExnI0J900knSBx10ENUNxh/+8IcXX3xx+YFXJK6++mpLEE6RBMpv7QoJIHMCxQExCORyqq/+UYRngdlFP25JUBf9PNgdUTv66KO32GILo5VJndtHPiAsL7gVXOR89rOfVaPR15RPezkW0pqN973xxhtGMWfNaBW9WGKTTTbhaDo7yiQzJLd8J5wChYfNxmNZy/UVGDUDw2SK3LX2idOhciz0ouhnP/vZAw88YEG08847I6OuQcqQLw1E+e6mUTg642iNdvbZZx955JFK03XsscfqRGYDXT5ldnti3kEWeD3//PP6GleHWng7k6AjbYbZe++9eZ+xTMOi5+DyeZlhAbLcU6ZFhjR8FeVwhBCzgdEQan7mpd2YnneQRb+2MGZqeEHkhG0yAaFvimBOWATKrM0p/UTgwSCVBhx+Ittqq60uueQSDUMUyRwT7t2IF1FzqykqtWSAyyC9zTbbRGnkpLQBiHMFOux3JSE5pUxFcnKCJMQD1uqrr+6hCoHMbseLzHkHGUTAYam12mqrhYXdfud9MPJwescdd+jO3S4/BM47yBjjkcgQZuE6N4zRJDxLT7T6tRDxqNf1WsJVC3LmHWSq1/iWXa6CEq39TENesFu4yYnearroFsiqKjbvIFO9HQsPupVjUGiWIKhFUCCrao9M04ha4uk9yaxF3DCfMgUh827GpJxlhMVqHUTYWbUv5IYFe1UhkWkEMJ8SVZUmF9V8OvkvlnkKWUMVda6giXmzKj1MGeAqLMqDGEzdOEtWBX2eQmbsjw9DVFWFzfb2rEKqIpUy8ULNc2harKSiSCCw8wFQsMqpVVeBq/mf1SFL1ZiA6BcLwpTZvPSckgG27S0yasnZcccd7ZoYuV0eADgap/M0qovpaF/96lcdxfIAYKgiwWLYEj+XH2m14PVwzteQBWqVZE3mYGd+QeHqkOUStZj9MqhRPc8vm1ax3Upn7V5++eWqH9WwOBg9ejQVgYXYXdojlHPGXMbOrQcDlTJDqS0Q2OU6ROvKASvUPE7npa2lmez1kC2AHLXGkF1++eX2D/Ckgaa16nEBhf2evW3sVBUCI3v5Oh1d119/fW9nrEih44KU3SELLmlfyoFXYJrk4LU0k4/Gl6g8MKWilhMevLbddluvZvK6Gi8yLKPsu3sK0Ywt1x2M7LEj5p1bHTn25rbbbjs7Fj4ihMx2Kyy+9KUvffSjH+Whm2++uc+Kpa8X5XJgGgP/7373O9tKende2lraQVbbnIZgOiQJs1MpS0L18VPCGzArAzxd9DINRaadRSblVURFcUfDiWyZxdOVnzavPTDaDnr/+98v386yfhdDRFIySaCkDmHz1kewIjPvUIms+QQ3h5crZ6kOWaKAl7Shl7d30cvYAwJjNplO1hJbKRCNxyk7miBz7t9P/mUGOOSQQ5xp5+/RbN54JZ9KqiKWaRixy2ZDLeV3JfGPf/zju9/9Lo+ZQ4hq6lyMtAvq9ZSht1s2sgnUzXU9k0CtevUF3TCq087Utb9oBLzxxhu9ENG1+Rq4K9k5oCbxCqayqFQOJdHbCjaeXnnllYVXa7P6YMPL4zRFOVpDymYIjOiWVN7a6l+V9KGueyR0CiOgF5pCDtAHC7yiNGeH16GHHmqfNs9sLR3CQSaOolJCg445h0N20w+jks86Cuzw0qSOSMMQ1VdZZRUv6rfeemvdzegeA7wiV4HXy1b9aJ999inkd+Wn1qpkb7zIqOTpeo4PyAkS8ZE6LQmUJDDGO3BoW5l+6ow8C8qRWUAqyGSKeRH54DMethgBjTHJ7PbE/IGMkRzHItn73Xw1wFSdLtCRhojxHmQxUaSHSqCgcXE6aQRWm15uGj3MG4ms28EKgfMHMliw1ksmbx7DU0IbMLHfHRBy4BWLWDl+YkmjfoIsiN3NGMESorrlHrq5qy4JbAwZBgZQ14Ut+AtSkrgmE6GB7maEapJlHpAl5w31cpjy2hv3eZxaO9aWXt6Y7MQG8IVcSk9PR8fnB3b0vJnffvvtPbSxWk5ccxj4bma9v3ZTPRWKavK1H13AStL76noMPbMMcGabcC4v3r1v9XzG9dJoEGY19jL+FRgbp+NTvAIwtcAcwPf8H+DgDZ5MfKNHIqIYJSDonttXfSzDj9QdKXTMQZC2XXXqqaeKBbPAW/AgC+eyPWVfwLLZBkatzc7qkEGKQ06aNAmz+C97IHqiHA+AFlMxD+TAL0hpk3jEqbE3nCZ3IJZWh8wbLUiJ4TKjwev++++3DuZrAVbIWoCBq2pauGFNyESf2nIRWqU/2sawOPJgGJDjqezeC5KXhU/VsWiOgS3R2ZkCk41NkPG4gpSEd6JfkBKFwb7StOqQ8Snb50HtWQRw0nGvFPFey6kOGRTs07sbtuxYAZ6jVe3hCzBeTE5XbmZ1yKxdv/zlL6OzFvM2CGTx6Jdzzu00ded2Fa3Jrw6ZjSfOZRKw/2nhSnubyA07ZtU2aU2txMXNIy3haqhDYmyYiCapbJiUI2HUjiuXVh2y/fffX7ihEy+CAr19sMADXMNNldh1UEdeQctpGrs8e9huJYSnu7o4OITMUMnjZP6zeT2rQ2YH3f93sY61Ar7hhhtOP/10G8oqqCVXR/bqyEOGENZaNGXzQc+tbKsRe9RRR4V/ySkrJ6eP5vSq1Btlm+Pf+MY36hiVM86RDqRr3SmqyH8t8WZQ0HgtsjgYQO4nP/nJWjRl842eWiIihbzrLbyzKCst6MMcK3PRVLT12Bc9I5emVeKnHWPvt6RTTuRXX/0nUPWFJO5vf/ubt9Cp38lPZB6nbG889dRTgjp5ZcqvmiAz8kNU6CQnBCaxUbWNaX2TcB9hdsZEx0zsWMLpAGHrTVqRu6tqvUGvUksoWzJ0tstg60J+1AVBoqLvW2MZymMBT6VkNeJ3nr1r1SGfFC/EPIpTy4O+nx6eTA7JNjSGOcs3OYpy6bXEalty3MWnxE5JzpXSEnyN5BgWGMaeVEo4w+S4jHcuBChzgoICNIwNhRBrPYCX8lCmBuVhRCulyAQpCau55ZZbCCF5tihSGl66pI5paLP3RiG7jAUWVRZy6v/0gtb7XbOwd8CzvKIue16ap6MK5kH/pz/9qRa1lqzff1EmLolZFXdekXb3+tEbW18AdzJUPIPYmShKjH5m4M2GsZiKpvAe0//AgrcliMVHTlSnYXOylBZOI57FnEUg3mCnjetdK2Z3rijFWznuoKcbXzOtw87IoDelWioTlA+nxqW0s+Z3aveHNM5hpOPXGlVOdFWJ3Muagix81dszL4QMK+Ik+EilQs3njBw5cq211lpvvfUsYhLXLN07laNfriKCWVh29qmgye8g1r8EYdiYEqJT5wvqUVF0zFRpnlCFMY4o9/3220+RZgBuZ+WzB+53tIncWnczl47JaY0XfM1DO0VrETeTz8/FWJjsc4evw5hcr1Bv/GSYRvWKj+fWEVK/KKqgD63iuJ2wivSvq/J6G8yYeSNIx162hHYuFJX6yYkiZK6LcoKdNL7gwQ4opdQI4oAyiTJHxxwS+WhCbFK1qY5Z0ANzjAiF/LI/ydF6Zbly+mSVTA4SVoWFOVn9NC5+SpNgRxyKubviZyRCTjkvCx7SGz48BWWdeyhRGLNq0eca5zR5fozoSvPMnLhO2vIiLyWhjpByXhatWl9iXnePTtfy1tKQvUfwqtPY5SBr4wXKcpDVwf69U9SGrHRbtyFrQ1YagdIMbS9rQ1YagdIMbS9rQ1YagdIMbS9rQ1YagdIMbS9rQ1YagdIMreyXla6kZzLYg4jtPIncgnbHzNFoKt2GrCmYcqI2ZDkaTaXbkDUFU07UhixHo6l0G7KmYMqJ2pDlaDSVbgqyiEsQzeAVKaneVnXxlW1TqjVHlDTplrfRqU42sjrJ9F45FTWGDLXLos4daj7WIJwiyUqC5kuCYRSLF45NvkWurycbHUASdEKmK4RL5FyNIQO2aCRnTISKCHIaOnSoKNOqn5DJ5dZPi7Ua23kVgq7qc1WWxrrcXWiqD3mNGzcu4g4rKevnQCpw8dkIH3n2+RxxaqzmHIRH/E+S0NQDkwgRX17wWXFBnWK4YC8I1PHOJKVswulhAb64iNppp53KslfSi2t1WlfYg8hTnyeqJKifk4IThJXxDEd+fUyLl4h3wqhvATQ9NjX2Mi3gMJNwMAfBwMTLwCcOlCyCDCXRPsjk+Kmdk36p/0YpyijlXIo0oyuKgiWRJQmFRAh0j0qjlBDmyRTLJZ2KJOjjQpYy8+rkR2kQoPEfGcRWCl4cPHjw73//e2HmUUVi97NxrGyI42Ji1YTS+Wqr/zBBLuyjq6tVC8QVGvBkgSGqkRlVujMpGhOXAfHnP/+5UE2fj4rovgJx4qpMqIKEqFRF1EAj6s3xWv7lg8+Kktc0LzYqwiuQUXwZ9YR//uhHP+IuMtWYNGkMWdSqcQQv+zwMFAQyszb0JihFAYUB6GnMvd1dkIqGRY+XhTTAxR0irldakUsilEOfYy3fRaw7gYoQSMhBn/KVxs/I8ZNMZFG7ouhfUUVBPiURi5kWps1V9Urj9Y9//GMhm+QUrnqQpbrxSBMqiFRUqrHfP77gKWKWdTH5NEBAJyHM8vnjX/7yF1xmHxpQKFQU0B2ReBK6kk4q/p6WAge1AV6fZJLDSHe8SVc0ahEp5xiAITlOVk2aNEmOyMX4coQQdw4LER84E4CIBgTE6hPU9tElh8ZF58JCj0FGvranifmRApT3z0bEFjsP7vyWSGU5FCiAOysnxyWpmCdyAvzRwj6p6GsxqqSu6gMy+hk+DcB6hzBfrQQ7PRQBIRqcEg6q+GdAZt4xY8bIl+kikz0+8O9IS2iJkp9K+5IACaYdLsmLyVEX+ERM+/z/XXfdpdJ89GS2/0zkG0y/+MUvQqu4qwWvltB5fRFYg4X3haXRHlic1y3EmuVQRLqpGTOxMSOw52hOlKiVJepzj4EcCixxPNsooCMLuJZPXTQ0djGbGwLa58kknEahPQdhOTJ3RcQOGzaMx/kZwPEUmQKIzd1gcqDKUQStQggvM6/h5ddcgwf5b0TmKP6oRSkWnxHzaT5ejNiI/p///IevmfqR6XpCsOPILt6GeIFi9qiWcKmTgBezEXB1oJhAKQ0j4fvGS06uoeJMDqTOOecc8dGjR49mjI5sMeHrSLgI0Wt81x8lVx01ahTHdOnCOppPm5mwSBPa64yRNoCyr3TAxSdB0UMTAQl6ECEYOaxF3qBBg3g3jFxYHMJwqt7Fr1UKTRMXZA3nCHygQF1UUupOPmXU5apjfhSV8zI8/EWDG3i5w8MPPWycAoQJVIJCjmhpNwS6A2OgqakR4NK5HKrRL3zyTalTGwYj/xLIImjixIkcSqeYMGGCE3pGHP8xgofyFNMWCRyBgziDxjX4F8MEARuA+IsJTjfXr3krV9JUNNGuGlUR7HirKuK7pbiAKFN0ue5MbJRSTKaFFD0bQrZQ4X9ZVDIwL78opJXYc+MNN9x77z2PPfooq/QF/14DKIzUHx1v8/UDJvmmmPkBHFbn/uUSkwzJJpDDDz/ct+wc5mKnvobA2TxCdA0+SHXTPPSN0ETpgAZvzhU9S0uYAcTlw86QShnox5fxzHSckdvqyEZV7JDSBs52MEHtqhg/fjxc9G59wnkZRe7w1TedauCqDVFrPPxXggi1q6+6avfddqfZzM6Fl2anOsrX33hjif79qeV/qvlMpcYPuDu7s9vMZ5551r/o8h1PNvtCDFGGjxVXHHz++RfoX6ziccavIUNW2WabbR3O8Gk/HQdGgIMsNJ1ec1B0xIjhXPLoo48ZOHD5vn1nnflSOyB4gE7np/OIvirHQ3H5yXM1AxfjX/oHQD0YDVhuQEevWaHcHo/8NJKgrAOZUiaUhqzT+A7f5T38sMMvuujCRfr14xeqAc2LL73Uf4n+x485zj+rMbTraLoe1HSWTkBnvvLKy6w95thjB60waOrUaZYO8umhR/frt6ieolfpID7JoRZeYF2lFLsLjVpc/FRdAHIG+Lbb7tC5UPbpszB24xSIFVGJ15x44gl/uvJP/RZdjLtZzRt5LXF8TUappe/A5QZstfVWvlAIMpWar8lRi4uEyotK2rIcZAGWO71JfOG55z3ZvTVlsjnfcTM5U6ZOHjF8+JZbbMk4Pw0xvv2oGrjQY+q0KZMnv/3Nb35zyCpDLG6mzew9vXfH1BkdfXt3vD11+mJ95lDUoG8eJoQ9s3g7RwNIsW7GzBl9Fp4Vcz59utGzT8f0mR3TpnYsRNbkDt+69Hzt2cCapnfvK/50+S677DJtqg2rXhCMfmDU59evvfrq2DPHbrfdth0zphPU0au3VfIsIbyuxsVw/VcT/h9//zGgj+gxywAAAABJRU5ErkJggg==;" vertex="1" parent="1">
          <mxGeometry x="590" y="512.22" width="102" height="144" as="geometry" />
        </mxCell>
        <mxCell id="snpll3BRzH3zYnskAG-O-2" style="edgeStyle=orthogonalEdgeStyle;rounded=0;orthogonalLoop=1;jettySize=auto;html=1;" edge="1" parent="1" source="snpll3BRzH3zYnskAG-O-4" target="snpll3BRzH3zYnskAG-O-1">
          <mxGeometry relative="1" as="geometry" />
        </mxCell>
        <mxCell id="snpll3BRzH3zYnskAG-O-3" value="RS485" style="edgeLabel;html=1;align=center;verticalAlign=middle;resizable=0;points=[];" vertex="1" connectable="0" parent="snpll3BRzH3zYnskAG-O-2">
          <mxGeometry x="0.2963" y="-3" relative="1" as="geometry">
            <mxPoint x="-18" y="-7" as="offset" />
          </mxGeometry>
        </mxCell>
        <mxCell id="snpll3BRzH3zYnskAG-O-4" value="" style="shape=image;verticalLabelPosition=bottom;labelBackgroundColor=default;verticalAlign=top;aspect=fixed;imageAspect=0;image=data:image/png,iVBORw0KGgoAAAANSUhEUgAAANMAAAHjCAIAAAA2aL2XAAAAAXNSR0IArs4c6QAAAGxlWElmTU0AKgAAAAgABAEaAAUAAAABAAAAPgEbAAUAAAABAAAARgEoAAMAAAABAAIAAIdpAAQAAAABAAAATgAAAAAAAABIAAAAAQAAAEgAAAABAAKgAgAEAAAAAQAAANOgAwAEAAAAAQAAAeMAAAAAN/6pvQAAAAlwSFlzAAALEwAACxMBAJqcGAAAQABJREFUeAHsvXmwJNl13ldLZm1vX/r1PltPY3p2DAiAIBYOCIALRBEOUlJIDDkkmg5JlmVtpBVyhMOy/lKEZVkOiRJtipIA7iFahCzJEAFIAS4ACWCAwWyYDTPTM713v32rvTLLv+/czKx8VfVev+5+r/s1iezqrJt3Offcc7577rlL1st2u93Md6/vSuC2SyB322v8boXflYAk8F3kfRcHd0YC30XenZH7d2v9LvK+i4E7IwHvzlR7K7XuPCPaOfWG6s3uLnc201fntuX68m1HPhvlG8yejslmknrS0RDd8pjFodoSEddqpbtKU7JRSwjGefbz++5AXiQeE0TW5NMTUp9Yewl7JLZdEExY2EXeXXDVjUCVUEvo9xWOM8TfwyHWV2jwkeLb1TCYec9isnfFqkqY6XYyQdLoRNLEuLC7m/zSiUmJmwzgi+yGXDcTmSky7yb/DtzIRIU7pF8vabD6nU1yArnBgter6hbT7w7kIZ9ERK7BfYJyj4wdNnzsRiZ99LYr0lfPdtl2BbjdVIm5y2Lz9u6CWDKkOgagbhUweBgqt8buXc3XoXR3jLaYlNj5idszTI1Zu+IcO373kxueORyodjAfWjRPCoYixAxjbbDc8BhQks1i3a9Lg7p2pTsHO9chjah2DoznvDjgwVUV8T6cq/2IvTtsXiSj3QhgYHDZTaFbyTMcw7emSAeGNFcDMQlk0rmGhHO2ZGu5uYVGR7dcJi+b50Z2InbpWAyp4SajdtVvbpL23hYbruG+OnaVqa/Mdo8Cjylquwy9+HQ2h7l0zO7pkJPiWyrukYvmHXGtDAO74C8aT21kZRjHzsFZijlHw1USU7493wfU5oVhmAyd3ZBBj8s2mLkRRHj2RNgpKxYWMu1NRJJIYp3a3KBj4ZT0o3xp8ZPRCmmaafFWb0yw7xvtpjqwI+PIEybgwtG9m8nFZtnldHkSkjzmaIIzTgbCKInyroB7JpyqNC7upMKT41pVQ8xVwZ0PnoFEGBdw3320tybu09OBRh5tNsQhGPVw4JDu9w5GJpeeIHPyzMjfu1yaIdUwa6gVnaSQy85jupylml2JSImCIqNi0ZcK8S+AUeOSm0tBuQS4dzE1hOhLbtxzfSin/JAkzeV0lauSnCxTfClTuto4vu87aUJfvHs0zhQUR3EOC4h5XU6wSVqcZz+/DyjyXJOlB2kv2w5aYT4wMUlPTl4ELJwWTzZyX9JxUdhoxZJnmcaQkeSLUmNNoCCpIYizOf243CQk2cSdfKU2kXxZtkh/PAK7fCaHp2XUqAKEhq44DFg8JCPkxcQp5OeyFNEV0XL1OerQsljiotReLnHgUh017u1uG2qOB9c54uzGn4At+xozmZTb98AQi73vdV6vAoZXyUo6yWIqgiC4sHD+62f/oJPpWFEiZWPyuTwKQmrSiANpV2O0I0/AwihSdiWXz0EnCJTB9zw+op+LFOyKuLujFBEJuzkuqsFG2aUnoG9XlAcmNcLnQiIFi5wo4FLl8l4+D3/ZMDM+On7k8Fyr2zl/8Xyz0SwUCxDronGW7+KWEuPqKhdGvBxFPf5TrUjb5RqiVhNJZvGkdLsrmwUdyq2Uy2fyICmfyRezpTDoejmQ7Xi/k/cDiTwJMePcO2STz+fr7dpCfb7dbSFmcBYEgiD4QSMoO8FBSBlzEEmV2O0uPJhSwV2n04Ga7/lQt0rIRi67ZFeE4fhLQaCNgo0bi44wbtkUG11e1idKsTCTyYJvUCX0gAwCWS93LfutNzozR+cWlxeBpe/7dB6YcagRUu2CTyokQQFCRMZpsNHthtzzcIQQdKm+6IoDuRwjtYRHKsKhsVDB0npd//jM8UcfeKzkVVSVq9AMpOAfPSvltl0HEXmIjPYjPMTqAo1Wk1Gj2W3pmcG320ZWnTDAhdKQY6BxusAUqkj039Ah+WIbg6AbhJkQBTJsR3Qd2iK9S5XYBkszmmTK2tKDje+g2mVUtF1UwgXYctmW+OW/MIFl7kC45JWAHQgreYXVlZVXXnnlo5/8wVahDS/NsMmwG3oBPGPDyKzCrhmEi6HZTiBvCcgBiRjaqNogSEtoTaBWiF8ySlIioi7JmKAuCOq8vJ8Ls8DOC/1SvdjKNL2Mbz0pbzJSOfVcCt326wAgj3ZLhCb4KCjTQY+VC8Igpq2zjl8oYEokoxyjhYdhEBKkMotEgBI++lFXl8nxPIwc3jrgJIvQzAptTjYP5WkiEgaoR6Y1DAq+hwUiHvJOkRD1vALVO28KIlARl9lMJ+gwjgZCIkaI7NkW9AmEWT/vix7AYQ+sm9VwqZLZ2kZ9Y6XqZYqCZBDm8Ua9XK3eMprWDwApTAMT1pFbWRorRFKnQ59aQD3wRxeSsKDQ6rY6QVujOf+QVBAWCtROvwKVzGbog/kgz/hAjjDwmrCVR4pegTYEWVJi8OF0qFm3+7rTyEObptC46fZgwkUSTt+IHUNWKlWy3QJWQiMY8m13nvn6M+ffeafdbjOoUMwlddvBg6cefOo97yn55WxByuqE2IEumsZOABrPw37kcfyvXb36zDPP1OtVNIXcQQzobLbapWL5Yx/7+Mz0jFhz00zBGt3LkeN/0ZfJKXr5b7/y7atXrrQZwUu+ZhIQCDPUcfLeex56+Eyz06Rcoej7wBdEhZhd8J4DH0Ch3qjVq40XX3rR4CQgirG8uk8hPzI1NX306BE8PTqP4QwUghT5cHQPTZbxVkul5eVFAOd7uH557Cx9kdRCobxe3aiMjgi4oQZcmO9glaEQeK7PBNlQRUzYtx9zDuN3Gnm762nYjzDw6ZkyAYEGnnzGP3ro3gyjV7PNfAEZdhhLc91qdblUKo9WRjudACcQXWInZFo0ECJs3CUGUBDih5kiZqIyMuL7ZgYCeVdevb66utKmrnyZAkGIZwltgpFplZuF6jvdPINlLQwb3YJXzHY02WGka1Trqyurfq74xOPvlunLUlkORHTa9AuMaD7IdFotEJktF0fWwtqFs9dKxYpfKBULRWDVbDcbjdraxmuPP/HosSNHZeEggQFjxmUIVYwmx8TmSpnCa8++/sYbb7SbrVKxiI0nGq+k3qhPzcz85E/+OeY49BDMW5jraEQA1IARPg7GdaCRJ1MD1PSPq5MFMLokevO0M6VCAS+KqQbjJz0+YFjONFES2vJ9z9Qm7SFs06KIEaC4X8AdDEulojniqL5EXWCiE3SLpTImVSMUYxl2gdoidaE646YTFn0miWHRK5W8MkYl78tmARCvlA8qAopMIB9wwiCu0ZeR18OsRjaMQTjstprNyYmJmanZcmmE3kLuNshr1q5cy01OTJYKJawp9RlotDOsJvARQ2Kk3WrTxnvvu6dUKjFVZ+gnpt3uVKs1aqlUKtVaTQJUXrGCRXWTFj0fgOugIk+GJhEPD4xyeFPSoTY0lJa7du3itSvX/FwhZ2sQjGYs+21UVxi25LTlQswASfK75BEynurOh77fadfbrerK8jyWKO+XfL9IfZ1Ou1GvNpvVbA4ThRPG3NPcf8cIJkzGpksB1B92wuXF5fkr88A35+eLfpHRtl6trayujE2MQU1eI34k3hVEuozCNIG+EDlumMJiId9obGxu5kNWK4O6jCZgbDWuXL5w5sxpfNl2yHSE/Gq9Gh2zAXGecj5DJtS7IU0sMKxmPbpTJ5MPs606Br9DtRh+mUyVxsPQNCUicgC+DiryUqIRWuTL447hoAM5vHGtihRH/dHJsnAgLWMPu343W5k4PHfscKHM5ACrxJwEsYNXZI/ezWGX8MM89ikb4nGhaca/TAh8NRhlM43Z6ZGJ0VIhx/xZO0+mNQ1RcsIoCdGu5iIhbrqcq/ZatQEIlK8Di0AhHJ8eI54MXCy+sciCKfL8AiYpV8jTEcAhzKxVVy5fO3/56nmMVqVSgoFWq95sNq9cXcoXPIwzFRU9JrqZTpsa5cuCHNlAcYXrFqxUly9dvlQsF0fHR/2CT+31Wn1tZW1merbD6nsuyNJHBDzZSUpLegKhfSt8Jy8Uckf5oHI+CEa604NkpBmlxaDKDO5b8M03v/HNi19tZdqai9qmAfNSRjQtkACnvFZxO7aMzLItPZtH1sw6gTxqCDHKyUpAE2BodRdUtrl5vlYEAUShUMRMkgf1M3IxfWm1WqKAaTKlwRSpsjTk1yykBKfOiGoIzQmL+TDHSmGj0YRJpt8d3PsMkxw/2w7ffu1sfbP+nqffX2vXnfcJGtfX14XNTthsNiACMDoBvLSYmZw58whVtAPAj/8aaJYA9DMe+NOAi7BoTa7z9W98bWVlmVVHW/wRexhjXL3pyekPfd+HWw1mFXJLQlnC4OHRRz/8wNMVvyJ7nQkKGV+7LjKpErvErc/tuw6qzUMIThqSB4urrESUum3ApQWMDogDE1gz/G2tX2gCiKaRvKdJKovPuVagNQtDM8aDyZxBR8u8Zj+YomRy7VaQzaHdsNNsa4WFUAhki1hYEGhTXoppUY9nFAak2p02k8xaq6rVYLDF3DnTbrTrQBwjiNmDX4GVgdUWVgBOQcNhUC4XAVaoKUuW5rAYWR4Zo1fRnhJzAPoDvp82Q4ICNINWnV5mXQjoYPwQhlaE5ecJLK6ax888SU/AusMJmdXTmGewOJPN1zdarOkgJ+DLqADCbQpC0YNyHVTkIR+kG13ONe9g40BAvd3EXSeFVSvW4ZgWIH09tjFFRZbvKGibCJg0/CDts9GzMe3Cg/1DS6GnVT1i8KwKDG1hkPM0O84X/I7AwNhJljxr1lhQKMo9sxrBH3BmNs08lCU34ZUZsaeFFqpgPQ9HHmWDBqAkN0BgybK2UsgX8P89jYlYUuLJz1qLdiZwR6lDEMlrvGaqhEtmg7IOGSifpsnUj6GjFaBVD6AK346KiGbNmFRVx+VBk8QO5eRgyDirM1gyzbBBTgTu8GUSvcM8XKd6hIcxYGqIwWLgwEnCFjD+oC/5cm0cni6f0UIxbDBMMuqiC9CApZHCpACNK87+6Y6lZGm6DdK6Ae4RiiU/pcAK+sEeceiJkb0Ztk3XoEs7XdKxRi+Upp6g4RVvj41gzC7cZQqlfFlza6DO+I+dBAgggbEd2qLA+C5+nRkG1h7pdB5tozK3qOOxsk2Dx0gp3ADBzfwHyMEdpeyjtgj9MsCMoeBaO8RQZjIBJRHLawkTnzjMd0KPSRKJUIJ5OLqOqG9n8gG2ecgLEwUo9A+PvZHNYxA6+Gb4yO1GkwG0kC9OVKbo4GSUD17ONINOrcE8McsSQ2mkLMuERoU8zIeBBrPBXBAdsarXYuHOL+TKLOgbKoS+oLXJYMeeMAMXnpfhTRxgPlAdj6wIduqsJBeyrWyBGWqmwLII1YGBZtAAN5utasD2ARMQ2T3ggE1k0yHL0kmViTMmudMu+D5FKkVt4WMvi/kS7hikCGdL5eW1tbGxMVqFmaTtLCkLeCYJ3a1D+UW/w8ylHZZYVsoXcN3YIG61WxzbK5UKAasunaYWjzDgYFjg1GX4437nrwOMvJRwEB0WBO+b8x+4XYi77I1o/2i1tVRbXby68Pabb5Nl6tD0ofvnxqfGme5VikKDzw6YnSQBmqhMana9Hx10wtZ669y582sLG42NJiP1zKGZ8VmQXB6bKrGuxhoHhwvMdGlklsGQd5ll3Mzgi4U5FrEb1ebZ8+9k2rn11Y12q1ko+3PHDh2972jBFl4wT/SVZhcT1GbbipkEjgHoLfqVZq1RyleWL6/mu/mVxZVzb5/DsE+Mjx85djg/3Thyz7GNjQ35l12tBmseYPZKndCGWgwpe7/FbCFoNBavLDBfkqH0vNGxMb/CrD3jFwt4Ea2goQ5Dp7SrRyQl2zsVPMDIQ9cmbro+Y12rxViLf+dzTsXPVeYvLtaWqw/fd+bYfUeDI8GD05f8fOHK8pU3zr12+eLl+0/dP314Bq+LeSjjjwFX5ocL+4ctyrWy77x6fuXq2kRx9oMPvffo7EkWg1k/O3f17c3FtXqjOTI9EvjtRrfBET0NaGyIQICpSzffrLdG/JFWtbV4ZaWUL54+/tDcxFHWB9n8WF5fWFhaCOYwYx2MJvMdtk3ZsmPAZtXXJtkYURw7rGb45ndef+Dku45MH7tn3Ns4n7nv3vsuXbjwzvPL1fG1heWVBx98wLjlWAEsyFhxabQ0lw/kNVcbr3z75aX5lbI/Ml6ZHC2NMZdpzi9jhw+fmCtOlZrdhpfxNAmyOTGVgnojcyBudxp5ThT0ZBkls0tbxBJJSn4TR5FYIuu0CtlSbXnjud9/9k9/8s88eOQ0CKD/H54+WhmrnH7ooe9tfuDyytWvv/RMp5q5/5F7VrNL8sk5mMRyCvOMAtophdVsZj372D3v7h7J3n/8VDZgaC3qaFMmfPcjT222168sXVqaX5g5PtUNVzp5Jr8YDlKxQSDPrxRKjZVmaz147Pjj45XxbMhsIJMrZh645/jhuRPz84tLq8sL9cura/PZsW6+wMxUPhZ2j1FRbioLf9XOb376t37oIz/2xMnvqa/VTz1w79nnX3vfk0+++5Ena63WQvXK15/7ysXapQeePBXAbKuB4fXl/nG2ynZvwszq/MrKW6vdlcKnnv5TWPexynheJ7W6G9WNzeb6/PK19bXNYw8crQc1hll6DCKCc1oaerKZHi6DDLjk7gwhX1sEv/8PB2CG0YOda24sAoRil8mIPXUMDodB8nOTM7//hd/90JMffN8j77/30P3N1dZkeerxh59gjz9oBCPtiWOj9/7Yx3/iwuuXq8tVSmHzEDa7Wwy03UybJZClSysPzJ0+c/LRew7d11hvzkzOMKyNsOxRKLYb2LPRY9Mn7j/8YGu1M1GaZPaAgSkWSwxmrH2wdHNk+mh9ufGuE2cm/al8w8+3OIOUrxSKE6Oj5Vx5/Up1rDt1au70xe+cb9dbLOJUKiPVzSpzC8b6UqE4Xh774n/8Lx944kM/9gM/PjdytNIdWbmy+Cd/6EegAJOcnzsxce+nvv8nOkvda+cX6A/FUe2RaA9CH8yX16l3p0qzf+FP/fQHHvtIpTs+VZwdL07Ro/ygNFM5NFOZO33yTDk3snBpuVIYU4dlCYcpRxcjrHkPPdxcXvqD3F+B77bDjioPAPLU+utcDJc6jZfJHpqae+nZl8888Mj3PP7eTrMzOjI6PTPNekSxVKiUyoKGly+XNMf8C3/uL7zw7IuVwghYoSDxOPoofmN5k23+scpYo1YbHxt99LGHy+XCxORIN8te+3q5VGg16iOl8vT4VJYRtpPjmB3WgdEOBYHdSqnywrdeBOg+vh52FDOGSrO52ZlDxWL50qULbCQXi/6Vi1c2lxovfuPbTHgB3/jE+OT0ND4fc883Xjl7dObEJz/xo61q89DMTLlSYEp07MSJAm3wfaYLTFXLhfJ7n/hwezPItJi8cyqR3lno4O8x8+22NxbXx73pi+9ceuKJxw8fPjw1M80CNHvH2h/LZJEDa+yn7n1wrDjWbXSnJ6boUQCOJNenbZJ+HYHfhuS7AHlO6ew70TWxQF//vW/84Id/mIMBGyub89euzc7N6C0Njk212ofn5giwgFHIFrLt/LsfempjYYOpqFZ9NeRlwnb3xWdfmqxMz80cnp6cadTrCwvzU9MTbLqOT4wePTrX6WDB8kGLlZrsqZMPrFxbHSuNsVDRajWYGbCAt7y4Mjd9mLktg6wAgTLzmZFKmW2r9Y3a2ub6zNzUyGh5fGTiT3z8U9/4yrfCOtt02fJIeWJqAoxurleXrq598D0f6dZyjY3aytLS+OQICzMLy0tMDkAe827OVXVawZHp4xyny7WYeBdZuMFcM9wCrUvnLm4ubB4ZPVr2yitLK1McqJqemj00UywVObaAXcXCcZShmC2OeqPBZlApVuTeCnisBglRznu+DdjauYoDjLx41MXWMFJh2NjefOn5Vz76vR/z20U/KLZrbfa4OiHLs/mNzQ0MXqVYRrs4ZcwDMvXu6eOnq8usk3EORdsYUkAmv3hl6cF7ToetLsg7PHek1Wy8dfY7JYxMGYBlZmensa5skrDhXsqV8p38aGHUxnltQzFfbFYbbFRUCqM6bcXCNmDk5J9OleY3NuqHjx+ZnJlgnXG8MjHqTz115r3n37zAwka5UmK0Y6pR3ayPFCanynNZTgczN2/U8ALyhTzI49gN5qqQzzeY9nqlbjNz5v6Hly+v+KEd/tMmCjOtztLVxW61e8/0vSeP3TtSGVlcWNzc3BwbHWUmOzM9PTIywmoRS0UcxZssTWYa2mBhtRwZwqmDQk+uO0Njn1MPMPLiljs/hP7Ostji1aXT9z2UD3wwwYoy0nzl1VdGRkeWV5ZOnjh5/tz5ialxJpIs1I0WxngjbLQwwpqfnGnOGWAPO92x8gS+1NVLC2srG+ViGSeMUfidd84CoLHRkfXV1amJyXKhgknjyMDEyCQ2Q9MbT2ec5ChyaYtLW1lEbOLB1apTk1MbG5sjo2OT01NXrl1iJxbDk+34jz/05PryuqaUbDaYOwss8CNZT2G9r5D319fXrs5fnT08u7K2ylKcPEncfxbnOCGYC6dGJpvrQTE3pn3BHHu7LWbJ2U4Jm11f3WQJ/djRo2PjY1euXub1jhMnT7C4hz3DrcAPCRusuXD0b4Q20j8wlup35tDFE+VYvnfo+y5AHpJhwNXWQlcnkysluW7u7cb19Y1Dc4dabW2gbaL7kVHtd8gjzLFfroMejMMhpoKNKZxrlOqduv9B7X92s8vLvB2xRikWeCcmJs6ePbu2vn7y5MkrV67W642CX0TNQcvO00OD3RNId0PsB0dLGNltoM3U6rXKSGV5eWlifOLI0WNXrl4B+rVGVQ5grnD86AkgCGQXFhcvX73CfglHCoqFMiaZlR3OJdhyifbd6AG1Wk1LemOj2udgEttlrM3zHhpHpVgqD4Impz+ptNMI56bnVheXL5w7D584Eofm5haXFl997ZW5w3P4imWO6+U9LXQzRreCSrnCOh9C4GADoqEVyWhr3egO4e6umGHgobCUT09Fcjg1nLmV7Pifz23WNlgaWFtf4xzRxQsXThw/dvXqZSTP0MTyFSvPvNDA4IJ7zW46wLXlaB0AkWKDYHVtPef5a+sYrDoL0ZcuXrpw8fKDp9/Fel+1XmU5+sWXX1xbW5WG+K+FtCynNZfXOB6iswntoFmtbtTrNUZbznguLy1PTk7ML8xDGaeq1WlduXZ1ZvYQq3k6Mc9aJJY3z2kpzvRzUgFyWmcmCQaoYXVtjf60urqMgQKhzGYazQYbvgCRGIwWGxZEzsxMs0YMfYC0uLQ0Pz+/tro2OztLH3jttVfgkyN+9ENQDruLiwu1ahXAIT0w6sxeP9ZkjO/AdRfYPKd4hjzeXbj31D3vXH67mW0EPgd2OQefR+KLi0vVahXNaekOu4FScp1mWF+vrx0+dqje0mYanZ47e52bzc1au8aBShaI292gWq/ju69vVJeWVxvNdrVeuzJ/pTxWfPXNl1987fnN9gb7G1rME/JkTvPF/IVr56ud9RWmCguXx8ZHsaNHjhzZ2ODIU3thfoHzL4zJzaDJu63nr77z4COn5BOAqVD7WdgizuE3MzX4Z2u4weZYxjt/7mKz0Qb/bRzBRrVYYU27mfX9ywuXzzz2YCvcpGYvW9YknYHb7yxtLIS8t5nLAE06E5sc8/PXmENsVqtLK8tjE6OcuX/9rVcvL15e3lyu1jYBHBfgU9fRgHsgPL27AHnoHMWzGIaHXhzx86O5ltds5ZvsjTbaDdTKKYHV1XUUfP7iucpImddyg1wrX8ktrF8rjRfY/jAKjGC8IdO9/133vfj6C0Gu3fUYv9s4j2trG8wPcJDePnfhwqWLq5srm82NR546c/L08ZPvOslxU1x7rZzYRtbhY3OLG/PffvPFrt+eO8aaSPmek/c0W62r165xnpl1XJgBeRzMXGsuB4V2t6BDI+zBsA+mk4QFrzzp18L1jtdkWcYrFDh7wBrQxfMXsWpMBtZqG5PTI62wwfSpNFbKFoN6IOh34JTVao6wjuVWGkub3TpH/3gZlFEU6WDUcBLm5xcYdnEcJ2YmxmfH37zwRjPDBiDnb7B/7pLD4OybdaU7YOqSKu8K5Ilbja/57Ep15cxT7/rDF7/SLjR5BYclVryxw4eObKxvMObS4xmYXv3OK4Wxwr/8tX/xfR/7wMXFC22pHt1hsThXFJ567NRibXGlttTo1NhgwBiNjuEd5mdmDp15+OFLVy+zd79aX8qPZdgTPnr/XDuLEdPBUm1icbC0mLv/4fsur16sdavNsDE9NTHPGeLlFY5H1eobdAN2inXaqpz75stffd/T39Nmk5kJCYYYo5tnyblbnPCubV5qefXADxutdqPWee9T73vjte9srK/RhInpqc994XMTs2Pnr71dmSkuVhf8Sh4rjpmS6+jlx2fHml6zmtlohTq7yvYgvgLvy01OMQoXL166RG+8tHCpOFH4wU994tH3PlweY76v83mYPYRIExLd39lA/u///b9/ZznYWrsbEOI4uSBsmIdvXXxjoSX/CQSwdFxvNK5euYpTz8IV8zi9GpPNVEYrQJOB7a3zb33z288+8dSjy/WFVoGj6oysHAvnICdbvkw7KieO3/PKiy9Bh6NKeEsMguzw2jp/5/Cx2WtLl+vB5qtvvZSthGGF1zHaqJwZgyYZOvkXjI7zuhonAjJHZ4/wsyXf+vq3nnji3bVmjQ0SOzbMmfzca++8PHa01CzW62HNLxTXF1dZt8mWilAYGSmcffNNNhVGKpMlfwR+1lZWiwWfHRDOeN176v5f/ze/xqB8bfHKofum1jorm50NIJULWVNsMrsvjpSxoEuLSzNjh3gRqVCkaIG3flguZoLVJE8p3wjrq43Va2tXvdE8OyMr6yvtTPuBqQfnyoflodpwawC0YOzn3eYx+C5AHoh569KbS81FpNYOO7wzw3xtbXV96epyc7M1UhgBPTofms9i+KYnJxnFlqvLx+473GDhq9zWRJa5sIY7DiBlGMawXkdn5xgbATh2kBcQATh2kTH18vzFl15/frO1MndipjDutzgnyoYAA3mGeSXjA1PsNnOLSqm0trx2Yu7kC8+8cHzuBK9c40GGLNAFeU4NrK5vtrxadqzVKbXYLGW2c+WdS2yKFMbG8E07QY3fWDl/7sLyfBVUV7xR1q5rtY1CMa8D9L732JOP/8FXf//UmROZ0bCaqbOLwp6ezu1hn7O5ZhCOjY02m7Vs3eN8F64f9owpM6Mooy7bJxi8b3/npcIEr+3mZo9N80YSb/b6Je/+yVNzrCOyvqNFGgczIQ/nGBTyfJuRp3ODsYW5M99WPTftZKv57tt4YVkAZ7mdaf2XZ77wZvU13HZEz5ooG/z50N9Y2qyvN1bmV+vVOkvKh+Zmca5n5ibzvHrIC1hMHv2wlW1igUAeqxgas9hV5xgb51cCdFFsVBuNzWZ1HYPVgAO9fRE0xqZGZ4/OcN4JBIcFHVRGOdK7EAzItebBskgu8Nibunp+PtfOTZQnT5w4zqF9BlUGUBK9kW4ju9nmeDI/YJAvvfzci0fmDo8fnQl5K4c17SDHj+ssXl5fX6xyQKtZr9EFmC09cOoU1g7QLyyzOjNWDesM1joqw1ALWtjFyHvUAQBZK2aHevHSMqjhjY3RkRGYZFHzwoXzzCqm5ibPPHFm8tDEyuZKgza1g4nS2IdOfejM7MOabKFxTcUkeMSibz6Q53Mbrzt9ViVuatRqSSO6rC/KQQOMWBu2JRE4MJLmGeTyYX6yOz03XjzMGop+zmKkVKm3aqu55ZFyBeGCEE4IMUpiyjgtwvwER4dXsiHI4ZJmplPvVPWybLE7Mu7NlmYRPO99IX322qivJddK+7YGOxKZnsjZ4j1KHUJFgVihUu7I2GGm0LMsOE8WN/nRAObRY1THSzxYINhiKYXTfNo8yLI6p3U8WAVK3Wa3PXq0VD7ks+7YaoywuKLF5yneqeysZpb8Q95mWCUjjmMkDvuGeTHEidGwWcuvjxwv1Kq1K4vn1i6vsbJTLJXGTozNjZ+empniWM/8yjxDhH5MgBeCQ7ZuddgPA0y73IYklAmIHrOOuJ6ouv3/OijI266l1iF16Jg3ulgEQ4rAiEi9Wu2VCBWYALK+iqvOz9WUMRmjQMR2tfRGDRM/FULWZOICQUJhmC1wyjfHaz8ogRlmnYPvgHuEdbJsi2PrMi64gMwBmNPqWB/mDiPBeCf4aiUxj7OFAWSgzI+PNILatQ1eIupkeQ0IZnNdrcNxQIRlSCj4Ya4Cn34bs2ug1TCjNugFilJpJM+rID5nTTXb02KzXqQAC7RCC4AytfQkuzRNcZLqZji5qgnNeOnI2InD4XE3aeXlX3igDzCJ5nePOBPFRS/hlJSarlpVtSRhzoN7uM3WzrXggCEPgZhwJB8CaF1jmF445VQAdsJesMLqMf4xaujtBrQj6YKxsIvaWHnhH+uoGk5cNJjhEvKkWvAkzHDElJVVYlmi09FJ3hUSkuTvMRPEtGiWqnP0cMR6hw1SGvAgAyE34QDCuPxEar0PrLCvEuZlZjJBq8WxPCrBXQiCVo7dfN4i9wKt0LiBG/6hyX+4ZbeWDVl2XOxtj0yrZRXp8JyKO3mAeBpGgzFhak0uZ6WIYlpjpCQ45uENjD0uI9vcBloML0fLZKjVBMvjJJyStFp1+68DhjwnAA1VCqFkzVvRXzvkzDc/yITbxFYYH1CCwsEneXHyDGXMJRg6+J0HwRb/zIHSEbL8EBT4NOCyLys4yXsDN8KA4lWliCog+6YjxXoFUiZQRPXCuX4wQGGhlJdz7TcYO9pdYNzCEqNpo8qz3vZliwwEV8rlzUzm2vw1FoOFXKuMm0FGPOgn/fgtH3tHuMuGscZ4gAInQEcXHHI+gl07jCyVy4tg0mMbsvQcWuUIwyLE+cEPKCA5tk84O8HRB+3qGMewTkXQdUxQhdUDU0q5ndcBQZ4Jw7U7koseDAQMbbwr6Hc1oNbYRsOIcLeBFFPDmkgTU0EhRInNwllCVSjAbQySzUSM1WT/DfHaaEmaft5Lp8wBnwbAqGoGJO2qUSUXZeWGa2Is7Se6YThVIYAmjGsLDGeOWlA5HUN2RSniHd9U7mY+PzYywtseVey22mTAM/xShko4AkOl8CyqwpoiDXZiy47DQAOryXagXh2SybaLImSDM/EvueFXsjsnw68+ILutN5E4N5CdYOeXninMuTtMxMEYfJZy224HBHm0twc+JMKDLoXotB6LVbhNQA5rxwXUSEIPjJwyA/o9Gy0U8+ZfFmeaZP1aWcGUK/FSEnxAC7IaGAEG7zuCZu0F63xH5HLzrFct9BYtAxvoAX8wgGIhDR2ShEh7yRIaDJTiMZTxEUD1e85aw4EfFeQ4C3MSqs14jSpQ4JWdplxMuJBRjzxPkFbbZG6b4YAdtcAz2/1apYFdDZL4EW28XKuX5rKNI7cAPvBd4RBihPT7kqIrmuTk+DTcYRf1BgbnrjjaOKrTErgDkE1fBj5JORJ4Om2fw/uLPMl3m0aRZE2L7LzMf6qp8s1MmnwBKtZL60EDP491XTwYhleMAgiUZxby7jcmULrkP0t+1Gimi1+rwJwRx94T2bQ4gk2Sk84bqVpD0Q+PUorLRiupGZ5Qt4ZL+ZFSruAPC1hSTnxoN0QQhJTKgiMbc1tMha0yqZ9jpLxsIWBpGsSeW3W9Oj7KIb9cg7U4NTK2Z1SgeqJm80KJC/EyI8R1aVqgZP5bz6Jzhc2OXmDjHUd+o0rFgZoOqTqzrWKAkh4AIxyX9njFhHaHAWezWXU3mjaUGPSx2sSICbtiRtxT7y6hxFfCbRxx89/7iDy0RPvFGiHjkMc4GHOcam7cQKnZlKI8YIvuPTE6zv5lc73RqDc5r4tNQwfMLjE/MmesccXIQ9eogp/Als6ozzTC/i6LFzJfIBDtQ98cPKHHWKMQcDWUw4VOtdg/DV6oHIIsWHC+RAlmM0nG/GAwYUAEPXQoqIlttQhq6FPN54mRsjhWsB+v0g8jJ8lqntBr7SZaRfRh/VLIl8GzZwVVimbrS8IBu0INH+ipEWZbXYOxa2SnRUydOGiQK/HrM7wo6nHgSkdmKel8C8cjBKNqFdKllvcusaRa9/7aR+SZ2CPVurA003c5jSnSSdIlmxIsaLoPWHyrL9aqi5u1zSov20pY9tM1hDVZIEKXSrFgNzI2MjvDSbWSNMbmBcfj5udXl1cZqDVYypti3T8yJ8aS487ukSaNYjZb73IYJMNbbVPTM6UyP2jH4otWcNY52LS0zI/dacyjUdggbK+DApqyC3zAJRxwqKnhlTY3q9g8TKqJwMlBdwFWl2q3f1jcUD8qW+TnrZRZ1o4pfbvD2X3XTwAdSVpR1sKMkERhdR6jgndHqoZgXEMWolkxHy+XcpyQLVM7WzpazNGo63hQ1XqwJ4V6sudhH699RB5cR5IyUyeMEGU9yMXbXWK0DoyyI1mYH0Y+1hH0UyOtZp1dsuncbHmsEo6YmTGbZx3bzTSFMHAGJY4/jY6PHT9xnB9jlHmiwm5m+fDK1ZnLvHfIai6CRZ8qaxIXR2JKh91Fwlkai2FQtjlIhgMpx44f41xdk1fN5efpx8LWV9b4sU5YxuTye+4wbwoUAkQFOjL56Ji3fYPx8XF+YwqTozcnVVt8MXdxa8XiRinc6BocHy0Wi2oRjzZ08I5PnaOjsm4aN7Cj4I66jFOAKILEscoTycIYgRfeBaCbHT10cuHK0oZXZ1EGL5SVHoZylVbXYLLM3N3qd+SMO5rA7gg0laa2CZ0uoIdbvgaGv1ummBBwIuMRBx/PjJmBPH27iOSbu1weLVABO4xQhDz0paNsLK6aIhB+vVktj5ZAJB1aeVEA5c0wCUWSi2SPv8avnjEaE+asG1rSD5TYgMiKHb+qoyVaZiFkF/J0uSpVFn5Mx0bNlBKtsODd6Td4mNeYRy+mBBfhSGCXB4nLpQbBFZTcYIalUiR7YsyEdJheFZBEta5mq4IcscU2dqR5doGhQkC86dvCkMPKwYexaq0lXVk0bDiqVoeCDnZWl3aTORbqlWUj2brG02XywVu38lUphyfKrgbLmTinJtCID+gyqOs8KWew+TVdiMGppObYT7LdbGDfkcdEE9hp4cNp1xiVFtQ07mbzkJ7+tKZrORn5pXZ++qQAUrV2SndkjGNZ1RbeQKuzVxQnQW6yvigsmqanKGS+H5n1s1FUxpoHCMG0IT/29pU74sGpyrBj3dpYVRqvjSkPKyfAXNrmiY6ggriF2hgRC/zQulAiLuIYcvKBeyyHmoiHid6Ui0x2s7bLPjruFccl4m4n1XK5CMcYDTG9Gw9Qoheq3yIOdCjwKcEJlmKASfRgKOD1DuQJ7NnJ0Fkefic3Z3/I1PiCdSpEJhBLIc8ISf76dQSf377VD4sbXZHdi2sfkUez6TS8uIC1QC5utUIKsCuRUQQcKcRJW7qUAliG1bKEPSk3BgPFKgLK+uiBnhvpyL7ke6s0EkenGBQerQKRgYSpRzxosNLlClst3CCr4iJLCIgTVE1WsXoOzENCkdyVCeLa81C0iES57dHYUIoAA0eOj16FSnJPKucuo2EuI88iiaVR/WKJJwtGQpDVIkFNdWXFlsuh7PbEsxwQ7fUFOm2gJUOyON/A6la6MotYTEe8QtWWFVEBVLECvG7CMB3VtBdf+4g8uIdvWwHhTQJ1QQc74rdwbi1Px5j+0xEW3lqIqMFsZJHliyUYk4gwET/ad38el+hiewxuI+mk8ABP6ToGE4cw4jJFBF16n3jSJIeFU9Wodya8RXkNU4OiGqCUKic1IUVWazB5MtZa1+Q4jHu3Y6DkTUbs7wwDplEjfHMRULeNL6deeUWpyCgxJcw4e9yHe8+CXt8FdYakxAb0pe72ESsa26JBRaJZ/XOVxxgZbJfq6rV1h5qHZBqUxw7lk2pMvGYYt+YWbwhqSD1b89Eiaw75NTJoaJet1u9jmskAhCxPa4K0R9c+Io+WOORp1mji5G4Ciu431ARXNl3E0UzHEJaQBxDZl2foo2NQSdGgZkGLHZ5fOXtqsDpTpiUGaLpsKjmKdtDtUbGQQ3a64NCwA0qPZo/K1uwajSO6ca1IabiMEKmkah+Dnv0suM0LVTbV3q113MzTviOvj2Ma5sAXeSQpNSfsq/HXvRgOyDWQE+rXLTo8Q6wgUsWAKXY7DSlPvxmxeh3j27AwUERUnPXcAo6B4hYxEGt1pWnGxLa0LymrDunEpTKO0S05ew+0311YOwuoqEmll+eWQ/uIvIQ3lGh6TCIUcILcUQBb8vNA43tQ2K7kABb7qez43M+n43JYEY3JKf0l4YhDvgZsb5InoWeN0A39JpG9NiZRwwL91CAh7rfneBiRJC6uPv6OE8QYHwj31xfnuNnvfUReokUCzksdZFItSgndZUgKpvMjElO1RDM0ww5l03S2yya6WzlRLVtj0nTSiujjxwrSS/q1mAJqRElAMajwlSaYrkh86bmfWl+lJENpUJj9pAxGQ+CZtBS6sUeubAJzfA0y0Uf9Rh73EXmuE8I1/LiwNcQ1J2m7LXSpSZHkt5MdHq4831hACJqcrE5DU8fMtcPE3kRCVjKISDkOFNG7lKTclt84ZPojKW+9VDTWuKPmlLA1V1xROjYhnop0LXS1paIt2F9zlJ6IpT9//NyjZtuBNi2IJOk6aCSEXv7hNSXtIn/U4kg2ZhviuJjMHnzvI/JujrthOBGlRCARPux0MhsjxNuf1bGJsxtwUji+OR6SUtHqdA99ScouAoMqdiqN4/v6SR/FGD4WTcG4VJLNTT0dYtyddbsivzsVd5Uk58EMHBTkoYYtsh6QVtT7U8AkRhd35s4GzWEKGiAUR0hBcVd2BVO0o0xxuh4jBqKU630NtXlGrmelrkdj53QtSHHZcr0NHOp7juEYpTckj51r2/vUg4I8k+GWBb/+tgophhVTnYXVvZE1i4WWIsHHQlf6DpdAZlCKdEVWrT4MuSAY429ouhVJWEoIDF+DTihEII8pJ8VuKOCoMZNh00O7qpKDo+j4ubG+ckNV70HmA4Q8WuMUsrPEeliJm08plODihbxEv3FwEI7CE9WZs5cQHMwGkFGl/sXXMFsWp239TpfamsKT6uw1diA5HWFcDRkQVNz4oiJ6HP95UmiwG6TJHZjwwULeDmJBoG6GMShZhwunIWTvABR1flHs4Sahb2qKnshvmfuz2bOIKYPLuxWFCbXdBhwV408IdtT6q42JRdl4dDzYc5yo75gZoVJd7y5BXNyE/UWeUzB3BQwyklBcN9+JtLbIf8tDlNsVTBaKJXaKy2jpiIUrkb4n1SiLg6GqS1fe44NoCMa5evH9oYHSApCAazVbqouxggP0+oqTFcgINNEVUYta4yL7yqTERznXy9QqZOBycpdUUsV69ON6hn6bLMWyGDIK0OQSQfcZaM9QOruN3F/kJVygG8nCND+ofsnmus2yDJKBW22KxeOkj7QsPbZ4ScWiHCtIik4nbA1vBUGcJtZ2vKQja11MOv62WrctLqaGcEP+pLyqJVtf7QmyU02lCF0HNsjrwiqWknM/kT6a0WNUXLWaNI2TKNLIDi92k7HDPeGbJHZ7i9Gv+acr1lZK1reJFdPRNnsHxtwOfFhnkWKTS9QGoJak/hEL3Cabd32pWQeLsm1Rx/WLCoAGwRtQ241WsSsuyJRuhsrA2A1wtYtarptFBjg92F63wB3KcOeRF0uqpzO5PjeIDArcUJkbynxd1Qj57oq/e0VuP/R6dR/o0J0cbW+xazpwAtwIdTzfIF5vQjMyroPFiHKfwSRi4nb2ABpn26FQnEXflk1OhSi4Zu6ipZLMAb7uEPKGqe+GpSTISbiJgPfWkm3Lz00w78An4ICi9CU49UWlk+OwlTMAun62c0sPOOZco/ZxtI1gwdeg52GRjoNByacVRMa+bC6GUnrLww48K0OsQXv9wpWQsYlD+pa2EpCmE24kPJRIwuR1KMVtSbINpZakJoGh2aiUE0DqfI4sjR2gn1DYfQCROoLuziNlCbvA7ulcN+c+Im/nuvekJZHQo5oMWFvRBiAtdmde7srUqKEA45a70x1p/x0abW+2rVuhlqICvoZahlSWP3LByKIDQQsBwLsJg3fM5jkcbLVQO2FjCK6GDi5bIw2QO5G9K9IctCSBgYvmavTQEDl8sFVfxe73eR4DdG5/xN1j84aIPRZXKknvGpmKiHOfONNd/h0ZtiGtSHrvDgPCcFQOIXb7ou4M8vbEyUuEZL09Qp8ZAI0+6U+S8+4OJBCjGbaxmjRnb+WZkN3XwP6OtttZnV7vRJoRZm64mW4U4a43pJybZyNPj1BEOVVBEjTPqJfzxkNGIKJiRrZHIp1EbC/V1X4zVUNDQ6a7UmQUtHF2uAWJq3ZV7lxxlNpTTVzdPn3vL/KcVFyPHGwS8YwhiUBvuIX2M2EATy9hcCpShyP5NQvTgUSeEJatSD0Or2foaDa0VC9nosq4qiFJWN/oZAAI2XJZ6SFT7x6ReIy0gluLuw4bU6TxyJJVJvsxFdWCtCVdZUi4TAJb2LhTD/uMvP1slgQp4cbiV10O3nFMStRSJziKcS6t7OJKgSDOLTBuu7jlkDpI3MX3MGDEjMuY1Zi8vh1rUZl0wk5hKk3TGsLDza7JRSDeqfKbSTvoyJNAt2BrayNJs4tYydpkH2MqEn6vtIxPnNgLJATTiksik/xxzBYiceRWanEZ9y13gH89NqyQQ35fpCMXFedr4BhVOsLa0uM5rjRhaW8CSHdvCA1QOejIg2GHoOEiMJtHBpdH0td7Mb0n03nS6B4NlyNJUDn7l44hvOtsfeUoaf9iI2ykBvKI/pDIJKovFQgkyLOWwl1UnoABJEJJEp+QcgGSKZBIYbtsfaX26fEuQN52LUeC5t7pOxFiEtiulIunSF8GKTFWZJK0y2xJfgJ9RdL8AG5DSgSXdKntwn3UhmUTNbWGtyBdo1KtoPYtFLY8iNU0e4PE09nT4cGcNxFzFyOPSYV+/x9xmwQlGrYyB9Q61JgNkVRspdJJQ8S9NZvLkOgvnT+JhOC28dsb2kG2ha5U6/TLdzHIrOmSRGRpU20gT7r2VMoNBG+dwmBl+448Jx1QkohJTCAyyWmLShLmdt9O97N8aTq8ZJ/QubHAoKqHltePMW9ti8yNUNDLrpYNw5TluG7rhmQw3kxevUp498JEqKoswOS2l+pCaVJO/nHWFLeWlfgEo0lO91NgpBPjIvsruIXnfUfecN5imQ1PvR2x/aLfdZ1mWOQvpS/DWjri9oXT6Lp9td56TXcIeca462e33oYbp4A/3ged4TS2LFREWZy17ive9zic2t7Gmgm8GcQLqmkLvT1b+wrqO4k81+R9bd72Uv3jnbLrMWf/tHPnkffHGwK7a/3WaU1UJmXvnBNmEanY3dHeIVdCaz/wd/uQtx/c7yC1Pw5Jaa/fjfcJVvam+SnTuOfqu03IQ0aOde5pee1eQNEGxe4L7JQzvTqxJV+/5tBnf5TzkVKx5vhtcfSM1y0xUSXD4rbU7x5SxIekxrS2+mrmuWoOvN11Pck7lKm80eDmNKUAkVtr266SG4jfd+Q5wCVoSwJpHvsiXZF0Bmu8CWRr7ODTrjJp2WuXGZX1+tcwcgMVQGg3tFxtA6UHmBjIMRAxWMTQhbT7lBJlTBakSCanpmHkZAmJZRv3ZzMGKN5CxL4jz/HmmnoLfH636K4k0NeHKTNU8oPZdkV9TzPdJuTtKc93mFif4bq+qbnD/B7Q6vcReX29re8xkUdi/JOYOxIYOn3EYvQxM5itD4h9+VOPNzTapspZcDvp9ee7e573EXmJEP7oSS1p2h0N9PeKoczsMLDeWb3cDuQNlcgfv0gHlF2byOsLaFfIMzJ7WOn12dpljv1FHgcFkr9UmWw/p7sa4b5OKXHGY1xfUtKkhAIZJFTNvvRP8YS3K5aUtyoGx810ugvvhpIR6weBGDPW0jStWVr90L/tr6R16SzDqF2flFEYUpdJS6JKZiAWjp7d2gxMJpy4ACcSkulvmrebC+8j8kz4UWN6gotD8bfYTlpImAK8V5E0Js4W/S6hMkfrTFGWSIv2BYrTEHBl08RFP5KxGOu7lHNrtDKnKfYVcI/b4Kiv3qFFdx85SC2WTESDx3SnTVEe0gC1MmopX70MLiTMWe8nDbK83xHyt04HjlWnqriZ4D4iz7GDyNzFIwG1yHTPYyK7JODyKFucGoV5jq9BRQuLShUZ5ddDXIcLGkHiB8uqnLtcagppItNTSpyNb6ss9dxrSDpy23C6tUMzpXiP0+l4A7W6tOtRG2xBmhDicgR6crbVPidKaiAe4UFEt0FaMX838b2/yKMB7mKodRf2jJa7SNgl4NrsWHdhIvUYfUUp5HMhSxKGDGd6UqkIN+qsvWxxyEVFEjeynKgbisJ+/Tqpx3T43sKUi0+BtZdxSD4K99J3Cg1pwe7K0vi0lCL2htUaZ4uq6i9m0fpTo5y01Stt/LUD+4b+TozfUNrtQB6unrsSdRBIwml21a64F0bxUT6E2jvy6eIc2CQ0ikXIi/5q9xaaEBxATGh/qjqdzYX7BTsgaVdPX0E7DbwlTuz20zIe+3W8pZR7QNN9sVAaJGe50jklh6FS7aOmx7iKqHz82JezE9s/WVw4H2hRX/4betxH5EVGLtUqJhzW6sjORQCKMyQtSwKplujvrbjHQeFaTFQoMVrDiKQUY7iwmhPlSbB9sk3SEk52iTyxFLcrKessRkJTdfV1M8vqpNQrtW0ISlv4pcm7LrsN0XTzCCfSpD1qUV+F2xDZXfR+IQ9GsXNil7+IZ6BBLu4xwgQPA50ogYvLuaUJkc2LWq8vxC7y8oe5TJERtrYoRInR5ehbWbOUio64cjmSWGclE8JRedWSyhLHJgqKI2gy2fq5GHJcXQUGsyVkeoFhtQ4WjQTSKzY0lFSYwlki+aSi6PVO60Iokj9u2G53fN8b4HdoHdeP3GPkGZzUMgIgj/a4yzFCWAEHK3tI8rsMyT3KmTyrlHtIJGMRRo+bfRsEXShVcAAAypy2R3FdqiAOW/fmj6czeqdIKRizvSW6P5PyDWhoi0e7pXjfg+tJfZG7eLQetYt8SZbeZC9ueKohjK9hwI83ZPlTmhq+gqATBJ7vpbIkhG4msMfIS1gAUg5VaEo2z/o7McoQqzfJkJTaMUCT+1pt9l8EVU7JiHIQaHEGZUquNPRcpE1OYtZstmyvtUUWNSkoRJErakoSff2AFbt+Ntcrbgp8fdLZTV1JQ0xsIhDLVPLMe/q1jDxttQtTYgbgJuoZwss+Io9+Aua4pE7+p1bp1MJ4Vpsoewh3qajBGaRhIJVDwSHAo6LYXvYyD84JlCnNCjoxeg7WSUlJ3f4nCE8akuTZPmAdb/vkXsoulCtmxfQWmkSqvfHV9xhHp7/TbVa8pBpfpPHYzemPB8tzQoPQ7qXH+W7qe2+Q1yd9HrkcP+LexOHuCZM8JuFdBERkF9n6NWFFKNhTxvZEIvpiPBa/1bltvUkbt6d5MynW0q2VDqtpWFzkyPRqjbXQixkakhVg5cTSUnQVwX/JXpJAMCaboSRuOHJvkJeuFs7dJbZ3B5d08VsJD5WzydNuadIDUFQOizRLoqeBMunyCrsMA5T6s+3FM3Lsryf9nGY1HZ8wmeahL8MA4XTefdTf3iPPMQ74khakw0lkEhhE57D8jlpawgmBKGCldusfDVYKlbjeqBbypBrRq47kqG2ml+GZetn3IiSOBtpuzMUpvVQ3BqvWOK2Pg14G1xCXLSbQU5ujMFRSfRRv6nFvkGdK6s3dIt8u1iWpboXFtSJWcMRv3+P2rUAmW8TSl/OGuuduKo3z9FdqHmcqkqpd7XUAAEAASURBVKE5UZuiU0l9LMaPaW3GtcRp+obCboj0FUk9xvxsSyfOEH+7snpK86Z5IQOx9nsUP4zVVKU3GNwb5F230i3tuW7ug55hB1jskHTQWzXI37425nYg748W7AYV1ItJDIOzHr0ECw21GYPCGZqtj9QuH0X8FsiZRdwy29plvbvJdjuQtxs+9jxPotGhkk9S96/eQcq7rHRotqGtSKpIiiTZkphk+EySklLXDzg3IjZ9W4fm65feOcdtQp4TxM00fmf2d5Ha08EuMt+NWe7SBvYOgNyNQt+O57tUGds150bjhzZ/aOSNUt7D/PuIvIPW1D2U2sEhNSjkvpi+xx05Z1jt+1j2eLepN4ffkcouE/d4tB3qWcMK4+yeDLU3IsedJJAws1cEd6psx7SEkx1zJd7azrmGZEvT36Gx6WxxHabMTIZ9sx0Kxplv+HuPkXfD9d9IgT1v/966zDfSlF7ePW9Uj/TBDt0FyNsP3ewHzYOt6Otwd/sFso9+3nXaurvk2y+R3fF1F+RiAB02hh4Uzg808naA3UGW6R3XrUEuXoW749xsw8CBRl7Ccx8Ebx12fQSTiv6IBW5dUPsnkH3089LaJYwU0vcdmpQu6LLtvhMPni7R7k88lUg0QRV9tVjBfjvh8mxJ2noYMybeXxC2XXt3aGaSlHBlh6B3vzEftyohFAeSptnmWe+1+Th9yBQ4SSKQFFfDeTAq9r1tjeniuwzvI/IS0RPggiFOKTu23OMuWdwu2zZE+q24Ko6BYVyInr31ux3hIfFJwfQ2KMqIiccVbC26DYdbMxlGXZSk06upP9uw591AgTzD2UsTTLPqwnQqTqkkeYi0eEjtptKk3LaBfUReVCeidNt/cWeiAepGN3gNFjFB9FO53gG9neodTCPGKW2wdmWOWjGEkVRqj8Mh+SxxkHivzC2HBjmBDcdJut50OK4zGqYchWEZ4ow39b3/yDP1wLdrrbU66oI7NMZlTrdoMCadGocxQtfv38o8LNdgXO91Rok/viyfbs4+xS2Lk+2bVg9Yr6FNIBI59EQxNNMW0u7BMTTIcn9W/lTQYGNddemqEgbSkdAaBG5/BTf7vP/IM87S7aGR7jEdebP895UDeGmMKHUAizdgb3tld1CxENaf3N80e06022M6Rmd//l6OKDSQgRp7Q+FA9r6I4eyl+YF++jFdXlXz3158jPlNp99keB+R54SV3JMAzUj/gIOLvy77g3IZLCgB98xUTFLwIaWHSELDlNbLEJeUwBWO5xFJ/NYA7kS/apMMg0wmSS5AuxL3ty8peRxOZPDPnCUF0oEB3oZSgw0uV84FaLQaZr4s+hL80mRvObzHyBNzbg5rdgB2A94WNiOnToNjb7CzhigrJirqRhKQm3+4BiKFrVDYRbuxd3EuV1wG0FGJpBpHDIpR2WLRJ1KFWQsn9kD0hEMuahLPakqks7SOzfRGzKiFCkaPRtFRoCAXzLjLpRgXEddRXpJV2ojGDTJqLltCsU9kig8zeklW+eK2SyTUGrED88pmFSiW1PiVUB6YZCgq0Iys67msyr4H154hz/jvMWTqyQloII9oAmLewSxREbmwPrSI3wREQLTUaZom8nI4SUbVKdjI9CpQ5i1P9tDN5HBrkuII26gYBURtAs+RHnStujQBcdxH0c2NuJPPVK864Sqnv0oPTXEL58TqjWgUpGy6SFWsI0jLs+pUVEu2SOMiR97oSXwldZuVgYhrvkVLdgF91KAhynxcTVZdfEtIxBF8GzX6N2mJSI0C1ODANUHAM95cQTEj+mFAtW6Y5ecikGxU0FoX1YFKHWBTde4quGfIA2RxX1HFyFU/+Cfh0grpwX4oQgJwvJJiMHRyJo8rjbhVRmKyQnazlpCyiyuUxKApGalSY4S7Sdm+Tcv5XF6VXP8ikzi1j+Xu8jpMRN841q+hgXejRrbk4s9IRBVY6zEdZCPGnnasOja0fVCgsKMoInzcg8lQlUatTbOgaAd3UiMcO5krv4gkBNUEtavHmIK0U5g362DERNAe9eSudJk4blffe4Y8x4E4F7/qKApJI6TYRR+y9TwejDUnJLdmRIwhy3JLOpIJH4V21Y6YokHAlVV5ERFAIoqWy0S8W7KuJxgbZmXUw+HNSMueimH3lFaJgcR0R41qgEZtU7Myu8KSS2T5jK3eLSrouhqZNVJAhJA1hIwWtALKm1yurcmjBfTjd1FpPcfCd5korC6RPBjlXjYSMNfiI4czyg/l8LNmLq/uN23tHIk9Q16PI0MYjOby6DwyZXQdtdJWJjUcqon6VUBKmegskE2YSbRDvH0sU7qKoeFoTImJWp6kJ6sKdxmx3VCkCzn1U9YGVji3CzoiZ1jiO1a/G3MVYa2iCtXCf5iwEhCJ4pTg8rmQPca3xNo5nqFGDQzxcXryPVA2EVwqC4OsarLSjkRCiPIRiZwayBU9qkLjmACt5F837PADP+oEe3Qlyt4jembwZPPo5cBOb96qz/Eopq09GAoboSRPMw602b7VbDXYcqX5sch0hIWHyED0YqzEohtWjqJRXQOpWyKMQYsRT2qI8RYX119mcsx2XKa4cAwA6cmYlxAi3cdpcd4h34431z7drYh4cZcLIE8D9JDy6SjZLBVgnudQExdy5NUo41BlHPiklzgya+4fr0szU1S8zRFlUNJV3Fx4z5CHHBxDEVuSi/GPOZevYGNGzCNJLt1cXxrs2m8N1u+2EaMsLjswVYIpLyagb7MBUZ5UPHkVaQNUkkqkdG/CVaR0mSRagpO3C7o76UbENOPMm2jDm9ojl5xHuUc4uI4ZnsWUWsDlFK2Q8unLOqFCSrc8eui7RESJKsRXnDW2r8ptkIvIuy+DQlTNFnoR3IycqMGbNKU8cUVRmK+ouigJfgnZW/t4SVZEThT/s/nEuqvwzV1OHzdXdkspN5ISRcPEH/pwHnimm2fYNVtEq708f6egQ//jnvdyQQdrIeFaayVSCUbaZTWmzYSXO7/c5uU9fsANrYeUyufa7VYYdjRcq4Tu0riEDPr1CbudIGxpYgaITWZWRVyPpE+p1EdGmd9B4BficGUwzxKw0QzbQdMmwqJOPcaeVasiykmMYmXX1XBdLELYtDDvZZqtWswhtateS1LXsiKqiEgTgiMkPkgKwg4mNei2aQsLBAZpQyRpkpj7xAVFhLFQ1NxHjKkD69MJWmGmAx16n8Se4/fwIo6NV467w3KQz+v3yuASFgmjGj0oxiSI+eNvTHTaYNFlM2la013oBu97ZvPS9TrO1GOQFZcmFgIi0qhubhaKRWKAYKNe9/w82o6wIcnLetC0TtgCrogDsvl8oVar+V6+I2BlO522hnBJQRoig4pbp4dApxvgTOby9G3Khq02gi7oN+BggczCJdVhpTwTMpGpy6K4SS8oB7pemPfz9E4qVeUCK+sLVEoum9Wa/ehm2uSVFdRYTx1UFqBs8vg+vIb82iYyyAvx8GD/UtUmQaXKynjtdjPv8TOdQLiDuCgOsHOiT922RiMeqFNNdxdl9SCJKyLCp4SZD7uwB82W15W66/W6jEI2L1krs9rledmNjY1KpcIvg3qet7m5MTY2bhIWtegSbaMeR9zK974gTwzBYWTVUaLWOjBXtIoeXdvcbHXo0NIDIkC4WpXoYsD5UIxf3aPJTX4YVWrKAtFis9ECea4vmnokcgUkaJOFSZyQ5ElVYUvgEx9QbrEIanMFzBi4UTfIdunfVhs1mn8gKkYPzVMRfIZZzE4dc5vLFAjl4URmFoMNKFW32BacqLupRxZcQjcMhZkcBqbT7jT9Arjpgn403W13gKFxKuapVq3gAzHXKjFMt/Hb7YZfoOO1mFD6nh9qLQ82+L1O4C5Y24e6rIlOAo6UrR6YWKAs2mG2k0MmFIPrbM73Cq02QFQMDSDG6kZWYqJarcJIsViEjTBcHRsbEw1h01iNK1LULV/7hTyJRA0X0wgba7e5Wb106eLm5ua58xfWN9axZ3RHaz2NdYuccgm1pJxtzx6abLWa62ubmYzfDZE43V2/fevGdCHDRgTuaQlIiBJnUCr7h2anLly4gL0MAy8L8jAZJGEwcrJ5AF1ijPVtgtVTEhDzXjB9dGRlebXdZH26kA3RPVCDDQ3izsJ01WFw39rcgR0TeohgeTPo28dAdo4ePTa/sBzIp8hjyQ156nJc1KXq4EWV9WoX9LudnBeMj1eA/dLisoSAx5H1hTwNow55sq/p5idhkXVXlo5SP3nP8fmrC60mowszZHoy8pRGqFNukC4N8aiDa2JiYm5urlgonn7XaQHU6pBQJT7xuVfXfiEP/gx8kq9GxiDc3NhYmF/49Kc//dZbb7U1U1IThD8NQjIYJi+QQR9tf/QHPnLx0vnvvH42ly2FHd/GatmqTodhq+tjDz2PMEUQm+pyfVZjEu5O+9Spex55+KHPfe4/5bIA12cwwcipPnSWBRYyQlauJ0oeIWUqE2fwDHQ+9Il3P//Ci8vXNnPdsplRXJ0IWORBHW7pP6vRFhvuY+ssvo3B6+bahWL++5/+/pdeeuXK5QXQn+tqgHM8x2xH/FOKSxJwUMA259qPPX5mfHz0a197Bt8s0y3kMwXkIFhHDhx8ilWVsguaYMhFEqEqsmGu1PnhT378ma99c3FhNZ8t4DV4OQ8CSmQsVm8kKOfT9wsM6yDv6ac/+sEPfhC/USaDRMRi9HXvCcyibuG2j8iDK+MVZiXwdqv1hc9//nd/53fKIyP8AG+rxQwgUygW2p2W2TzlxSXK5lqdEK+8vb6+srS0kOkWvdwI/bXga9kWKeTz3unTp+65994vfuELtVpdookv/khSrsispFmvT3fC5vLqQj5bzASFDOBD61Ir5qptAxYNt04cl04w54gBvHwRi9paW19aWFr1s+NhE42BPFhg6iMjZsiT4aFnAeZs1pdjqGiG2naYbeQwtWF7Y2NteXnRyxUZLs2FjNg1zl31arsI6kl6luOY6zSb94bdEkIIOlRbzmZ8oGLMy9d0o6cVjG5qoBZ6HE1943GGfpWt29X1lcUleCh1A/xnPFdNxzUUqytCDQr5Wq1RGRlZW1v79V/7tTNnzuBjqpOAPYMbeSLC6SpvIaw+ui8XjLqPkwB1ZLOvvPrq+MQE/avVbGG0aApur8mLVD6aMXQzBSbtWj9ilPUKGBIIydQwIJibyKTv8OG5M2ceAr421dBoR1AShVaQ8Zkyh416c0MoCeW0aaSmemnVzViNNfV4YrF/kqr+a0BHbZgNigChTqu9Sb3ZLmzQAHTBNJA8jogoOnsjcnkrIzsIusR8wO8LZzrtoBZ0GwyaGtzEHdwwb9ICGUqV6UED9CkMPwGbojDo2Qfw1hqdddxNBILLQnHuNLlUKTFgKt7LekXPMmTHJ8dHx0cRhTwBAzhhJECRjlYJmNIxZKt9RJsV06itKUxHHwLlSsVNq5kdP//88zTWgAHfrjPYk+sjFrzF237ZPNdTpE/xiq6kknYHXbbl+DG95/e7NY3XWgmyMG23sWjZzmjoI/Fm1vfbAROQotxBjBlK1tggn4QB2hZW6K82fSGZ7iuZ4tdwQ8Atz2dcbue6kz7zWpyYsDs6OrpZX8XHPnrsSH2jubqyilCnp6foA9jOZrMxPTVdKOCAt5aXlrnnGR1zLekuHM1kWoBnbHSi1lgPM+3DR44CroWFRZo1NTXlVVjo6awsbcDHxMS4Vygvrqzg83l+M8zhJDLDbnvZcgu/oeA9+uhjly9fWlxcGp8YP3z48Ouvf2d2duZ973sfqxjnzp9/6823WAOhKaA58Oqhn6flmnS5VdxMd3pm6gd/6GPPfPPrb755du7YkVOnHvjmN7750aefnp6eprOcfeut5557jqkNfQHEIBbMnvm+yAhxl1AC/SKTLYa5dhfbrNkuHZbMdAWGeHUOippF0FCLHtGhu5Rp7679Qt5QDq0lkSMiwch802r+uIf+yoK8CophhDxAST/EWtQLPnPDxtTkdNDV+kuxVKrV61lvNOuPlkZnMl5DcmHBIpdjUcDJqYPccLmyxa5XDttF9E13/8Ef/lSpXPr3//GzP/wjPzRzaGa0PPbbv/35paWlv/o3fqZWrb722mvPPPPMn/+Lf/HcuXMjIyOLi4u//fnPN8P1gDlpoYLucXo+8qEPPXT68V/+lX/94ac/+vjjT3aCzle/+rU3Xn/rr/4PP9MO6q+9+tp//sKXmvXwz//kT+W85v/9i/9KBqVTx0LxyXbrKB7DOj4x/eM/9mfW19d/7ud+brwy8/SHPrF4de2n/uv/5oUXX/TypR/75I9/9rP/7tzZ82BCKu8WZW7DIhNcZqUaGHP5ydHZ977ng6ceOPO//cP/fWJ09sy7nsgGhXtPnv7d3/ndifHx0w8+fPaNiwsL8x5mEvCyjJdpCEoSNeLRToYZag2iMqISHx91YH3L8JuFkyZSl5KUOxV1q8Hbijz1XMwdlzUhbjYPmvfLR5HZIoR06OYImv7J8lL2Z//Oz54+824bFOiXObxgDNX73v99tXpNDhkrKEH4S7/0mc9//gtegQWUPJ4+QxTuv80AgoceefS/+2t/7Ytf/M/lkdGPfPTj//zn/9l7nvyex55894XzF7xC6TO/8C+Wl5fnDs1Vxib+7b/790eOHPnkJz85O3fk2nKT9Z4ma2m54v33n/7bP/t3nv/Wq4XSyNMf/cQ/++c//9CZM08+9T3r6/Xpmdn/4x/9w82NzWa9fXj22Hufeu/zL33todNnXn7lVabkfLDpLMXpg0kJcyuLq+95z3u+7/0fXFhYKHqlM6cfrm3Uv/w7X8YuvvDci+trG4YYpICHkc+GGoblR2BBWZkL8ACCd946d/KeEz/+qZ945ZVX8xnvve9535e+9KU3Xn8TeT73zefBjpf1O03+Xg9+pyHLEOaQAws2QbZOrmRhSvbR4EnYECmYKqp37SXmHNXbijwnAVUcN4R2Mhd1oyg9kuaCzE4bXyjve2UmdEwvgnbnlz7z64XSvy2WNPKSxy/4WuSU06YLrSO8K5evtNubIdryGnh6DMiZbrMbNu6759jf+ht/9Vd+6RdPnrynurH8wnPP/L3/+e9WN6q/8Au/cP999+e6rZ/5m//9xYsXP/e5zx05NPnf/tSfP3To0Pz8/OL8xVy+VfBYzOhMToz/zb/xV/7tb/7q6VOPt5vVr/7hl/+vf/5P5xfmf/mXP33k8ES5lPnLf+kvbq5X//W//Nef/JEf+MqX/8v80oX3fc/jL7/8PKstXq6T7TbZdskFTKTYwglajY1f/qVf/Ct/+ac/8+nPwOHkRHnh2sV2i/WjTG1zJYOHkGlqC4NJBpOabiHHOrAkBAZ9Rkp6Vqe5+Ru/+um//bP/Y726WmQS066XfDDeZrNi7uhR1upbzWaGjSIGaaQrt9UhSVaUMJdidHeXBSRIA6JUE6snzsGz+8QRe/B9W5Gn5lqDdbPWmelXv+NSHCFELNPYxfFi8aRdw8HKv3X2zenZmR/9k3/ygQce4A8gNZpNTJ1odbvMkX/tV38V60XJSqWMN42rjsuCHwk55s6f+MFPXL12+cjRw4cOz77roXc9+uij/8v/+vcePfPI+7/3/c8+++w//Wc/V61u/vRP//TM7Mzi8uKXfvd3GG0/+tGn773v3rcvvoq3B88f/8THOkF7bGJs9tDMfQ/c//RHP/q3f+ZnT7/r1JNPPfkHX/7K//lP/vGlK1f/7J/5sw89/uhj73ni7NtvnZo7XaqMT87NLm+ssnbcwXLzYabCBgzTgkL+wpVLn/m1X/6v/vSPv3X2rUvzV370T/xo5UujWMSPffzjeGnn33lHUwSVyuC1giD8Wmay7aBdLBcZtLMFb3F99R/9k3/8d//u//TFL37x/Llz3/f9H8bk4uo9+eST/+63Prt2+bJX8hCB5mrUjKm0OQfi19TbTbMYe8CmOYEmeqcA04RuPaQJkpQyYCbJtx64rciL4KaGurYY0nRThD7aoHRbrjjjeOa1YrHETNjLF9Y2Nv7wa197+dVXp6anGTJAHhMxRklmZSura2YtszjpNi4xbuczLGlkcA0zX/6DPzz79pun7n2YGUeVnaNm66n3vPf4sWPz8wtzR45+34c/cu3aVdyfaqMxNjF55tFHmIjARLXeQOE5v8hPoz/73PPz1y4enj2czXvVWmNtvfrEu5+aO3xos1abmpn53g984OXvvFGemjpy3z3ffvONz372/8n5nR/71E/cc/r01efONllOwuLhxMt1kBFeWF+rh53//Hu/d/LUA0S+8uYbj1298lN/+S9hzuFu/at/SGbUjHNJQXap20x1Ga/x/XPZWhgsbKw9+/K3V2q1t69c+aV/8xtLi4svvvCiN1J56gPfywLnl5/5+tXV5RZjJnuPQgsCRTYye0KOdXekDORM5pqDACpo60tujmnBmQCXY9/u+4Y8M920x/aeWR9XF7NuYxLA4SFNPQk5sLBSoMXkQGAqweQgYPmXidhI0CkHgc9MLxd2zr76OgtOP//zPz8+Pk7x1dXVf/AP/sHrr73G/pIXZoqFAmaSaunGDHEFVo/bOFnZt175ztuvvvLKxGuHDs1dOXfx1z/9K48//vjrL77y4gsvSJ+tAKj9h9/8LCD+1X/1GVZT5zuXv77wB0uXr3k+7lLe6+QunH37/CvfnhyfeP1bbyxcvPIbn/mVx5948vwbb7/00nONepU149mjJ/6/3/p/OaWAn7B8+VrWa3/xP/w28/NKtuizl0Hr24yadINObXXzC//hP9VqVbbG/s2v/EaBxdvN5m/9xm+ybYChX1ldZZ5U6NLlQmbBVF3s+jREdpxupF2wzOby6re++oyWnMLMl/7TFykF4L70218cGx3DtlWrNfIUWVZshfgl2q1g9Qopa14nWdMFtNytyYcuqUSXoC1YCnmCIfbS4lM3py+VAJ9ki66YQvy86+99Q55aFXMhhGliQXswVA566lzMonBhkJCtiWDHtGMVMK2lx/ra7A1ZPcFjy2vYbazT+eubm3/rr/91yPi2t3j1ypVKuYzPh046mEYJF7o4S8xMQj/nYy04pOH5ubXV5bXVFWzqxXPnr12+0miwBC1x/96XvgSjLEOwnvLCt56DFRQph5N1W055NFmF5e0JNl3zjVr1wrl3WIw79/bbC/NLVNVu11i4+epXvtLNF4JOWGB5vNEu+LJvVy9cClk39trs33LSocgBBapACGG3tr5Oy33QyFJOWGWhslWtXn7nHJwzwURmyKfsFZgYswDSqbe5l7xil3MSwov12E6HOuTw6qSP1q8hWF9fJ4JIrYxAKsIQbh7CtMMpIV4z+286/aNUZYCgaAptRoQoXUKXbu4pfR8SlU6+kfA+Im+QDdcWa7JGVnUdNR8MsLAqtQg5GigyiCgM2TVnOZY5X7vRYbeDjXNW8nJLa0t5zwuq6wJH2e9kGFGZB+RBD/EMGK2gI1xywgAPn5MXhWxbZhWVCOONoFFjEC9oHRtYsRzN5kqukGtnOFiAKrUj5xd97l0OqhSKmTxVMOJhBlpBu6rNilK+GTTw/BgF88qIN98u+qzTtgo+ENWpJHWoLCe72PPy8FPpczlmnNrzdZiAEU2r5KtKBES7kQ7kKYfmBt2w6BdLBRZlRJ+hWq6Iu7Q1odFTvVmgEWDcf4kPNBp4uANlagCl2PIwrNsCE9iUt8KXinAZ9KKwsRJFU8F+XrcZeZo7qEWy6JIZIQ2v2BfFsO+OmBgNmt3sxsR098T95W7HR3ZeocCqMtIhnANeAo3JyoiwmMf8N+9VJGcQw77XkbDmL849OBq2Rj2vyRJpPldiPJcF0JYsNoAFbS1Dc8diMl6bhsQRASfwfLHYqmyM31PsMqnW33Vth22GOP3tzZY2z4ocv8Msklm7wOC/y4kqn8m6EJUpZ7JlmlXzl8ZO5I+VJ0KAKgcO+ra+KwPPFdXGsC8Min16oAwbFt+bbYdj1bnTY4ZjGwIoYaChGUBTzp+kGBERfiMi7sUD6DDNmsSIs+7NWQGwSgmIIwJaLsCrjGlERfuugYi+9Ft7vK3Is9YlmkVokrM923Y+k1ITBUfTqrWVuSOjh+Ym8GeCsMbGQ6OLUtnX0MQWICIVOjSmrtlssrXkyU3Bd9IwmfcRczMs1k8/eY+XmWbykM3U89lSuxNkPaDPaM7RIzY1NPRbV4AHQVCSNs2577yfafu14w8eOn5yIptd9VjdDUCe/hoTYKU6nFWsUUHLZjlC0NbuWqhTKkFYCsNSrrDR8jcO3Td+5N65TFgAUfK4DDUqbSBQ8603OABJJGzC4GYB1FI9zDcffOpeX6DhUIJ8LwFNrovjWREqbyAxICme2AiROoDBrjebQ2o4wKY2agCI8hyZaOsxyiwJ6FLvIGoQiaK6d9dtRR4NsvZEvcxagR44dsuIgi5ZLy11MyOt6uYf/O7brGiw3U1MGDa1KcppJ4wGMz4daWbiRo/P45zRnaUq9uVarZGR0WaL/dAmPj7jMkchs+FkNrOZCaueV0bubFFq0GWTRJvw6A9OdGfvSyeE2C+T3NUlOAoasAFQaOW6Y34w1W7Ps4aYy/hk0nlNRuIucxrREZFCoV6v6TyJjnu0PDCWHWu1vSC3ktHiXDcbFIv+KMebUbNpV1ZHmhZoTNnSvwLEk51OkvPyXW+DlmWCacwou4rWNSy3tntYoFZvgdl+5EHHJCtyLBgGTZ23Y+c2M8L5qE6HBSkgCPvOw4vK8+DKxUAUQI3Mft32HnnWYOuaNNwx7+RDP0VgSFaN5dIN0BCDZHFdkIiNgwxjY/X1etjV6QydcdLqf5cBVWNpjsWssgK2HtCuo0KBL5crlXOV9gbxHOX0w1aLwc/PldpNcFbilG+3raMDXr4I8oIGYPXghqmJ4S9TyJflR0n4olsqlUfLxbyfq3eq1Q3gyimVURkiYGB8+8VKs9lqNVAfpinfqgYFfwwUhhxnCnAc6Re0DUbGwi4eoFepTLA2XvbDRqPBMq/kIQPDTTW6kMOgWpjT2X/rI+AjyGIs4UxnS9Vj2T/ktCmtaDc5011HgBo+ZbNl7Qgpk0Zhkz0d1/c7DXaNZYc52kql6mC0QqO6QKsR2XRBEQlATBl79mxkiKCEot0tSrm1r71HHvzQfHh0QrA7QpG5J3agKyE4/WoCO150O04WZfINynu4SKLD8KS1XA1RMkgSC9IlCZ2IFh4e33j1Vp9cbia56r86fifnxgMFrKMxF9R2FOSMKEt19HvOwKigowlB7BlFTz344COPPjI3d5iOcG1+/u2zZ8++dbZRZcmGLQ16Aot9WtTlXAlVy/aAax1jFj3m0da52ImmsWwqZFhQfuqpd997//3lcnmzWr1w/vwbr3+HPRIcU2mSMmZ6TbORleGoC9yqtQEn8XFPTZph1i+VH3vi8QceODU5PY2Bn7929bVXX71y+TL7zkz/xYtwYR1IrdIlNYS+E6bWU8ImGXm3Qyt8EqtOAFFrClPGFEKysogbgThJQzvK6Ejf8n1fkLcjV5JGL4NApfdNaCAB89ZIjfIIahoQ1WgVkZBMNNaxSbUMsUQsCSKOuMvJHUPgirn8hKnOWOixQSRmgsoeeuihH/7kJ0fHRiFabzR4B2JyYrJSKj/37LO5YpGTNlKAClPA1BLRoChmCODrsq4hS1SujPzIj/zIgxzutYZVqlXWgMZGR7/17LeAYKlQ5H0cI2AkTcXWIsERlgA5zJs0cri2H/zQB9/7vveXymVOTmBwi8XC9NTUN7/xDY63sE/BWmaBqTXrnpSIWybBIQHHkAjpX3Ip1ayjiyFnkqQicSkjlyqWZLq1QCSsWyPy/xN3HmBaVdfen3d6oQ99gCl0pCioIM0WEHtv0WuiJjExtpjExJjcRG9yYxLzPc9Ncm+KXaNiAUsUjSJEARGk9zIUYSgDQ4fp5fv91zrnzDsDyTXxnbmb4bz77L322muvtfbafZ8TpbZCHx8RFqdJSZw1XnL8wasldr/1fkwFJVc5Ihv5FAd5fI7iPc5kr1TOX3pUFuwPwkHJEvvkKVPad2iPwvHHLiZC2rTJKSws7NWrt6yaGn5xzAQYYoIaGbwmTtklx8aNH3fSsKGgQl3oVeS0yUlNTeverfuA/v1zsrNJYPnyg3EJCQM5uqMwyguNFB3D3IAlPm306IyszFQmDNM5TQFhbTIzMwcOHJTbqRO9UrIAG47yOWb8zjcLthKaT7GWdbPw4DWEseLGhyXY32Ka15ROiaVpSPBmklcsph8e20FO/MQ6fCBe8c3aXP2EmFxrmtXUprlEwHgAd/xuF1FcjYeVkxCy+WXQoMFsVMlmh6TUgn2pqRyBycJwtWnTtVtX+kOpLPhr+GrkhU/H7HTGZadx96hRowghORqDHaXBRa1Bn9u5M4MhMiVVlESvFoK+MejGQQOBaAB86duvb1Z2FpUhOyfbdQ49ZoDFck6n3FxqCDOXoHJHKjxOEn5/DblmNTZkmuAN2OshIiCVO03AtKRrxdbWuOJcoPTOGn9GTWRUUmOI3pwLQMMGF3gE08zjSYAnHD/O/f7qwAQGqfAINYIVWsKRNK+wmwU6lIy9T/SlkENNdQ0WkMVigZE4xC88QoDq2MnnELNnquylMckoGcMNqGfgUK4TQDHUt2OHDtQBZq1d0GAC2BHypNOmzdnWzbBQ5cmENNWANpcxL7oIziMHDrBnJycnmxriVAlD6MQuxxn8hBH8gu445oAzSGKcETR5G2SQktewjEHI5/tpWc1zMRxPYXwR4AxgPOP1L2KXY5DlNxhe3TmA0oIdBrkaHJ+TTft5EvC7B2vEVJ5xVg+hMgwMXtEPhqI6nqAt00g5FbXTRjcjDzKIxasG0Zylo59uAxUjIqCcEbQuDpRVzWTTQz2jbTY5J7O4jCpLdTQeZ6FC2kkSd6Fs0U/pJPigUyVkVINLTsbaMQVXXqnt9VjQOnZ4V3GClM3swiYjZZwlKQiV3IvsZQyfItPYxRO6QUyIw/tTsQLSI84ZxqDcccH/qrdlW1tKQsEQlfgo5kGmaPdCwRcAJAArv0e7n2fkAQZHrEP6qz+VxJHaO0lcfSNIR+KYocE95Ko/OdMAdadiaMa2bZ8y/EQnaOGgFAjPhcmXjRs3ooIYKjONAR7yZk4FgYOIHCkYqZg881foWr58eUV5OTSgHKIkFDB7QtkZIDAfsKNa5KVuGTkwaSxWkbW0k3ct+Tds2byJVUTOw3KEheU5qyGs/SazvXnfvjKAOY3HvAm5eMkI8bKLsDi/SHfuA2kZAeaQgDXGGgEe1eQZpo0CHXn0+tk9ide8qGAhkVRAsRKa7KkH7MDhw0G6+wE4YTGAASBMHhTNkgaP+IQECYsx0cPxI2MFmeyDNOSu/TL1LIUxVCQSw4Y2PPvMM2yRp88kmhuSKssrEGdxcTFbRysqWKvVhDOxdLBQCKavWUEBwMkDCesrKBlRhDN1N/O993bv3HXo4CGKChiDZUhgU8zCBQvQqvBANcPSKhCihXQiSY4h08yhKTFglezXamhYtWrlxx/PpzZwDIon2I8cPkzsxg0bUb709AyQoL7OcxXWHAUHj3hizzBYSumOEPc4DP4oJPIEoM644EVwkfdf87Rsa9uMpoBaDa1Et8qClQqrGoEe7lGelhCgEG0zJio2RIIHAE9rKBUp5GHFFV7DQ64SAkYIwaen4yecPVbyMDdbW7tjx47nnnue+Yu27dqim+zvXb1yFdNmSJeRh4YXmj3UkU30j/bOjRkIeSWcECghFuRkhcH74x/+cM4Xzu3dp4+KUFe3Z3cpandg/362KTTQ49NyLRtas5klgSus62uehRXW1FQUjiR0DPCL+vr6N1577dDBg33792OsDEsO7j/ARq81q1dXlFdkYWi5GyBdmypc0ZQkrH5WYpXUndhCkHGPEI+N55VFyuo7rxwg4c9W1TyjnrJqjs2LBb+8nF4wLz9PlVkzn7JVvEWK5a8OHKSM450l0sooaR3GQxwtfmc9CdE2OumEkwHrrVonZejKVqjKyvXr1tLsdujQkfaLVQJMIIYI+8SeGWwMMKQihBkNNEz6xHwkR0WsR0U4ksfCMcFGQ2lWs/ytN97s2Kkjsx5o2+FDhzBOFD8zIwMTxR+KhfqCB4agX1ZjQMDsoa6YkH1NS1e7r9pS//57733yycI2bMVraOAMwOFDh1lPhE7KZXh0fYIKa4XH4+QRawF6BHwJg/xXSeJgHDhCojSNCCJMn9fTqpqHPsANVwBpVqgfXmxxH97zYtrmPBJQCBZwJOSRAYolzWFOxEdggI+4hXwwDwwgYCuH2ZgrZukL7cMKEVV+jL2b5dJTtjlxxNwMKrQjXbQF5fMmFWyOE1uIkP2V8QjqorJoY5x6GrSQe0v3EEJ76kpG0TC6UvSqau7fgDbQEo0iosSQ5L0DdFqtsLauKCdGsljlIwcPlx+1zijwdAS1AMQ6r2akyUFLabA4rrDOpYiH0GnZqRU+3kVgFhWwC/y8ujiOT/Ivh7Sq5snUiYeBwJqWs3mgC1XCMz6esORgcDDjjfw4/CYp8zfV2ohNCJXdVmgM82GF+QWspdKN+/TTbZ1zOx85epTuWpcunakDB/btp7lr1y6HV6lOcjKDg717SjneAXYUUTYpPR2lRcXAiSrTXObl5ZXuLmUXQlp6OqNRWmHRmdRQtn8/s4Nt27bBXDH9S4cPa8ZuZBRux84dGexf5dSFtjSh7ummGqRLpsnGvqJkFcfKac01rtal57HKyioNb1FhFBTzXFWVyZjdxxhWG8VQq2xgwUVldw8hx8ceD9YsVQJfW0Hz1LC6uZE9Czr71iiIM9JFJCqftZJiUsgUldP8UhSrrAR4EosJuEmUID0PUzsiyEswBqfYMKEyslhaQ8wMk723f+N2Dtvm98mfNWs2O02YgZs2bfrd99zTp3fvL9/85TPGntG3qGjyeZMXLliI/evdu/czzzy9YP7HMmA1NcyYsKcG5NgSVSgtDqfcfc/dDz30H8noQk3NOV84h81/lVWV11533Z333E1rfvW118x899377rvvZz/7T1Yybrjhi1OnTt1duhtskIs2M8GNnoELa8dgtrCw4Lprr509e/bKlStRszGjx1x40YXtO3SYM2/ezJkzL7/88hHDh9MlpSf6+muvQiTlcx7COijCL/JCljbGEmrhAg7ZBZMc3iL9oVoc95owr8ksYdgCRCH1KpQpjW3LcS5Y5yMwA64cxiBSqrdkbMIvLTRHcmGxcPymNh6jJyH+QjhVH79Dwio8alfCRjCCJAxgNW2aBcMIc8Bn6aOPP/7StGm5Xbt8jAoWFOT1yttbtreiqrJXfm9ujSjZuX3/gf1PP/v0448/vmTJYmZ0QYJyQDDqQsZ0tiBY9YdmlNEnAxFO61RXJqUlMwVSwZ76lNjWHdu+cttXs9vlsKGFHcdHyo8NHT70iquvfO0vb6xas1oM0RwybTR3TTAFo1EqO8OycrJ65PXMLyos6t+PDl3nrl0mTznvyaef+vcf/5htDbS/U1984Y03/7J56+afP/yfHBfXFked61VNjooMW5xvkO1M81dnlxgihYNjqjnqYYT6qmlytVMBk4FPoGsFm9eEWpXZTKDXIy8kfjyRi2xYBEOUc81xBa9hIEpArBtFouLzixKKvyE8kGge9gMRIZ8B/Qdcftnl9Og5BLmvbB/jx1NPPZVjlLt37z737HM4TL6jZDuxE8aPL8jPRz4ruA+AAQrphSFYkUNw4MehQ4RDA8u1nDg0oarAH3/8cddu3S65+BJgyJ6V1vOmnMcZ4bK9e5kiycrM9Nk8mm+GvKY0YhSvU6ac/8or0wYPGYzGd+5MZ+DI5s2bqYOPPPIrLrSk3Jq/YZLlCCd2wU2dI3MbmVJmK3XEEIuO3uTxEFJRQ5XW0pOqCVDLvLSIzTshqVarxAvnjcPoPc4RyBvsgPUBD916memKAzTuWjONFKNwRE7aRmec5RW00RMPiRlVagqYnVGxZGY63n5rxisvvbyME0D19Vu3bj15+Ajm4T6aO+/8Kedzn8GuXbsZkM6aPWvR4sVah8jI5MyHjxWgE1ULqDUtBJJtAYifDh+5MIxAk2jYoWDq88/37tVryJDBWEqInvrCC2yBmTxpUvt27ekgkhAjTHHQNhHJNr3k5MGDB48aNfKiiy6cOGEifg+nvNDOzoNeeb1IJaYFox9rH3hTiVVknHyhc0bprWm4g2Hr1IkM2dUsbYgjYb+tp3mQHNWlSFfwREVpUlSHQA7meEO6QAKDx50hbMTkeBweUUva5jzc4dwvSYFHJyfYRZyG1eGPOTYET9eeS/7YfVS6ezcnqGlk2bXCxAqQdPDpRXHU8tRTRzGfwswz8KhVFf08xpTsC2QVq76eIUXn3Nxbb7nljjvuHDZ0GJ08hhqEA8FM9WuvvtqxQ8esjEyUY+eOnbPen8VhynPPOefY0WPavWJrJ6yL2A6AajZ+3nDDjY/8+tf33fe9n/3sp9xpt2379u7duw0fPrxnz54PP/ww3Mik76lDJNp5yHSg2GlVK2Jm04KrYuNCPjT+epOhdjqsyY1xLeOTgUksZhAimGqOS1HXOXZF46LDsrWfbt16xx13FBdvIjv1J8JcgYcXyIYyo1aEy2NNkiDDWPyE8wTSA52FejEYVI0Qb+lC3MFvxGuDtYZbNkVTcR06dGAid+fOnRgheopYKebeWNFnSplJFvpYLEbs27+/f79+a9esxXqhWG1y2uwoKaH9tTGBqHDiRSE7DGprh5x0EjgZOINE9NjpHqJ27d7doX17Gk0a9G5du+3ZU8odVrkdOzJcKNm+HTtKcdUBdQVMSmLu+qYv3fTM00+jgujidddd/9JLLxUVFV188cWMaufOm8s9Moyy6QT27t3rww8/RPXRbxXWuIvHOQlhFNx5QWDEBA8kBPoRFYVXWlQ4KUYW99xzD8Mp6AcJtZ7JSPjDZDV7ZEgoDZcpETZLFbD6s/+0kuaxBrl1yxbTvGKYoH84q3xOOk9kgxpZsKhyPfNYyk/xCKHAsAkwXnHEOoA/jUdYl0YHOo/CAOK3pJ6F9iSTI0gdufLVgpkqRSpHGAWqP9o8IGE6GIAhjOpEFmgYug4UT4Wbi0hi4CxE5oTZiNc0M8jNGBNiXTrte1eu2oKVhuqQgk4kyD0VT5xnFOWlYoo2CgIHbD6cEytp6fQdVUjTCZ5kgQtocM2zEEFYrEc5jKmrVX4Rk3TJJZe0tOYlZoRBGSiAFyl4GgtUQrgjLlEg8UIBPnSP4I0BQHqKCI9EYjBKa6L1EF48Jw9He5zHQb7EhqaREFdfEmo8YQ4/CbnvG4WDx0gGUyniRAaYRAYWOiDX9BKUqB3EYBHVEQLcNAn8TiE4I797hAwXlolAHNPUBAhPqK8SssGBzzt5gBHraB0SAAYsEfEEQrlgVA0DrtGqYJNQUMi0bJ2XFg9txiK9GBt5gq0ZzYoDtTFc/s/s/oUkjjsxmveP6DTb75yQ0E3w0tOohxlHu3vjAoRYoglNYJCRMagZWDMaiPWEjqHZk+6/wwdTBoCGU1nIUychVGUkV4TE01GhfZhiwZrw3ONRZIeLcvH6QHE9F0cV4QmwGSrVTCglB0usR5BGmQqnoXVFCWOkJAZnSU1nlKMR1Ajp9JtJdtoshwi9gwtVkJECiFUpWsG1oOZFbKcYKo1xUOWmrObwWlH5beKiQKA8QgYn9OOJB8Dvrx4ePR1eUUYHrziXCsqE0eCJ2fCaQJTRqPGkQjBhtqEGeGkGKNT/lOnj6dn508nDbxhUMtBGUdJU54JSBzAe4pCEGkkqpsLtn6NyzDz1GmG0UGcmdAJvXPEAPRvVjhdqlbQ6TpXi8HguBHiY/QhUJIQSstxa6tGCmteEZCsoAvTAeGZS5nheiwUW4oFBlDV2hIfJG3kd5eKpeFV6s5GkxRPhweNqgQcXJDSP44XpgeTMoHha4Qp11z1RjnjAQyBoo3wdczxk4AeJgXkqh+eJ88IEPmuOLfgEKh6E+49yxxeWJK6wFqobgoNKcxxOlT9M58DSU/6ppCFnwlxa6LfFNY8SWjVSiVxzKBkldGF7+fVqAf7K0x1lDlSBWOeUwUWxUSr38CTKOeUh8hPCCxYiFDw4ZY0MzuEjYPd4IGDetSeQkMCYxWVBoMN7FH5cpIWOxPI3kkLgKCQommQujhg5eoDE/REGfyU8ClFGwd4LiwzUpgkAEeqUqt/bqEwBzZYHflyEvJECC4qiHCDhzxbXvDiKme5HLm4egi65F69RBqGMPRXhLoaIQ84dD5S0QsYBQGAU7mBKZQCERx780CCRxCeRfkoGerrg8Zmf5Siw6S8MjyuRvITjAPanexwVIfIIypxQNkqaIKfTPA5pNDhw+PQkqjmhC5AEuAMcZt5ktkIo+UDHnxPm4U5SPN+Idm54XYyAA8gIXaI9raF5AbNDmVIkJBLxCD5KFYyz+HFE+9MLa2F6uPCV2J3L1aIbA0NxegiY8fB0D37A8TOj4bMhni9+ojwW3AQ6mIcAT0gQCHlB9sGPi5YXUWhPUqm/b05IA/3TKSD57d0DSSPCGpkh6h2PJ+cJZABsQVEuHiOAsAcpSsJkgDk1pI9HiN+x+VOvlofSNdJMQ02wLcGFCE2HG18+vy8xmtdYNisnGySNoSJPJbSuPRWLV01L8EMbgC0xByTJo3aNMNsGJ2tHOM5FLly8GDYLDkRrKiFFwYHK8gsEQAhIlDBstQlxP1kQFWFWXkSErBceo5zwYBqPd3NCZ0iVxHJktxV4ePVUzMkBQnE8LyUCrfRNRSeQjDyhoVHX0gKD4phiBroCgMOAw7mkjDSfouqEI9DhycyJ9zGNlwu0EWGCjCuvEaVYHKR634Nr9gCRX70RCLN9plCLAFUMHGwJvR5gzLAyhe+f+TcxmveZszOFM8UQu00z9DTJ6T0UOQh54wm/3KPpt9CJ66ZSHsXTneDtT6+8hBgUHqqg43At8aeHNAPwQNAEORnLGzMNqVKsOYfn6VI0RZNWOA0mL6PGyBM1Rg9Pz8LpJXnkcYDoNfJQQFW/OEiigvogrEEUgTiB8d+K71ERScRSfINS8qAC0HcMmhYVxJK21KO1NQ9pNCsKHJHFQAZxbHKuOaTzyEDgT9BBhGv4CQTGn+6JEnoEMFFIfL7SdRNeMwzxMPhJ6wBCwp9lFx9OrONvzCV8D8gKkzSDbERruTTLN3oFGQ5gh/es4wnw2AgeMEK8Rjl/eCU2Su41oQlbLM4BpIvWdiuRJYwwJ9zTqpontbN/zo6oMBh8544YB5ssIp6nzhd/eipBmvOE8cAOED0dMnp1DzrbLKTZKwg9JB5zFEhUFN6MkgDP38HvGOLxxOfrBYwwnzBKWfNniysRvEN6Qp7u8ViiIrAoSkw2Cv3pxg9INNJ29ykHIBxtCz1bVfMoOSXSP3NebJXW9kVSUEJ4RgziTUmMI4DBoEhHeSXcK7dSGaQ/HbknBN4iT8BE5QKoWRS8gMUndP/xISSJcEWpotwdCeHxms2rUlluytCQWliQiaeKCIg8Ht3slUCQ02sDA1FCHk+8pSHcHVFBHsZbh1QC2GJWP4r1KFKJr2IF3iiyRTytrXmUUAWL4wjFog/nOsQTlRJMUwcbCHTnMfidubx6LB4C9XS2xeXi4Q7JE+ch4u0/ZLBjjjKCvGbiEJ6wt+BgXpAAf0i2cgyFGWUakW1UKDhKhd8dMO4hyv2eC4HxvPJAwZCLVVEHVl+tKaMcmwpCoxwXRbhnIVTIwCh34BZ6tpjmxStPWAyxI+CkFcdk5mYpKl7EfeedswNkPvhwvSRKvAulQlrAcO6BaziHl8fCPSrKBQ9RUaD7PTYKJyGr+Eg4wBCicpxREjJiDZ+0rgpQiIckDhCPTQitb+oIG3UxjhKnQc8wgyD30MArlSF3Vjh8CNtEd0WD4eHh7IpIcjI8rcCsaGKy1BER8QxL7UD+jJddfPi/5G8xzVMxAooigoMC25S6uGDVDqCIuZ4g4iOvgd+4gx8OBkjDVATiokD3N3IzJMKgBNYsryihR8WjUkikdhatpiikRAEeaAWJ8iUMogGzyJAFUUEUHdAANUQ7qRYcRAUhTQmN6I8gI1I9KgKPEMaHRIFBcuMYCSMYwp2JxNifsIZhjXlGvs/vaUHNOwFxxmznghc7vuTx8M3CeUVr4wHia7yHG6fk9bTinPE3QsWr+x1b9BolcU98uExFOAomliheI4SRelmwwtVhNZ0jJB5tRDyxXnmEyipSPDxJcIRHTzwOwNPDBWGBhODwE+5+XpSyqYtgCHYMCuHPcolg48EcMj67CCyBnlbVPJlw6nmcVJxr/vRSOfuclYTjCOfV2wuH8cAoKhpGRCERmDM0wGxycj80eBa84iGhP/01gLGfSJYRKvdI5iFCQiBP7ZOjsijXtiCkqd6QHQ4o1R8D9le8eEhiYXpGzgMdzLgomnGEu3NI0vBKuL8288RHRZgjyEZEVhxem8Ek9rV1NQ+miLeNmhSxplmpIpMWAUSM8BBeUTjAeHWzBAak7/LGHw+P353nIgxxbOWV2GYE8OrhURSvuCg88IUydjCnB5joFY/7oc3TxlPoGNEUYg29sDo8Hpzn6H5/JRYgyGVYht/RRqC8EohzbDzxExs8QRhXUg905J6RwWM4ldrDW+7ZqpqnxsDZZgWi5LhIEoTxGpXZPR4CjBs2XpvxwsF4EuUu8gMZxUapHAaEeAKAMEEEEyUEArBmSPzVkzsk8naEEbCjirLw8ChJFA7Y8ToX0ebInTr3+xOq4GKkcwE2U0enDTAc4TjHH+DkPeSJeQ3MQKOEUjn+QjD5Wsa1ruY5v+zCuUBU4YghXiF1w5KVXJyLVBPDAN+srXYrp5udzFpwMELV1MxfPJcCLocaJhGSnvUhQmBwnGHgFQkp3BzY+AWeDDzcBeNSJEpkhcB4SMqSiBGDJXa76wUKiuXJHaeSGwp1GQ07hLNT1cLBZahD5AQq3Jx79DSfiuDFVohzxloTS8s7DkCyjpyHRHjw4GQFrZj+GiC3TC0rsaIlXONQMVHYKSeoTA8ClBTYA3lnxZtmIoCRBtkGAka7uouGN6YkjF8cKMTHrlrOHCAWJvxgERyStnF9jjYP61tPGXbtXAPfTEeKiqY8Ui07XcFhbCkre9vZmWIy9VewkZqTOJCB6Nk9EInETu6YReHbEdwRazAQHO0woAheHNJ6KiuEFtpFOVtfbRmA7xTYGxkRLoJ4oidSNXsXEhesLv5JTuMSUCHWJ5UBIEfxygwzr+SF37MWQ+wdNlFYfb+GIbh74At56NYVaJcIPJVx1Sbhw90YhGg7CtnxF8gKpCqRPaMZK8ki3pEDSb3gIXBzmHj4f+BPvOb9g8zEejhlDlGJgXRWkJGKInWSZogT9Zz+YiOTuAM7+PoK3/pxDhHkW3hUm/3+Efa2pHETO4y2Y5bYP0XxhNkIiaNcnMvivjtHhUw4QUhWnASTFpiYnZXoOH9khzNgWS881AGIAdLD2YmDIqIcfsCWXFQ5IBodp/CqRFIaAoRWF9/qs2syn5hDQmXh6jiwoxO7lgEXQvILfojmqYphy4nkQrhvfgGxgI0zkISWWk7gD/6CrKXWxjVTPAggR2B4kimkcjIc5OTi3FaRQMQDjnkdClXcA/+BND9nVMJaW4lKpfhHDgCcGIdyoBn4LQlKI2UxZ+XXBYkohza0mSLwxSlddKNAZcET3ktOqu18ClHKaN/SJE4xMBdVQ185wIqHs7HpVllRF1dHhI1c4b+rFNkRJStrB2bJA7WAKvAgbBFjdAZPV1bptwDQDFHlcUaVlwSjij7qcCSfk2TbmN2cTI6yWfX1uq2RjwFRRs6kJUuPDZ94yDE5jDDIRZIZXWiQqvhpYvqmn/saAABAAElEQVQLdobNKpeYwX93YixvlNQMJ/CudoKHLyqJqjT1U9oMtBHqP06J8PxvQgwy+9w/KnmrOWcfRRUTxCY1UXgIsKdYgRJl5uRIK7msiXZZF9vIFGg5UbrIdRS0kth8l6/uqYBbmD0Sc+kd0gIV7bPy4F5sLmhKSuLakcBykGMshsihhCdq5/BIkRDy4i4KLkIExhp5M4HW0SSW49aGUkrASXYoVhNsVy9CnzV9+goK2dfyX3faqf5QS7yc9skoPqeGMiVz5QqE6QNuVpE42m0aI1lAPKe4uRdDphS2cLuUff1CCoHtz8wANX/kbjVTldP/1AtGT/VNU7oS+piRWGBgsBHEqgnctpGWqm9WRU50S9fIV8RKIFJxp4Rny7mE2bzmJDZWxcYYV6+oYHq1XjblVdkNkKLznSdU54s33KBjrnx4Dl5T6eEl8jG0YlNDA5+D37GjZPfu0qNHjtB4EdO2XTtOOyNO9Invg5ERuoLBg9du4ciBKIlWXTd9m5aGGnmhBuSOdppsuBVFSqC7YwnSl3gQSTJfK0AT0Hww6MsFfPpY3/6TtpluiTw1dOpR6D+tFvaXG4y5E4he5ZFjx7hT1lpYYUXzuGyAO0lRECikbkCZbpHnk9CmuSCDQujhcgzopMgUAT+EQTDlskv7yLrR4efbgbCIa0bJAh2iFpER4aggzbbaCi61zcyw6mosD9PTlcYLZmhWOVretZTmoSNhoRoL4aYNLkRBpoU0MVbxpFAIXWewuSz27m99KzM72ysuTLTOsOJNtKYaSUncVLJ+7bq//e1v3O2wbfs2FBYlTeYqr6QkzFJubm63bt1KSkowb4Qgufz8/LKyskOHDtHikXWPnj25rGLt2rXc38gNimgkTIc8sqMXd/DAQe5b6dG9Bx9R2bRpE6Ime9TN9CDWrUePdm3bcS1G+44dstvkEKgWVzVCQwE0guyWr1iO0enVO79Trj6nQbeADgB3YgCLjm/ZunXwkCF79+zZt28/jaBSykrVDxgwmD7Z5s2b+VpLjx491GdQ5ziZAVNVdRX3PXLhVa/evbgTw/IRYldA7tPdqc+VV/bJ78Nlj+IVwx2GLow6bNhBO7t06VK0n7ykXKox/Pj/QNu85ghnC+tfwjTP5GFcCPgg4nFok5fJ9ErFdMPlrxKYVWiDJLlP78VoCJGN3VutgQIXYlsjG/ALpGpTUKaMzFGjTx80dOiEs8967LHHFy1ciIrSQ8fGgH/kqFHXXHPtb3/721WrVqFqvXr3+cbt3/zgg7+9/vobVG4ArrvuupNPPvlrt9025fzzL7roIjSMbIlC87AZXM/95BNP9O7Vm0tGHnv8sffff59wumvIhovr7r//fmT86KOPffGL1w88aQhSVDfRDCe3BJGcstxyyy0nn3Lyl2++mfu+QVtbVU1C6hX+AwcO/PKRR+751rfeeP31v77zDjzBEko/Ysk//NEPizdtevTRR2+44QYulgQY5sAlnlSh9evXP/fcc5MmTZp41pkilVjrEbKDrLq6at68j7gH8pZbb+XiKTIy3jLUFWNFW03NbbfdRsXTMMSD+DEPiNQ0R9omX6PtgFeBaA0+IY+Ead7fp0bFDmJd7dQmBQWJPAAgVkKJUY8YdYQTShpTXy28GhHZ0A2h1tI+gpRL6c4444xYasopo079SX7+/3vkkXffeot+EaYDm9e+Y6e+/frztSdje4zeVWFR0YqVK6kLGA8MADfWYFQ6dux49TXXkNnsWbOPlR8DGOuCCeQ6zquvvvrll19u07btTTfd9LcPPkA5rLmsnzBx4pgzznjt1de2b9+G4ezZo8cLL7zANxchj2/qcaEdlNN+0Ryj1p06dZzx9tt8aUM9PgwfHcFazh+lUriCwsIu+qhkqoa6fBzVXFHfvuVVlYOGDOaCvWXLl69cAcGaeSGyqG/RpMmT12/Y0K179/4DBjz55JNHjx5Fw1QjYrGRI0deceUV7896HwyU+o033lBrTsH4IjQXq9XzjVNUV5dg0BF2oRiLxWUYD36QmKgkoVAJLQDxBHoZvv59eX/GmFbQvBNRInaohuHwwLgQiK6IVI0bhtWFwjykpeVkZdtXb4KDNigkPEISy5Yt++lPfzpt2jRdu15Xiwjvf+AHh/aVce0/aMEAmHppNKDwTbMMGnkQwh9aCAvx0K1k4Nm1a5cXXpj6+OOPA6bRaEoK1+ZhVGjRVq1evXzl8ssuvWz8hAlz584lSXZ2zt13311aWvrW2zO4yhurA9onnniCj/tg6khLkbBAXEJFdxCBrVq1euqLL3JLGtnTpaN0dPO5Fhz9gCQuQeMpRjDnYteoQTBU0QGA7Oeef577JKlm1BOqU/ce3c8YOzanbRu6vzQI0197ldv+0HU+z0KjjB/lo/tIrYM8KsbuXbsgh54DVR6TTLWhf2IDfQK8UyrGIwJ/krMJwl8jg2FhiX78H2ielE62LHB6DUuuYH2iKQOTQC8YGfMhYiweFxuiRswG01ohP1qNVStW/uqXv6DLA0Npc1htoK3hi6A3/tu/bdmymZ4TGkDrBWbpsllZMhVHLWfrgDPSrKWDhd6jDXTF8nr1wubR28OKoCKko3XHVnFZ2IQJE775zdsXLVp07NjRSy+5hLuU33v3XS4uZsCIbUNcGEVG1hBjtSJWWrqHD6egl9yQPGzo0CsuvxxrYzf2adZjT9leUIms5Nipp52G0lRXVvG5cNSBrBE4qkYU4UZVntkkjY3y8nrSmYNFFI1n9+49VEB6HXbxY14ekLpujOa+U6dOF1xwPmjVI0Znk5J27dg5b968zMwMdUZtGCROaPqdX2O8sUZqSLQ9jFUBywRkYtJ7Ilzrap4VqVlVUhnN4ZEyJsW4SY4ZFdhHV/rAoUN0uvvk5/OpeQYH6Fxej57MxCxbsnj7p5/CU9Tj8CG+SrKfoQB1GzGfdtrpf/3rX6n3gSlVGyfEQg2rpdumHzRy3J1dWclQgIhx48fTfgEAGWgtYka9dGdjUsPy5csWLVo8ceLE886bPH/+x7R3xL78yssaUMtax7hr9sorrqBxxRK78q1Zu4ZvpHDN4/N/fu7mW2/lNlzCJXCQp6XS7Xv19ddeevkVWudTRo4cMngwpDEKSNVIS/dFo3YwBftKWrWYZpZQR6oiTT8mFoIh+6677oQS2IXmoKb0ELhhl/YXFacSXnO1uhA+60KSJYsWL1+69NDhw+guBRTLieZpaofX3wiEGMU2dQQFcmoa/i+/tarmifOiv7FgvKg8pnOITXWQsb1uhM2gt7RyxYrHn3ji8JGjDz70YOfOnX7zX//FPZv0+iuPHdu5vYR28Wu3foWvzr36yrT3Zs689zvfHjFsGGNVBg0ffPBBZaVmrRCMZapqb3/+oGOEzkjJuIyR3hgeuvxr1qzx76vwSnNcUFCADLBh9I3o1GP2Jk+ezGC5sKBg9uzZq1etVsJa1DSZ+4rv++53ucdd6gX9sWQUel/ZXvoFc+fO2bS5mI8R0KQy1YaqZeVkf+/+748ec8bMWbMo8fTp02e89SYal8oyGL2IlOQn//yserEocUrqtm3bDh44wNjD+BTr0LFDXq88qpC9Nmzd+mlBQb7fDT9z5kzsKB1f3TnZ0LBr166f/exnaCH9ZdAyWOZTQTTxVEh4a2zx2QKxHzVvFAnvTZ2qbGgdmsZ8rrfW0zxVGlM8Mc6YJ8LRORkD7/PJKohL9cw/1NJ9yc3txFTctm1bX5027bzJk+bPnYfN407jAQP6L/x4QV7PnldeeSWW5uUXX9xVWvr0k0/+7ne/Y4m2V+/e3AS6a1cFikzTSYfPbJ3MCdnAZGOjcdyUD2uBFqIidNjpMEEkJoHPyJ526qmoDgaSFnbp0iULFy4YPXr0iBEjaN5/97vf0t7RbZJy03esrdmydcuRw0fUcFdX0yfDYw26Pk2gm0MplYa0GnHzuVssdL8uuaAltGwvH6zfAgqWbik1CJmehGyWu+iaUvD58+eTEQlxnTrlnvLMM8zSwTHSPvqnP/L1jlu+fPONN94wctTIt2a8tXjxIlpe+iQVleXFm4ppJag6tB6ghR6SwA3UmgKq/OK//aMLAM0SiyZiApsXQDTTySDUU3+eZ8I0T/0bq/EwSPLgLkuWs0Pn5LtILEz9fY+0H02CMT2gqsf0hNY362rqagoK8/sP7Ld5S/G8eXPq+FpKZSU2g8Hm6aNPL92zh3Ec1ZcRHFPKZL3ok0XcY3za6NMZ0rZp266+ZMeWLVtg908efLC8sgJFYVK3PR3Bm2664oorwE+PBwEvXbykproKZWQpDaYzLsZcYXiY1uOdpgyjyIITnkcf/dOIEcNZ9Xrttdd2796FLpGpjEdDffuOHf/83POUCF0nI544Ym/60pceeuihPn36UCy3ubSk6AEfSGYCsoa7vDG9WkWAZSzvBjO9WZkZ1eXlWtpjHg7jh2ZrnU0WOpOlL+pPXa2SMJqJxQ4e2P+7//7t6jWrbr3l1gce+MGQwYNemT69orpy4IABf37+zxQ/VqfVOWo0JDG8uOvOO/mWDKndIQIbFjNZqJlnVQ/xAQnK4tIPFWQgRDxIKWEuYZr3v1IkpXIts8LACE8ijioc5ZPkYAQeGjJEyKB16NCTPpzzwb79ZX/722x6zbRo69ev216yvVu3rozR6IFNnzatDZ+5btuW24z/+Mc/MBnBJ8VAjvLQ02KeZdCQIUhbVpbQhhhLBGlpjEZlAI4cOfzO2+/wkZ2/vPHGKmZbEBQKyjo95qG29p233yY7VhvUSjY00PT/8fe/ZyKG6UA1i9IYWYnZM98v3lCMB8lREoSnFty2I9DBp3e1s6QEM6MVEX2kQGuBzKi9/vrrYH7zjb9s2rhR/QBbaUWJwTDt5ZdZmNlSXPz69Ff3790Lf8AM9WgtEzcz3nxzzcpVO0t28B3KwwcPslGFacJ333lnS/EmPhfDNd/9+/blG5N8vU3dZalPKnaez8WIAKbHDx1iVASVjfxXWxBoF4E46xHJBEgqapMpaACgoAQ5yT0hqOJtHk2kbB7F9tUYCK+r44bub37zjk2bimGv6g4FMhtJwogANE8iTEllVPjBnDlMamzasvmuu++C0W0ys5hdW76c+bgVSHfMmDF8tWLOnDkMMJlKuOjCix5/8gkM4b8/+ODgQYP//YEH1q9Zq4ldKVuSmhhb6eIFvtLeYkFkhCxreC3ibRIHK4hhoPOOzKAKCtFGWIQjUGCmXnh4td6YFAKKAZCUlKFSBZgZqzLyxWlpJrmmvpZSg7qqkg0j3FpexxweIfpYY2am7BOAGqj6dhspHHhMazXVh37IENkkDpD4KyorRA8jV/t4EJM6rIzRGVCLbxfHQBVFpjuBIRcZ2rWAZNSO8xKxHY8g4Y3Mtmz/ZZddeu+3vt0zrxfKSip4xWQ+ZaGh4I9MpawG3wxPPM5/7Fe9bVknXfIc+FGttnZW6i5pmSOCXpg6YhYoXqen8zFjRFlQWDBo0GA6Lh1zO44bP3b8hHGAtmmbM3r06bR3W7awxJQ9fPjQc79wdnYW3/1K5t5+8GIxadTgIByiRausKM+kxiOQigraOCyqjwYwe0zCYQXra+rE9fp67B/9LU3cILyYvi+FpmqTAirIRimNu9Fh+nV8pkorxWCgUvHRNK22EswyHZPYlVVgQLEYlkq9WYdlFpcNB7V11RWVNZVVjIpozaVD2MbqGr4sQHKQ48G+wiBeHQ8wmekZdDQgQLpehfHSV4egirwgW34bk/HRhHS2TdTWVxw7Bj1QRY6YVXTu6JGjYrvNRrkKOtt5ut642rnm4ccJQGILBGSveiTQtazmhRWCMsjrpcITFZgQ4qhnASS6JgWQRWF8ypOiTpr0Bap6QWFh/4EDJ58/JTM7K7+wkPl9hEu9Z1p1yvkX8OGlg4cOMrBl4QH8WVmZqAao0BAm0ugz8cGTXnm9aIiRJWKj6jLug7GMY5AKPTkkSl5GGhMWmlqDDDAEBsx2ZGEweIVaVmxBa9//hH7WVDRrrVkV5qX5IIP15dEqTBqxXiKMKCXFtvFKP4GmUGKlsHwTRvsIMfwNZ591dpfcXCqIL7IxsEBRrKHk2xv1UAif4Ak6ztfYMO0Qj6ZCNrFYa+qD6SgVUAMdnqBVvlh4gbDwjNFKt7yaqBDMl7Ow4MfjRWEjZAjSGPJ5fC3Yz2tCqBVLxbPutxcHGeBM9wkQBIqH8PDCp48++og5hT4F+aPHjPnG7d8oKipq0759m3bt77z7HiaruvboMXnKFLr2DDLSMjKmTn3p6NHyr99+O1942nT4ECNKNYJJST17dGc5f9PmzcySsMjFZ0+YUGWWrnN3PpfSF1o+/fTTHj170D0q27cPM9mlcxfEV7K9BM2gJ4jG08jlFxbQYKFqzLxAMPbyWEU5y1N0H9ujy+kZnXI7E1tSUsLKBxhYmuMrLixw8Ur4nj17mGnjE49l+8qYyaOTt3/ffmZn+JQUfhYbWI3Q6BXdra8v7Nu3faeO9FnZrNAdwnJywEAlgQCwkQVcKurXl7lGCO7QqSPDBTHV+i1dunZl3oTZZl7BTJ+HjRdUiZ07d3Tv3p21DUbZB+0D42J12Ly69gBGKgko6K+qUnhUCz1TfvKTnyQKNVSDiieWRtaDohhHqHHYFaZVZ8x4i60WZlmUp4ppGkdpxQkVVUH0VOhSwHE++jFw4KD27dudfMop7PigPwPE0GHD+/brB/YOHTsOHT6cAcT8jxe8MHUq3cpv3Xsvenb4yJFZs2bt2rmTLRtjxoymZ5SVk4Psu3TtghEbOHBgyY6SSedNRqXGjRvP5z0ZI7NSwmwXC1N4EBJmtWTHDpmipIZBgwf169+f1v+CCy84cPAA+nTg4EFWStZv2Dji5BGdcnOHjxiBkevarTsbDqgk9FC79ejO1AmLYxmZWd17aKvLyJGjqFtnn3s2pQYDRuu88847cvQYFGKcQEuRYRdjdgZVfJB+6LBhVbU1AwYMYImF8jIW5usuqenpO3buHDdhfGZW5rDhw9etW8tMyq7S3ePHj4dXFPP00aPbd2iPQqPHzD5Cc/9BA5ijwfidfvpodIuPB23atJkegjhvwoLpLgjJw/q1aB8GYODAAWPHjmOKANEByZNaATDmlI8OARlIWsDq8Fnqf+6RMJvnJXE6TJ8aqTELx0PFtJIqgP+WRPtmNZWkIAJUCFiTkZZOlX311Vfh+ISJE45VVLKTjpkqUPA1YngKH7CN3sDFklPTM7NuvPHGbj16qvGOaZ2ABququhJNxYqUlpWVV1VsWLHx0y2fXnvN1SNOGbFj186P5n/Utn07OtvpWZkLFy/q06t33359CaExraypzm7bhvlhhsyEFG9mAFrcp6CAdjS3S5ezzz0XLecb8dg+vsfdf+AANJvvbC9ZcnT3ntIhw4ZWsCEvNYUNVOyR6devH1I/eOTQJ4sXjR0/9oMPP2RSkIx65/ehw4jx3l5Sgnnm85DM0h05dpQtAoRM7tQRdd+1a+fSpcsI7Nkzb+++siVLllbXVqPrL738UrsOHeDWzl270A9mPbt270YHl8oDZ/g4G4Sh/QzvizdtWrtu7ZkTJpIj3y5CKdVXgN3SIjnje/DwV2JcUqZdklI8jAvJIXkiruMhmsL/3beW7ef93WwDtbNyWY1RAVzvbKYXKwJ39u0t++XDv2BiolOHjnCMoqKUCJkuFCaCHg/tI7ygq3fvt7/9pS9/GeXEylI76e7QrLMgwcwq8xdsVaK13bd/H119MmIIzP42OoWYHwwbKo6oMDzr1q9/5tln3589C4uL6WLqjigEQZOHtIaPGE67SRRD6Wf//OyYM8bQdNKAMhJ67rk/v/feXxn00Rw/9dQTxcUbMWaY6uxsTYZj91m9hU5yod+GwTt69Bhf8fvTn/40a/ZsEKLQPBHjUb5GpX0uavgAw+C1a9eWvTBkRAyGzXikBVzUCBv56bZt4yeMX7ZiBeRdcMEFixcvobdHQ8HBKGsWNIHHOKOMZeJPFr744lRU2aZ14EGjIy/1BV0K5G1KCbX21wiWcF8iW9uAOGZTbR+sBg7W2iq8oYGPfb311gxrbeMUjnpj3Qs3iER4TcIMoF6YSD4YPG/uXOodn3bNoLPD1IZN1bJaCa/YJcDX67p369a/fz+GDjQoVNFjhw9/MPtvu0p28JGxc845e9CgQSwrHTp0mKwRPB9WXL58OeJEdWA3Zgn7qkWqgwdokVkf69yly6JPPmFsS58B+lFiVG3C+AkbN2zYxJRQXf26tWuZSebDfKwQrF61ik1QkydN5lNp5DJ4yCAsXIcO7d+eMYMJZMwb3VA2rkLzvrIyPnm2qZiVtKwdJSVQy45A2kFW4Zgip5KQHSp++Mhhvi5OSbds3tKvX38mjzDtxcXF8OHAgf0ssTCaufDCC+hcslWH4tCfI5benhYbV66E4AkTxg8dOpT+6/bt22lq9XfsKCtsY8acsXbtGrJmztLHPZEyuQ2zmk+F1WTUwAEDzxg7DotPxSO8aWvLTtXAErq++jPC9hk9kvRnBP1MYEYpcxPqnabom3tqX0W45vNuv/2bsEl4VEpVK9l2G3VI82ycK089q+aa+6Uh1rwgk6hpqaeccgoDOoTBV/DgCNUUQKRFnwZ8+Hmqm5yasmPb9v/4yY+3b92mWkv5CFe8lrkwk1gYkjCVgkUBnjoOFMYS5TCyNLhBIYRTf2pQHD85qq9DK6/d9nxnTMd2sBcMDADAAQlCVkrQJA1N9C0ydQ9EAWMmTmDYIgHKQaZULew6fsCgBJtnGYFB2MiLWOgkFkWBjY4H+Lrw60XM/lB8IIEXWcrfaBYNtkRGYTV1pw4IBUlJ5iCS4OGn+svmSGOYVczAYRXr66kV3/nOd/Py8igx4eCnIhJO1ad6kMRwKkv5jUUBxs/8k7B+3mfOUSoiWsUnc6pR4plGVqpLnFVhOkACZs6fd3q1rC4sWbRw7aoVbNVg45C2egOsyknTw8SBGmL8sJ+1rvIjR8pK98A/0zfUuIHWh0UNBry29qAqzGQEPOOPDiFNKucjQIDUwUrDQ1MOIdKMUDCoLBopfTQi0Rsm7WilON0AEdIe5tJQNbbllZfTsgNI7mwCKK9k6xQbBWr5Kq4DgJmNUCTnM43oLskxq6oS2rfHni2UTAMyiGQ2DgvECU0KJr3HVVPTmFWRLop402+aWrYcsimBTRJSLNZ/NWUj1pGQSqSmHJyazclgmNw2py1LNLyrLKY0zj1/inIrpYYaLelaW/OsvHEF0rEtq4WqrmqfUQBmGbBqhw4eYlRIVWMYARPQQyZLKysq95SWSkNVEa2m2nkfHw4zBKmt0eiEthhEaAYiJ6q2mglfn11jZpkpXM7FVKG5LGgySZaVqZ2V6IdP96NwaDNOqo/IbXmeKVxaSTphaCozdqgIk3lmgcxWWbXhUy9UIVSfVPyRCx0GskAb8GNTGSKBHP0jYXZOFt0+5mTIjIVa+nB8j4+Nh1g8wCkyaUCiVTNrALUVKhaj48gCGiYNPCLYlANTyowirSoVkpDAEDINzrof2weT67p07di5S6d169eV11RkZGdXapI8nVNyWrDUCXkSicHSRdUX8Zbc4V4kJ0Uk2iVe86g6chAaPKhuvFCB1KOD6ZSS0iFaQtNS023lHaOlhk/j1Rg7Q9PpF2dkMt1a7Rvk1cqpF4zRYVgJYlVh/YC5AROlyWHYRSdMBka9vWT4ytkLFuJMS9V8YkGtkWArPI2OTJQsawwxY1Gs78Kxt2pvc7U2RQqmXrEYJok0dhyrDWVmgZ4A9EOxHZsgY5kxLSUkMVLgicnkn8gABcseOtVFilh1XTXpAKZ2gS0tI6UuicnhpJq6qmR2n2hR3whMquf6BCVV7SEjFipUSAjGqlFdeEefhd8aOnQX5DpRBr3kp1PlohlWq5Wsr4hlZZx96YgeGzKXLl1dtqM61pBdX5vZUMc3c+lkU7PZnaITfpygNIJBGniMu1AuWsRs8VxFSYhLvOb9A7KkKE1dQ3JtWmZSsha1mbbljAKSQGPqWAiXLkkQWB59qIE6TFKJV3zgv/MhwCjhR623A2gUK2X3THl6lwWRIEPsoRTAkBhCyTBsWw271ROmbVyxPEf5lW3o8AqdVA+v3kwX+G1EbbCeSIBGuHtCLM1/2YUCgEhzox6m4tVBiYVY9TKtKlIFVDSrtFINo9UhabPr02oyO6fUZh7ue3JuzwGjN64s27is9PCuqoZq9u0BlZKahP1D0XmxLJWr5WT5Nicuce+tqnnxZMM8XutjVW27Zww/ZXDb9ll1SZUN7CJrYC8xKwcYRWoeFgumSA6oZaBurliRFgZccqG6Yph+Wj9HumIOKCxCPAFhuAkqRAJVzn7JVkc0tDiLC6Tu2OzFwYgwjTUjYUgc2OxpkB3BSqfFmnS7+EXhXvyoEMrDHOGokRp6UyjCaKzx07zit5yVFscai3VOZHqxbVAbATiYXsk1Jzm/f+fq9MP0OdkSOnJcj/xenXeur1i3bPOB0qOpDelsqIDA+hj775vxp9kr+BLp/k80D75RBmMus2sHDu0r3583qCizTUp9SiW39LBJjGaTDjo85jYBuuNApyRnw1DxFIbIwIV1O/RbJCu5xi9XO2NUqA8SmCMgWG2+nMgwKI0SLFyDFYROOCLnqJBlRIjEjlUUsJFgYMoLLGpcgxYKKA2WBWVOPlsbAMAObEg/3Hn2+A17FGgDHXVJAgwCg3K0KwAxihVqpFp6jxEltpVGkFGxGZ41HKtNZrBC3yPtUPmezgWdOnXJ6T2w3/IF64rX7a2pzIw1tFN3wUyso4KkuAw9LMHPVtU8Z3HAaBM77Wp1efq8D5bmdm5XMKATjQaLnrHkLDQNg5fEnRY0XMnsU6K3gy6akOCrtM00zriBjzA4BViK9bcIdrlG/OOVHXuuHwgVO4FwDEwoiDDFk10UFujAi5UJhGEKRy42XFYCOcleKsdFFlW0j66XQFrB7CGaeDc0/IDYGjVPLgyBL+CIQcrIAamBC9XD64MgsUphOqIsraqKKPR21rkjwlUuUAZ01MUyU7JYGaY7mJ6VlZLE0g4D7ZTcnu0uvOq8Dat2fzxvTenOcja5aDt+SJO4EOmuskm8a23Na1aeWE1GVl3XhtSOH7y6Ye/JfdKyaH+ZNzrKmFLNU4wTVvT8qmB8al02nShPbqwPdStkkFildk19dRxyE/vNRfaMcCLVMBGuF3XvBIzi2CsPdx5P5wcFcJgoxjyksmyUtNEggVmv4JZC4BGsqo08jCKly5ZcD0cLKKWLAnnFsLKAAaCWuZTcAFyVIzjCGRiY3guj5+QwRrqViggGKCn0o9VdTo1VVO1Jz8SQ19BCa3hbV5KWnMV64JGj28u1L0vNunLwp3wt6BKqeUaxy0RMCJnlIZRH7BDr7dcKxWHQ1LpjCKv2cP3qj4qTUtjKw+IElQ+my+4olX27QatLlhDuCIXJzcwc6gZfhdPCjXGK9tykjG75eDe+SvOEw6h1VCZBaYwgCbfkwmBvYA4B1ApH1Ds2YoGUPSMdcFrlCxrcAFZ4cbLfTqYnpDghLvdYEWwik9EDxLqF9mJFCorHOGfxpHNFDwKtCOYXLsVBERM62oRhrGSszliWSzbSamuYB2A3mJjMmC5Wr7MaJIJQL6Be+cNq+3uQa8J+Eql5kqIV2Khzr9kSChHU/4juoDSM5lMaDiez4Vfd+dQYHeUk7WWnNdQ0FWZPU6EpTII1MKHhPDWNkRbyT2HiLhK33JGuZu3xh8QoR4Yp2M8gb37V0gbWzkWmK5mEAe0QRgQmYEbAFmjCQELCY7gVqTLpV06kgBGfNYD20UQjIRCiZado0JkZE4kiwBLaS4BFOJkSsWqHT7kIK7i9N6C8zClcXmGNnF5CvQkJtBOU1GwZXkqXkqzxRF15UjrTM/XJtVUVmVw+mFTP7YJ0cOLKFCCNuBHkG+X1uT2J1LzjiYnkRJRID/kFg0xQSTVsrU2tSklnprYiJUuTyky6JSen11RzSShzLQiqnk3FNbXA+PZJdaLBxGjO2KRuDQzXUkAgBII1PMR6RZBxueNVAv6bTI0o0SUdIFCMRo/NKPq0Ba9Kg0KaU1LzexJUk9RKaOXhqXCCVBlEJ44k+qc/4hToIUCKQrQxMLSQYHkFWVlip+04lSCtZRjAnOBHdYaMkiqYREzmbBGXgWjdQgsrSVmxBi4/ILO0zJTs6vIKrHQszWdOm+Z9ArwJC2pZzWtCJlw3oUp2ihAbYukpfQcP7DuwT7uOmUlp1XWx6lgq2zQauPIhLYU1KGppDYuf7FpnbleMxEk6xlSTigRqzmKQK9K00wa2UhnkYklMJQIcCNuqgaGyh1tNMIEPjTD1UQffNYxkigpVyv1QYuoFeTSO5jyZtWABTECpYmn4AkVyWGmPtM6JbIwKLaXys0ylqVI+U3OplGm/vRqmEz2AFQXMDXJjKQsqdt0vjWo9F0mxxsOGs9R1KzduWLY5OSs9tS6r1iatLEMzxspK+ZwIdWLCWlzzKH7IInhhRHvVNlbW1NesKd5wqG5f/yE9iwZ1yeqQWt1wDOVRf0qco+lkvQHxq1q6wUAbYIlwmD6JORGD4DJ/3jypndaJGzFQqKTtSuEphd0ShsTJiBpJgOIA876RIzfLJ0XhlRQklVKCDOsoegw5ETgrouHmIYwWgIekHMPRm+VgeIxyWb44pzWF4JXfAMxIYnge2Ejl7tUjLmHkJVNloYxgnXiV3EBrkp5cz1INzW9dUkoFh/Am9uuekr1v5fxdNRw+MXZaokaaVYAWcy2qec0pFzuM1xK/CSGdi8hqsves2X9w68EdazsPGNE7f2BuLKMyKbWKm1JSYllJDW0qDmD4dKJacjCx2S8IXECEoRjCCHKMkBbJ9KZbm4CRDRRgSIxYrECEF2mbQctuadHMiBSdShslEwgaJ4Q2PYOdUya2b8U1RwTJgUDAUCWd50eJeOjHyVAOTNwYEOHQjN+zNUJRlyCVaTxhAVGC8xk72WyFH+8IdhhLo/4hqejTsV+Wppb+cx3Nbhrr1NV0WcaMHhc7Vrx28R4OTYnu45yoUkVLvGtBzTu+IMZhZzHFlJ3gVtU0bqNLzaw5Vrdz7dG9Jau2rm936ti+nXuypFFFu7B3d+XCeZu2by7N1JBR7RDMx8EQkmvoaYNBZn1NK5kMS2dKgt0rwLB2jobhD6Vu7LOEpjGs0qkxDR1JZMkcswLpX+r0tfXMLFy5GAGgxTIpD2qENpe7cikOALM0Su+oPInCzVQbiMCAiFRTtjToPhJjRl24vbiCJFRbnjSjro0CXmrXYwLduYIQ64Q5/zkLoAFqPVtc6UUww5LJ9EpdrLI+Vs6sZmasffkBikUPRzgEE9EHOl4V6ugT/Eyk5oloaDdyGcPDAYj1kohqeAsHNEYz02HsQ/J0gNm8Vs/oqzap+nBy8ZKDOzcuOnlU/8HDC9q1a79n48rdG3fWHKX0aRKUdnzodmLqNWd0UjPYwRbkyJk/zjQwrat8Yw3abpmRYdxTjogB0ycM0lRacxRGR8XYnVBVyXodHNYKFQM+U4F628/CFSRsdNMqKsDa96HdDZI6svLk7Gph5wj3IZDKCwuATKlYoa11sIEdUIoFCSv9RBhN6Bk7qtmNrFphRyrZ8kQkuw20qQm+2R4c9ihwlpI3bY6yO+kbGnSmDgAspYXAAZa8NehWptwlVaMDwsyb8AqR9XXlhEINexxrarmk4QibuGrpN+tuN5AcidUzA6rrMuAGTh5ohR1ez0WIhn0AJ9YlUvM+A2VimvFHsM4pKQN/UgqKzVa7tKMHjy35eOOmjVtOOeXkpKqM2spYWiwjSfszNNPC5h/TaloQNqLBH+1H4koAdrJpbwZI4VR9fU5mO/gOYtJg/Niaxp4lOAsBNVW6wS4tWfsuK8trsbh+eS0hwKMfjKbpubExDqlwRh+sKezo0/EX4lWjUDUWl1lWSOf8dmUNs7KWqXRUnVEtRAksPTkd1aE+SPFkfTkEqcoj0SL5au5lSyfcqgq4damHLgZI1a4T5l+QTYqWbbmVu6Guus4OAidpG5/d8AwTGDnEuB8VSjkubFUQbKlJIrhBh4PRclQSmlWR6mvZHJucxX2m1bXpKdmARCKQYrrwyMmkYVEepKc0OtGuSd820cg/Cz4KiljMEAbFZ8tOenVV3d7Sw7Nnfbxi+YaUZA5eaIsUFZhtSEiQ4z2YMBoPu3AdZYLJmEBdUqtaq4UyDW9RLAnYLulG/Ogof1RzNp8BI71M0vl7TjfCWsXq2kZdRWr8xwZwzZRsFfiIxYBZK8jsg8hFpZAWHm3EQqG1oZX9ppqwFTXYOawG98tymRqg7DomO5l5ZQR9+LFYqBU8omKAWfmyWMwWVENFOLHs2yOhSFB91TED7Se1ZpfkBFI6UW4WS2mt/wcTlItVcaoPdJIjhQKhY4sE4yVVG+Kltggpn7StJfQtytmmlxrfWtgn/hkHPR8vtk/GBTlbkbmqgc09rNbXVKUcO8J9NvThGJQhLbojXJqRWsWJfJohVAtZIXXd6Kjr+iVymRDaOyHCWUvXwPZSKRz712lSG+q5hBnhsSMAnSAth9nUpEhl2Ravi6d0JNoUEXxsCQGPzJX0mVsBdN1EelqGH+imm0As++G4qR16fKscNgnSaDJNI7VpD+WmbYUotJfTwTI3ojmT2iK/6pL2ygXJU+g2sIQoBQiKw4tqkYhkKyt0K1NCoEjLEIoBId0PiuCKTggajPbT6wUJuHjivMmWgoaOKKmpvSpLVQClbGHFY4zdik48Ur1X8dxR6kAVbfAQBMpuMEbITE/NaNc+NzW5LarDbSFHDh2qTmLis4JTYQiJI4kdOnXiFBn3Nm7fts0sIuZBLCYL1zluBs7IyuSYPkqDqnXicE6HDoc4jLR/P7UfRWT3OeelazhOWF2dmaW9weRtZzs0Sweqrt26IBX1jWSZaNl1W8/esr3g55W907169eLKAc7wcjKtvPxYti4x0XUniM5a+UxOrdI3VZ3A+KXwOQruiUo5sP8Aou3SqSPdQGkJVaG6hk7ngX372TORm6szsxwVo1eAVcbfrn17zn6z6576AiyqmGl38qGRnTrn6v6KhgZOeqOh9CuOcebn6FF2UAOdnZmlGpOayuEYdkFzv5sujsHWmixCKVBL1F4rLJRM8NtiP62qefE6R4msmJQUBZCc/I+iU4VpYTLSc77xjduvveYGuklqnpLYp1w+/ZVpf/r9H5AoXL7lq7decNFFWAtSrl656te/+tWWzZs5gmWtWWpBfuFDP/0PIH/xy1+uXrsGS3PLLbdceeUVbdu2Q6K/+uXD8+bOQyK33nrrlVdeZaqmweMdd9zB5evam84BypSUnnl5f/zDH7kvEbOA8DAYWAvOnn3lq19hW/n5U86/7vrriwoLtWW/ro5L2V94/s98ZYAjEQwLKIg1s2l33nknd8+zL58ZcvSVMcQnCxbc//37z7/g/Hu/8x3sJfqok04cc4wl/+63v3vxpan/9ZvfYKse/vnDq9es5pg3GMaOHcu17pwoc76hx9Q97jm4/vrrR48e85Of/Di3U+5//89/W/OtRplTmy+99NK0aa8c2LdvyJDBP/zhD3/961+vWLGCcBXWbZuaZpgny+qi4Qnz4xreFtM7zSsm0Fl5KEpoqkPb5kZOKqVy8lAVc+MnaIpqM24Ko99MfdaRBS4N6dGjJ6cA33xLt4mxyWLcGWOvv/6L78x4h1saOM1//gUXcsJ0ydKl+X36TP7CpFu/8tVv3X039Rsseb17ff8H9w8ZctKSpUs4xEqTNnLYMC4G4O7iLVu23njDF7/0pS99svATqODIPkaRr0Rg81Csbdu208c3RWQdpYarj6e/+hqm6Jprr2W1c/q06VykzPczMjOzJ006j6N0nLd98qmnOU57+umnf/GGL+7etfONN17nfgw0gDEmyprTtm1BUSGnEt/hAl06CVb4dWvWkGTHjp1PP/N0fmHhWWedtW37p++/N5OrkrmnkWsGivoWcacxp7tRSvqMhUVFe/eWUYtQZTQY5aCUVIzTR48586yznnjiCY58TzzzTCohl2tt2rSJ3M8888xrr7t22fJlyw5zjJLrU5MLCws54qnBhwZo1vKgaNYdFOMtRHgxAZKbDZJcVt74ym/Cc4VRQQzOgj3sn3omUvMChQtIUW/anX4DIimgE8zTon3CCK/G8kDR/0Dz6IxxRia7qKhw7drVzz//dNn+/dye1TanzaABA7lSpGTnTm6Cx7QsWLDw+Ree5z4KvkBCf4prhBEMR3VuufXWk4YOraiqLN27lws6GTf069cPs/ThnDnUe27Y5EA0akFDmZ9fsGfv3nffe4/vonCTOs0UVgl6kSxCP3Dg4BNPPIlVu/TSyw5XVT3x5JM0VSgoLdotN9/Cge3f//4PXBBLb23lqlU//OEDk8477+WXX+HECHlRVDSe6+ELCgtnzZr99DPPYkqxRqoZ+k5L2sJPFi5YtPCLN97IJQpz5819/PHHyJQmb+iwoUyI79y9mzsD0C9OblMDlyxexJ0HKA0KALdo6DMz0m++5WZuEViwcCGBAwYO5G68N996C+Ujd/Ll7DdP5r2xcyh6Xq9eKJYkIm6L+fofOhcMKm2hqKZFS9fcka/UTmAJconUvP+VJMrrf1ajAnAKoykkBhBih8a5Jnt6ZdKMVatWc1KgT58eg4cM42w2l7By7TAqumNHCdc5fue7387rnff8c889/dSTGAw2r4PjyquvOvcLX+D6vXPPPQezQb8Qhs77aN6Xb7n50ksv5bMqXAExY8aMI4cP80kgmr/evfv8+MEH95ft+/73vr+3dA9HaaorK5jMwt7Q/tKb792nV2paytq1m+gf0iejp3XGmDHcIkDrOn/+R/TrCeK4P01h36K+2Btpns3gMBTo1rUb39sgo9u+fhs9AUwyz1enTef6BMwPn4fKz+9DP27l8uWIWvYsKYnrWtBLrpL53v33c86tZ4+e3IWwQx/34S4zpoKlPbTvV191NR85euyxx+jSkSXfbMFsc7ycG1u4LogDs1x+sGXLFoBplyGyB/fFZGaCBJPsGhSpkdk+cV8mMJSitLwlXStrnsp4XHGoRxq3qiajUzGd/UtPzxw2bARbeiZNmnzxZRegAenpOagFt4Jy+RLqMnfunMK+hdgYum5fOPecxx97/J23ZtATHDdxwhVXXcmNrSDlgO2GjRsRDKcnuY5k//4D3JFDh50LAOgAcXBx0KDB3Mj0ySeLsAoXXXQxl8uuXbO6qoLJ/SRuqFK/THJo4FMr3FyxcpW+iEJbTNCpp406cuQQd+pg/xgkVVfVcv45MzPrMDdyUgGqqzTdLetdTx+LgSoGiXtSKBytWfGGjbNnzuSuKLr53M2Ty/impmrLls1EgY02lE8XUVW4Dp/BEy1suzZtURc020cMZIfD6NIB4DIN+glYsi5dunDTFDTcddddkAeArqV//nlOiIJBnUvrcvLE+DHKMYMmExbIwlQv8GPaFGPWMQpqAU9ra54XAfXjn5fcWlg1tN7UMgsGo5B6fp/C8vLqmTPfO3R0z6TzJjGs/O1//WbWzPcZ2NLxatum7bPPPvvOu+9edvllEydMuP322zeuW88lOrfd9nX4tmfvnikXnM/MSG7nXO4kIKNHHvk1sffd9z1s3oUXXvj2X/7y0Ufzp059cebM99euW9+nT/7Qk4b279eP4V8Gc8w2X82wBlHR9hfINKbRvePMLAaPcUlhQSH6xI0TiAwAegI0iPl98j/+6CNmVjQloz2ZmlMcNHAw30978qmnNmzcwMwax1j37dlbUrKdIQi9yS6dczt2bL9vX9mevahINQ0x9m/goEE7du369SOPAAb27373u/369uXmNfKVTkBcLLlf336o2tp165yGwsJCrolBC9977z1IQgUZeVxzzTUbNmzYUbIdO831Ltu3b9eSCTM1zFhrnlKikAjUgPMwP0HuU2yolwJMvGtVzYN807ZGw0eZ1diqXMSY5VMnCduQOmjQ0LK9B15//c2165cxLLj32/d179Ydpawsrzzl5JMZ6L348svvz571m9/85tCBg7d97WtcxcBFysNGDEMnvvq1r2HnQEu/e+7cuXl53N+Tw8d0sJRjx42lk007DvxFF19Ch27d+g0yPxkZTItI1XQ+DPVSjwdVw1jSj2RKonjjRoUy61ZdTSvGJfEF+QVzYnOA5T7GCy+4gEv4Zs+ejSpiVrE6KAiVpH///qW7SxcsWLCheKO+fUc4j9rgwoouHMLu2HHdunV0AaXSsRj3PxOyeu3aZctXHDl8EKooFFeQl5WhebZgqMsFGrp26wr81i1bSEKH9aTBQ2iXuS9/6gsvAEYBz5w4kate2rZpA2fBQCn27Ck1m6ovDbnCies+wgh7P+iaLIJe1fIKoMVca2ueFYSCBzULD5LGzqnBlRUUKxjOoYhcKlNcvHl/2f7KiqoPP5xzzTXXn3vuOe/PfG9PbSnMHXHyyRncT5vNZGztRK45O3qUj5BQrb/85ZtBwk1K991334b1Gx7++c/REpQMdvfu3YuvqYw65RQAli9bjnU544wxjFe4Uf6ss84qLCj4xS9+AeuxdLJttsbAKIMbHtu3a7e/rKx01y7RbZezcKP3dddcc/VVVwGPUky58EK6WTPefGvJksWMTFFTbiDAqmVktC0sLFi/fsOpp44actJgFBl47nzesG4dVwLAAnS6S+fO0199lf3oaD+mqKioCIvOWKf86BECc5mwzMtbsXx5WdleM0fUSV1UAH7o3/bpNnhFB4CL8eAjWnvxRRfTtnIHDfb74/kf79+3DwXiCzMk2bBhY40+s4HR9DmURtVSnZet039CTev4aZxtbgn1a0HNo5A4FSjeqWTWj0X+cuiaxpJ22QLWgAA2zSbTK+rYPvPQgV0HDuzkKv5jh47Mmvkedg4TQt1dt2Hd9OmvXHrZZT964AFaRAzGU0/SnK1n9Fe6l7svYr169uRW5FUrlq9fs4bc/vb++5tu+rez0btx42Do737zmw3r15P9wvnzmaZ57A9/IOGcD2Z/NOdDZtU0d5jMxyarGSlX19XSTnXunLtkyRLNummulXWImk8/3crk2de//vU77vgmZpJu4sfz5j72pz9WVepTJ9guWlzq06hTRzJLV1SYf9+370UhGNjSWL/yyisbN24gltk4rpPEwBSv3wAxKAeF18C2pnrTurW624KPH/XsydLv7h07jhw8SN9RayDc652iS+JlwMwKYiO7d+/G6IEB+FVXXsXgg6lsKuGfn3sOS4lpvOTii1fLrWIIQxZqZsR41XJJANb7+iH2WGbX5aIJeaKA4N0DJTcEak9ZiMgvLP+0E6J/OtHfSSCaiIrFmH5TwRgg6CIcJopRqQbukkJOxcWblKOVzkslSHNOCU9k2a5t2yFDhuwuLd28eTMhzFRxgyL9dK4bw7bRf2qTk8O8yckjRrAwyqQVHRrGsD6iBCHmrVev3oxFNm/aBG40plv3buN0yWEuV5jRH2LbAbQhLT4VyXiwpKSEBpEOO30vUy+6RlqcRSSdO3em48UaCX18mSWUjw6cZnCyoHDYsGF09sHJVBmfCsLOAYCSQTOCIbuTTjpJCzChUUFzGJXj4AFayJxOjx7dP/nkE6wRmkTB6cDx5UjaX65Ig3IuVmM+iA/6MEsHWgouJWho6N6z5/NTpz711NM4SsE3RXkSSxK6cVw2Dwam8eDz2Wed9YMHfvCrX/2Kb5lisOkJQLzrnFQKZoWyYGHEtE2t7SWXXPytb92b17OXB9Iu+Ww5F1Az2HIaSOrFNOn9049W1TzGAZs2FVtZbVURwk3vCbFAo97W5ikfxsPDVTxtPWIXE5/dYVFcQsVhEniKNbYTDjBkKYwmVARpDYut4apyWSWWysN/Lc+hRgLVmqzaL1AhWrNYjsTW12V4lJAkjIXRD/yEAI/CMQliaVmh1Y4YtAoCGEQyVnC0yghVsChSIWNyMXFDBFk7SVg7lQucpFWhrLWTElhaCw9IdWKEIjn52eeeZ97kRz/6kbGC1RG+vCqOkYqC8wuj+FjSz/7zp/M/nv/f//M/fD+DUIhklKMsgKP4+pEPKqFWmcp8mObdc29eXgtqnorXus5Zr95GvINlzjVYgThdAwiB1ygEHSC4Rs/GbRVXRdEPY3aANo2ODmaVqXe2qVgDBTdZrrcuPGtSAqD9RBSapEU/QMXTZIDS6stMdMuQLkkiXXeGuCQgBg+UgBRxohmkBgDzhock+IVWCqqdI8xao0CkIhwxW1YqGWMjwvEBRqEwrryjczzpspkxQ6eB174YUgEDNvA7KmeFkaElLxK+9OKLDK3Y7SXm6Fq0SvVsqHWsPVKc2jq+cTBm9Oily5Y99dRTqB18N5wsRkuPcaoHRo+I9DLHPSOtjAtLpLcF+3knINMLrAiY1FhYgmGBeGEOVcO6GKxk4E2MGwkaC3TF9YbRHKngL/08FAvxM4GHKUJgSAsMdMMB4JW7NQmHyczigpDMwUkICkcUuwEAwxHoWZMEzVAIdgM9QLlRghouLxO7UAnaHHSCrj3wQUJMXa12CzKmZqbDkwOL/XDtAZhAb7ysajC/K1WGBpo/8IAZVGBHRSFewPZpNZ5eIgAgnihBJsVenT6dWyK1Gkz3MSODmRSqEGnBoh4hdNc3PPvMs8lp1BxWhWV+qatgIMJyAo0QSRLkGz4ttDUerat5KqE4gkCiArvCRYV3QTrfUSA4RhoZCtMMXulEShuS9Z1gxMZEMTrEK/JBfgAgKvHd9JhXBI+ikB0h6K3FyI66cpMF8LzS/ZeWmeAxUATiF1XqZSLIFAQOEWDFnLCNCkUHgKeVRDoNGdx5VlVRye5oGRR2UducrbYe6KB1jKpCdtgn7UpnR4zpgajFClljB0LLTreg4sgdJ9o0X60i4yFEhLGUwl2U9mUf8iVEaqdLQvlsBl9ZhiF8oJovAdF61ABK8RXLoJhv6XLVhQgzJtlTcz1mpB25Zd7ijwS3tpQw3jWz2NIh/eNXTq80hQjDFAt/EG7MRSSuRs4Ub0ABZdIBQUoJsEz0brA6jCHsfJDpAdqg1kSyRHuY7tenHK1ZROc14lQfi7wIdM1GJGRE1ohQfsBc3Y0eE5gaYuBJC055jHg8mCunk7QECtgAgpIYYYQTSAixSmLlIhAi0SQ8ItscyCEM1eHN/Q7Aa8QcCu4EYGLZV0EzCR5womSgBBGDAFJDO1HigAps27YFQ19Qwx3CIzJACHaQKAt/enYmSytIINWoUE7t53wmzOZBupOiMlB0q76UOt7JqIRMxCs/kN6imfJZmFLAF/jLK09VdEFK1YiCa8ZugeE3bfCuMXxjEEYSRZkHn7QNv9kh2k2ToKd3Aqw5Bh41JFM8zl9ycmKcPJLxirP00gOVLHzFK2UN5Rf5CY8cZfcSgZ+0DuPYHBWQABBC1sRG2oDfEzoANChfGWCVTTVZNwfAHM2YAANPFGRlURKrP+RpSNQtJhAnPO7xZ0Se0KuYUlnh49UgeASowtfP95swzfssZDhnHZKyuWtkgRWRQA/B45C8UnZezV6ZmJwJgjRui004A9QJCntBMMZe46CyQv+IwOOC1JOm2bSZ7hFxnq+hEgblSK3gT29ybiOVjckGAAJ54giJ90evShY66RMOaKe1aRJiICmE1a/n4s/4cPktaxTEwoUP1DJZ4XsEY6pJvKWISqJRl/ISSZTFKjmv5CUUwRyyIzeMLfBoVc0LGGUlDHhnvHKNtGJbS+dsNelS5ECuquIR52Q2YIxkHiIVpshvnJLdFc+jeo8lhtEyLAo3JntywYXOgvVCVKAKRhkh/ErIBmlhZhtoy8L2urEgob46fn8GhQIznQAAQABJREFUmmfJPcS8ehAVwURRkQeAyH+8h9iApDgwlcKK7zwRr+yfk83TSVXeYLSaoySt6FpV87xotIleQIrqZebpHOAZySDyEwubjueLJwdMUWF0PCqicB4iX8hZYF0JHDMx0avADKGnQkddfUWfuxBdlDsBUW/MA3kiwxBQySL8FqMQYnHRq4IItD95wrrhfoeMgD1WCULnADxxhAGJx+EpQpQwBBd+AqNwusOkUWIcyXUnZCO7olSJ9bSq5hlPrPWjk2LFjAofeazsQRnj/REAniA8DOLXvZGCGm4xF49FWm0O0Tmw8oDBJirzCiYEUWSUVoFx8vPk/oxgyDpCosShawYcjz8iA72MLFDU8IUIgt8oYeSJkh8f4mk8HLB4SH8lO69RDkmgFdHrl+y60vpbMzoS99qqmhcYnUDr1DmjhHSeKA7cxxDBd/zOKaJwXlJC3PxExkNRHm0w/iKxCZF0iCRNgC0vYbTeGwB4eEYwnpHCSWsvkoenigvRSNy0sNEW2ivYgHfnmB2h+5uFOBhZu77iAS2BeBwSv5IHP2omZdVt2YPOoGP2eJWBNCGj8Hginu75e1UiSmLYlJ4QcYOcrT4yBI4yaglPwrBDt1xEI6N6DJv6WNIGIpwRgDCbwVMFNF5HT1c7ITEXYXIP8AQjIRwhpNJQ1CF5QSz804okk/hGBsrKPKB1pZEGKwaSHbMMNv+CHzxKZ3j0Y91/5ITXc5Rh8A44NFsBKA/JfWpG03IuJDubKEhN1Qa1SPBGsJPa3M+7jVd4kgsTk06GctTIXZiFHAzusbIwJpAKMjEEPy1cNBBiU5gQYIWI68mEQxbwgdm5IpxGW/iuKu3VHX4qZ+sL4Y83iiLFHFkYjHTT/WHMP/2bMM37LDmbXkJwoyOVv3hyShXv4qOOxw83AbCpEG3iJCF+bEMjyxAL/7SMm3r0WDl1AA/6KUViVzoHHE0MTMUhNna58aoVAlNWMNN7QztVc3CyN0LFPzLCizPFQ0/5FziW/UnCbK3TQKhnIWgrqau70SwN4JWsoQS/D1N08JZU5CAa+a+cwKYWAeW2cKmKESCc5B3HQ9FmrzwDFZOvqTNigyBmKM3xGqL0X8fUNGFC31q1tRUvnDVWTvzONZU1irJapSgTGzF4olc8hFBNlcI0D75JG1gVQCBcQWqYGgVueFiU1dF89aM5y63ZVPAgdZ6uXq4Q4HSHXSMKwaNJeJwSh5fUjHi1xDjpnRyx6JNgUBQzHgSSlqeSmONV1FIcs6b4yQLHkSVmqonFgcQ9QhrwylNbgLFJOBtzdkCnRn7Q6sccmYEtfAt/LQNeFBGWLgIDnH/HJwoTJ+y3VTUvvjwuMC+iZBnFwWeTVlREZIPfgoMwT2u1XQsD8FpWxCQapVISY64Mhi2sgQcwWTU7FCOZs8Bly6NoDLLnSRSUKEZXUbE93aEac0daIs+yEc0h2WrHLSMXezTPYoDBw8kQqRwdZ7eSJSEV2u9RhEd8UBZW9zwEMLIO/IpxEgLtCTKIC7fCSQsjhBHM8XgABqwRp1QyLGSULNGeVtU8KrwsFE4NlxylxTl3ArYaC6IQ9wDprATYUwVp7UerYGGnzQEIDpw1x6gXeGjU2J7OWidRfLYMqVgbyqdKq9mUBQzqgl6CgRBMI3IGMyQGhBER5ycwPpyteSD3TQyEu1l1mslOkGCz1hxSeZX+ScCygjT3tPXaYELpbKbNiSe7IK1hIBXOqFB4wBB8FuRJAHA18mBePbzJMw6JSkRcCOY58q7kTdIk/qVVNc/LiBC8qQrLeeJSic0W42D+xlPMCp8cU+BIKRrENgK+mqeBQLgPI0DOxg32tljPnYsd+Bos6gVj0X9EDncz09M4uMXWS8KxPbiOnTrSkMN5dpewA49v/EGFazZJ8FgpAomSC45vSfJ1Zz4ki5+9NKbT6qipmGqOTVHs0y7gBwNPtK1tu3ZQziExNr2Ak30IQm5Fs3IHD8tBRaYU7ldloESh2XMNJpAEADhz8PCKPx6V+z3KIR3Anx4uPKbejvD45IkKaUHNc87Ad+OFCIYPIS8kk9DfWBYV3pOFXCPEA2nFvJYba0gaY7fwlVddxcFB/Jx15Qgt+zKQJZKwNC4qNTd01zIzMs8YO5bTQOxtER513rWNrqioLx9b/9Ojj3ojyA54jj9yOOPosWN0vzYXF8+ZM9e2WHNblE/6WBm0Jz64UxY8/fsN4JQunzrmW9BYUvYXM5SxAuqOKY2FVdk0KCacbU1FhUUXX3KJtg3GYhxp4xw4hxEhR9yh7mjhNdIzjYdoxtFeUzWUAi+7T8RAaJY62gYIKhjbbUhO2YkjypDpIf6KiU0c4c7P+BgCQwl4Qksbl+5EmhwX/c94E6Z5KvCJ6FI4FdQ2ZUCYM0BsNCpVPq/lEQNAYkBRgAAtUFzWKE8TAYSdO+kLPfN6PvrooxxEmDJlSr9+/fiodYf2nTgcxOev161dx172rp279ejRg+sKFi9ajAIg3eycNiNHjsrKzkLku3fu6tK56ymnjERdTCcwRnXoIp+VX7R4McdzLr/scq6keP/9WWxInjDxTHp+K5avqKis4IgNdxUg3aKiIr4Lj23kWjWo5JDXuHHjOMOGFnI5Rtu27U899dT9+/eRl+9ognL04rLLr6A5njHjTbbLTzlvyiefLOYgSH5BAQeXSnfvZiM7ypVfUMj5D+ih6WcD/cGDhzjIwxNsHGiisFu2bF6/YX3bnJy8vF5dunTmWCRblJlzcYbDIOetuAfb/ceehPsbkDjFehPvsnEtxY/6x8GHqRQGfIDCEf1Lz0R+TT4kLonKB2mqU1gXUak5p8MHD82Y8TZnHQCLZ4RgcCE7zGvmXpMIcgGAsVJNpBk/an6f3n3OOvssOM6xU05CbN+xA8j7f/BAUd+iCRMnIh4+7371tddcetmlWK/lXGpx041Lly7jdpyThp3UvUePcePHI2Mugxo5auRfXv8LjR0tIISddtrpK1evWrFq5bbt2zjtMWjwYJD//OGfcyRi8JAh/QcO5CzNQw89hHZCzB133om6c9iCMyKc52Vvek6bNhy15Oqn/QcP/PKXv6QVPu300yDA9EmSRvk4cM5ppM2bN2/ZsmXBwgVcr1FQVHTf9+7jjlTOAnPQBCvLLS3nnnsufVPOlUFYSUnJgw89xG1DVCROQoH/hhtu2GoX/Nx1910cyAUS/XZOQph6qK4iTRlrHNWDWMCgR/y0V/xBRFLSoEEDx4wZ275dew8EhmqGnz4J/eEo0PEQ+y+4hNm8E+UNhZGOqQbp3Ytndg3/8alUeLOCrmT4nUFolcaPlgDTRFP113f/yh61q66++mu33bZw0f+n7k3gLSuq+98z3HPPvbcHumnoBrqBHmhmpEEmAZ+iCAqK8klEozHJH2JM/gHNX8UkvuT9TaIxyecTY0wMamLyjL5oRP/O4sCsoAwqgsrU3QzdzSRDj3c8w/v+1qqqs88+5459bqvVt/epWrVq1VqrVq0a9t617/jwP3/46KOPPnD5gR/72MewUozjy1/5Cmq67vrrPvvZq5cuXbLffktYWFx3/fW4Ctr+DW94I++BM0VjjGbc5QhrvIu+/q3vFNt7QKXS1se2Pe/E5z3/lOdT7xe/9CVmiuecc87Bhxx883duvuiii2686SbeP3r2uecYagmnnnba40888d73/hXvjeMLOdaEw1a+9a1vrVu3Dh/J8Su4WHogr9L8f5/6FE7u0ksvhQHezf7Ixz768pefz2FC3/jGN+g2b3/HOy677FKOU7n6c1fjbi+++OJTTj2Vt5l4n3Ljpo1veMMb7r3v3ltv/d6WrY/yOvc///M/oZkPfvCDHPmDbuCTMVze3RbyWc+EJkGQcqNKPc5VuvW9GOHIU6R2oYeHyUsC9Sgyj5bXxa7M8uDcDUiSTyKGq0MIFtAL/ZLdCObg0GAyx/B39tln4W+uvf76lSsPufzyKzjNiRGNt69f+9rXYpocPaEJe7PAK2H0VKZlDHBAjj/++Nf/xutxCRx6R5+HMkA6NFcw7OQHnVoCfYDr1vJy/7O8zc8bYm984xv06W+e8h0b/9pXv/b+979/565dOC0qZUyk+KJFCzkzioLP6LWx5mmnnbphwwbGXzrcs88+y/ySnkMbswR+2cte9uUvf/kLX/zioYcf9s4r33kkxxQtO+C4E45fvGQ/tsQffPAB7Jj3x3bu3IWst932/VNPPeWCCy/E19I3MGvcHle6J44QW9q1ezdrFKnFAh0HnZFEY0whmHKgbSBJ09YIaoEEpJwDuVrbOMA3iGA/Fm3FImQvfufN8hK7xlwQ3MwoxF0flpDAAU0KSskUZzlg83THcpXxYtWRnGX29Wuu4UYDhThfjBOlGMC+8pWvssA87rjjaW/0bh1a020iy5evwED/8z//84DlB154wYWYC/Ux81eV9mYQYxZHVRy5fj3vULKCOeOM0z/96c/gn1i3fuELX2ATjkGcg9U4d5Eh8uSTTvq3j3/c7Qn6Gzduwujxu0cddRRTT5Jr167j7Vrmi+zaYPd4XNbL9BvOJzj6mKO/+c1vMd3cvXsP7cxpa/stXQLy2jVrEFItzwP4WoKUsD/82Ute8pIPfODvgf/knnt27dp5zTXfOP74Y5959hn0xx89LS2NKU4xMDXJsdfzXJ9c3frQteKhGRQHGeVIRSJHNlGFoO74096kETrX33mb58GQ7cPyK2mazR3bdzCabN/+HADJIJUF8RCekERwONcEJ06u3JL1TtTEpH7Tps0cmnTCCccz9WZGf+uttzLZx1Gd+YIzOQeDSR5v+HL8ChNB3tLlvaHFixfzwjaGcuqpp46NjfIq7saNGzkhDzfDS/wU5IFyzHP5ihUM2czq2G256cYbeTn3qSefYubK67qHHnooRTY+uJFRnp6At+OUux07d3AIAdcf/OBO+HzZueeyMYijuv2221jZYOj7L90fc3n8scc40Yl7r+zUPLhpI6dLnXjihjVr10Dhjttv5wQMJlWcecAa/DvfuZmjWHijZ+uWrc8887QpQT6JWTJHFj3x5BOHrjr0lFNP4UbLnXfewVkFvOjE2gK5ZED+Jp4txagLpbXUavpNSVcysBQJcUEKuGHeRIYlRgVXPsRhgtlLr+Z5al1jqUcXI8fbKPLUZV6C4p08e2Lb3vT+n//zD2g2ehbCpVpNs6GXUYgOSPMnYIq4/C0ubaZIH2UPFkPEt/FKBP/s3RYmgeGNNceHIKYPBb27UNGhJ/QKrpgzZWktKmXGxotCOq9JO8q8g6M9C5gEh10SV7duyPKKjY3aeBnGMvwFHEKZK1k2Aa8wvuOuSEKBtQVX34LhvAEMgQcmRNRuY0AEan4/gzbGNeK72I7G73JmLaxBXe+csOFMRb47Q/OzG0QnlJu215S0Hc2tQbEBsg8Oksukxh5bSkMq49b7MBySNF9nNkrcFWXv2771rW877NDDYR3tUTt80tt5yYM/ClJKyunwi9m6po7P22irak3BmfptxAsdEZkJZCJtVoC0KPNynsXVkVuYNKEB020DKuPQY2xOxqCX6TW0oTjNkaU93RCjyTiPh1EPO3PtU2pcH4co8uo8JyWyVABtfEy7xwTV63N2O0qCF8ycDRoTUjhO1iLUBSm2DHl7knkYXGEpAKEs4vZcAqSwAIqoIdkLxDrMULAEbBrzgyxTTOhjZIgwMryHg1Moj9jszmBP0pGpTxI1muM1HjLQcwNUARE6Dx8wsGiwBghiH0AoZRmti0PEngXPAN8DtgkkxFuFeh+THeyTgDz+Zw3iYlvFCMkvVzQlZVky6cW1k645VpPuAhGz4wNXLMe2WCUw7+ZMDI491JMETIZsro3BYo8yROOBhmQ+h+lgFkzOsEg5aQsA+QUtIXsRN1lqxFc5AgJQy+rVHHd2ODfBQIMssoBJ3HkDE2MyFWiDEw6xP+yVP/jBCmRQzPBA5wEzK4h1Asc0oQkPdCGcuhjC4DQsSF0QF/2oQ8UzgVJusgnmDKugN4FZM0APjqYqZNL2m0r2OrLPLE/KQS8aNaJ2UF8UWb8Sl6uBuIZkFNjAbRenk0Ak0eaaI45495//+XEnnkjzDi5YeO555135x3/MbvIo61Zu0oPCYKdWZPyivlJ1YPAPL7+Cs29fcu65LzjzLLaa+WIBufxpnGIgNkzg/BEHgidliOfquVxfeu7L3vq2t/36ay/5vbf8/hVv+6P+Kq/3Mg3AtrAV+VuSq9esfeOb3sSzULw6Ow4FHpmBPhrATXMiKUdngI0w+EXb1oY+VsE+tkZQvUYuY8Z9E4dvuUyZVVAg6kracCBJGaZZmKtQ+omaFzwlI9AVDgtQs0tU/fz87gPLy3Yd4v4nK/SQ5JK4FjySkg6M6Po1lWrm6zieBA2lVweHjjz66JOffwrfn+gfGDjtjBesXreunyOVFywcWrjoxJNO5uPpPBmCcocWLmRpsurQQ9euW8fN32UHHHjIylUbTj559Zo1eoKqr7Ly0MMGFyxgDD145Urm1bjDNWvXsbW2ZOlSDkamCMbA39HHHnvZm9989ec+f9VHP8rxJc878cTzXv5yTJPaTz7llFNPOwPjJnkSPJ122pKl+3NK/br1648+9rj9+fRAdeCA5Sv4bAvjIqeKDy5cyIc9mN1T+9Kl+z/vxA2nPP8ULHvBgoXLVxyEQTPJYu3DZrWG2m4+Kak0KSdBsmpEUSlpc5NgiI6cro4zT9d5neeJZ5lTHAG8OyVJkJB4VjXCNcNyuGO6Eh05QTySkimXUWzz5ofWH3UkHm7FwQexXNi2bRt7JdxLeO9738t8nw22D/3jP972/ds4Kv70007Dxg5Yvtw900vPfenJp5xMM1999dXfuOaaD3zgA//wwX/YunUbp5X904c+dNLJJ1922WUclfzQww+9/6/fPzw6QlkEYHPu5ptv5vgSbJF7D3/253+Os1x24AHvfMc72brj8xvcveDgWA6hx6bPPPss+g03bTnoiRXx3/zN33BE7rXf/vbGTZv+9m/+lg8HHHPM0Sccd/w//sMH//hP/oQ9F3atb7j+hq99/escZv/Rj36UnUJuk1z1L1fdc8/d9nSoaTYJb+oghcbc8wGgW3ZqySG/2Ou8WV7wX5NIx/ATPRw6ctUlCyPpkGxh5bZsOOSAlugAQssc6fDkU09ydCs7INw82L5jB7Mxpk1nnHEGtwG4ncXu7tvf/vYtj25hP5aGZ9/uIx+5ilkevZ69iff99V9z4/WFL3whmx3cxYcmgxy1YMGcv8mxed/+1rdZgTKJJIuHYNhVPnz14ddffz0O6KAVK7hvxm4It79u+e53b/3e99jQOeywQ9lYwSLZUeLpVA4s40AtTkzjEQdu6fJNAY4/42BkHCo3QlavWY19s8XMxOSmm27avmM7HhQ0zqTnriNHlXFiCyb7yKOPaKKibTe5LunK+jCqQJkoAYgH4tKbjcUpEorwI7+gdsoiKCkAcGVh2lREhKC0hVAqJuf22zPLQ1RnKPEB8wA9aRFpCqDmHkFezU4sS1gp4voCkhTn2oQ+OFzTYEEZsrwK4AqFotrmkUc4Ip0NPO7r03KAuTdP45GFNXAfjZ02SO3YuROboDmd4KNbtjDdBw1ro4jfxvAsthT4ogF3SzEFdvq+f9ttfJGHpQFttGnTpmOPPe6b3/wmtzS4cXLUUUdT409/+pP169dzc4VbdpLL+IQ4ThfD5S4c9HmwYPPmzVw5upksjHLt2rXsRLK5iGNmn5KbE/hRFu98guauu370ohe9mDhn7rIziruFSZ/mufh+dUUlTTrzrkYQpJ5kqSluELIIFKSFbKmTmgNYNLmIwy/ZkFOe0cnyMMP4PpjnZTlJOpFgriY3HRfAIejLk0kqkB3oqvSy2i6LZud1YOYsUSF96y23vPQlL+EIRLZwURvk7rn77hOf97znn3TyKy+88Gc/+9mTjz8B/JTnP5+DDdk4Rtckzz7zzDWrV5991lmc+cUGx+jw8IYTNzzvhBMOO/RQ9vhe/KIXYbLfufnmQ1eu4hBZ9rfQHfAv/p8vrl93xOtf93pOm+QM5//r7LPZzly3dh04t373Vp6BXjA4hCBsjDD4QpYT7tkQZjTHiXIULh8zYOl62imn3vb971OKDWd6worly9l/RoqVhxyCsWIzd975A1bOZ5x+xi3fvQUHjO5aLih1b9RnfQa7TEoHRu0EIK59xaO5ODybZd1E/iKiBHtNBHsV6dk9jCQDnMVnVXBx0bJ1D2M7j9A9y/e+CNKDRPJSKeI58mnst5r6yCLOlSRX1x1oLSVGOkAIC4YWYAE8E8WTLDiP+++7j9a95+57nv75U7T9FZdfzlbaX77nPdufew7/8aY3vhH3g+O58/bb8UVY7Zvf/GZ24P7t3/6V7wsw+JLcf+lSjrb90Q9/xD0PpnSvec1rrr/u+uuuu27CNuqQFGO6447bL3jFKy679NJTTzmFI5T/8xOf2LJly+mnnvrbv/PbmzZufGjz5se2bePI4gsvvIBNO2zupS85561XXMGI/+n/+i8cGGshNpk5lezAA5b94I47qQiy3GhhOvitb34T+XmehYejjli7jrssn7v6atY1qCTu8Zkqpc6wa+XqMkAwmqRe79iexRV4uqI6ClqWXAIjO/MTd9hSuzYoFdjiIXhByqfiVnB2l1Zbzq7cZNhIUChwoxMfgm74h42gEm4IcC/rD//wcm4+iWEJEwJiIBKJII8Nsm52DsfuhG8hoUkdsa87IUfgyjoU89KtfR5qt4NjueKH2E7DtrSFpqP1OJ2uwXJEJmyBXGzIHAwPGYyxRcxpfPDPjjRJMambBxDQkaDaN9ZLYpLMW95aRZ/Q8LsXkDRx1GawRzHGU6rATePhMCb8HyxBgW0meEBe/DcDMbyRBEs7jBU2q/kCm5p7zdq1b3vrWz/9X5/mhl7ohDCkqV4I1EKlOU0CcY2BZFJSQqOkawygRwBCzHUuhhoNHpCxexiHwQncAvN7GENDeixHBY1OFDOQmdVP9EmzKjQtsnTSBckVgY2l3CR8zJL6Wmoyc4QSunAlOT44ruJcHbJ21ptMgIoFztDUly0YalklTNT45CFwLJLkIDcq7LF1VeYmwms4tmhA0W5nMj69B6l3Mqga26UDUClmRxHMjnENG3YKQHAYlLUWFE2SmJpaFvo6YFTvsOEmqR1rxgr27NrlWbwIDII4597J6BiiksSfQQqvXO3XNyYRiifwWLWwNNH2NQpBRnukGQ2oPoItLIJCzOCAeS5sE4jDA2bkOvRrwI9TZ9EJ1qyiyUYDWk9/erbCyHElAXIgkpLMDIuoZiqhI/oAYZlSlnc+9TbTCHBaDihZQAjWxkL3GoB4RCYNWXaLuZeLjvkgJ/uxMkf7rqtus+pGE+UYyzVHhBnd8+VJDX36GudCRTIaTd7lpYirUlswujH5WMO9BN3bNSvBnIljH56Fb4AOLe1XIjgtmYVtN8q3UKrEXRVZKj6UWri77cK6HHQPENTweESUUNCJ5yyN4VyPutiT8ahI1iQ7MedqCvBkUqari6s0ZWgoyuNBXe0/yoK3qExoi2pUbTtuD1I9szzJJm1ZgH0EEEC/eAc6GmL5JgBYgpoFgI2NeMMARGvok8bwODqjScBheuQacExXN9ajcbO//4ADD7jwla9kxoaX2rF954033sh6Ez+39oj1fLKCBSnPrbBFBymIwxH7KTwx/+1rvw1lnshgu/ehhzazi7Fjx87D16w9//zzqJ0l8Be/8EVu8mK12BBPCB98yCFjoxp2Sd5404233HIrzS7ThGugFrBCvjXARxYPOuhg90k8sffZq6+mXr578cjDj7KDyFTk7nvuYW95nCEV34ahy5rkm1EA4xodhRj6pGrJbmMuDhe3yx644BThmMBy6agj12/dunXnjp19RWYROp0XP6zVEu+ZcJ8DNZmVQ4RAQa5i2MYQT2bhSEDDACewVa5Rl/ak4tiqIDs+mB5PEU/O6io+ehWC2bX6SeAvcU5PZc6CfjM1qsUQLwVUAxrB4WAqi+HTIjZUGK4eIdHBxbgfXtg5bPXhPGn8vdtuYy71O//jUm4z8GT5le961yNbtnzu859/8Tnn8OgyrcX9A5D/6n3ve8UFF2AwvIHxziuv3PzQ5rNf+MJzX3Ye1sBbQnzqbgQLM18ol2LhJz/5Kd//5FvO3NL4zne/88gjj1I1jw0v3X///Zbsp1a3ORw3GeDn+ONP4PNX7LzccOONP77nbj6t8fo3/MYFr3oVWyQ8TH/UMcewvYyQIPNoDLdXDmGxfMCBtDrNTRV0lYULFzHj5J4FtyvYICSOWsbHJ7jFzHdsoUNxru993/s4lpl3oLASqNEPQZN2zFPhI7FRNOnWZlqTYan7uVYdZFeALinqlsZRuJmXt2loWbPdTNvtVbRnPm+GXDjzXPnXboKS1zXiKgiKiHSjFaMR9KAUOnUlEqff88guX4x96omnLrnkdQcsO2A3m2GDQ7wbsXnzZjaQeYwUo2def+mll2El7L1RHY13110/3rz5IVyUukShcNZZZz788CO8BMk7Dbjeqs3n2DfmVQz82cqVK2ldnmtn45etlldedBHPKvPY5uf++7O8uQPDjLm0Nk2N0737nrvhk51t1g18coOniG++4Sbmbbx/hPmxQfhP//Qh7Ob881++bu1aTPDmm2/i8UE+pUK32bNnNyvrY485Vsa9dCkPMFPp2WefxZYehoSk11577YWvupANy+c//xQWy2hgfHyMnWpOlkGxzDdRkqtTc2SzKlevx1Gd6xWeHe7aJu5J5fbUzry67DXrfrLweYkz3jHy2tgigSWaeRWvzIXn6kkQ6KwE14XBU98zXI0aAvN/zerVv/Vbv8WdJd6Luf/++3h5h7kRw9zZZ5/9jne8g3cmsCRIsb3MqMcHg5iTUfXWrVuOOurIiy9+DTc2nnjiSVyOHlcZG2MTmP0U/AvtJDbsLXGNYjbFlEX29+Md+bDY5z/3+f0WLfqN17+eLAKcM6QvWryIzZe3/6+3/9Efve2CV1zAl7G4fbJp44NYJ7S4fuUrX+FZeZ6aZs8ZBrAktpxgcumSpeuPXM9LSby9gZ/DQG+88SZ6ztlnv5Avl3EDjZsoCIJQfByGLWVWx/41NvhkDoBEzoZUplFC/DBn5SreMt7O1KeLq9qvKptJt+Vl4L2K7mufZ3ybHhST6NJQnF64VFJBUoIpCQtDm4atObqjYUlMffyROKZT13zjmv7+6pve+CYacteuXWvWrPnxj+/i+V7eorjoolfzGbSPfOQjF73qIu6x8sA6e8J8oPZFL3oR07UvfvELp516GkCeIv6zP/tznqGnLj6/vmLFQTues91Hpkdmf9irGlgOZpwHg7nxxffT2D5802++CT/Kpgy7LVgMRs/NVjrARL22Z88wy4Kd27eP7B5++ml9lxt3SCm2ixlH8YQ4toMPOpjxGp656Yf1YFJbtmzlgStuEHMvhPkrMwTcLbdhzjrrbBTDS8HoZ+PGjbhebqVIA5w9j47smWQph2zTrGaN1oG5OgIRAig5s0sQN76EJmrzE/ap5Zk8OS8rPSQtEBGO6SULxK+hzexq2ZSnjUN5RT1KObx502ZeRz1y3frzzzufVlm1atXv/d5b3va2t27dsvXrX/vaB//xgzT8DTfewIDLM/TcP1hx4Ao+Hcv38vgE3vb124879lhczl/87//97ne/G7eHAWnAghNaNPaNiTEGTzu4vdHgMVJWKmxuYRN4Na1t+biKnQ3PSPr4448xauN4MFbcPMyzd4h10mvUc4oFXuxgww4rZ9z85Kc+xbeseESFj8JTF+/zYjG8BQcmtqWHk8vl57Y/R/I9f/EejkngTTYWFvBGX8TmWFe5rqAbItY5Ndtz5QK1kEyIVIp7xJomFAcCgjQ8n6GXlqd2cl6tV3Vl24ZaGZ+aUyswYZmxtezP0y48Iy4Z1lpukxHNqqA1QRgZGeXuJxRp/q9fw2Mdv7Nu3drbb7+dm2PvfOc7yMK1/MuHP4w1/Pu//zvEeAFnbOzVd9xx289//uTll1/Ox67xW9ffcD1JZlo8mcLt3fvuvZehjfGXSRtVMkvA2wHHFGAYe7rpxpu4RfHWt16xZvWaq666CkzaDTRskW7AK49nnnkmRst7SYyt3DHjM+OMpHyPefeu3ayN+Cge51o88MADb/rN3/yDP/h9vB3s3XXXD5999mm2CelpfHJ8584dSIkhcv+D3K985cvvfvefbtm6dWhw8FOf+hQmOTw8whuZ3FFhiEd2bW5bP5HqYmBu0GZnlnCFS/UxJIgjc1Vvz4XJmzWHOJNky8xngj0FDs4c3+N8c89Tk1ytq8QsGxyMVg89tOly7mFs2hQNjqpduFZBL+50IIg6PJ7gooZyTbNcsQbuNPCyIE8csQ+CCbJQ4F0vlhe8soV74zFhRlvWGXwvDwMS/ywsBodYJGJY8McQxjjLkoKHDHh/gjsWJLEeHm1CCr3p4C9E2nqQOSK146i4PQNvBx98yKpVK7kJxs0xCMMqgymOjef5mKsxQUUEmH344YeoiM/z4aighinQGaiFR1oYl2GA+RxDLVaILKtWriSOUTLIwj8TRNa2UOO1OkRbt+4IZqKbN296+ulnMFC+90eNOHhVYxMS2JCu8IXxiKOWO/ANefgmSBFShf9KMzbhIUlxuOVj9Fdc8VY6FQx7FmzD+uAQ31zS90W8SCg+p599anlXXH5Fsjy3AkyP8cc5l8rQBn/xUR+SCOmKQgWms8BwilPGfSJLSoB0esyVguDbSMdOLPvGZNnLzFYH7eRmoReUZMRaFoAhJ8xHw+KmA0bCVzSgQyFVZ1zxK+LWzbxJcIpCUDuqn5BFC2lVAindTWHQprjSNB4sga821Ff2dEgja1Xuxmm32eZkYDpL1GL2IFMQe3BWKuP/uHtFEmRIQQWmqRSa9BNslDmfFWwdV+9JrjCA4ERkN5kAfVISwQIREPaB5bUxkeFnjlGYdzFcnjwVZUrIVuh06dY1QZNCbVcPfaFiFbGyWZrAIcc+M3MddjOYhMl0rHdyVworpEkINC0jIO6LsrDAypRqwaSdSKpNrcezFKAuIIxckNWtBfv4ttsW9cMPV8lot1UohgUwD6Ne4FCj+SlLjZQ1xpj4iTGqhghMUgAE7lIwYlKKupQrj6X9WvwWbxXVYHeCxQl2y0624qCRZMoHBdBSKZJwziMO1EJgekpSMpo4sISFurq8Xbh6hKykxgT0grDtwTETWs8jvZznTcscWuGvJXTXAtauIQcFuWKsm0qpMUh3Ntq6XYJF63krMhzQaCjdAyWAYDRuvmDSnBgHEAJxbudjILpRy6OedvsVfMrqJq/ucclPQJn6ZJHmuiBiW32qEb8oezW3BlEiMhk7jBHC2CJjN5QxIGjKz9lHZoF7LdRLBApOhA0/RdgTYSyQZ7UddfSGb7QHdsCHrGXpLTuzcn1EGKAEjPrRr+m6DWJGCYdwkkUUrgUi6A0frlQOo9fJHvu86dgL4rQLLmDSBQmXGggjl42eeluRxmBIQ2E5nYEGPnqX67KBTw1Ay9hX0ZwypkDDA3H2wKcUNkeSgpQjSYQr7epxx6RpiTjTguPAzLa4Qs0rkn8yU4MOyMBhg4i4seAIXgRMxyHp8dTEGCVAaMrF8iKa7tjq0QEQGFIxQCjLbcMHVdjw7WWphN0cwES4ij5XFdIfEAcC90ApML0sEHIh7EniRFI8lpiX331seZLTBgGpUe1qKnLJyEgiuvxcBbIyaFG5MkyzTVMrRGgt0Ggw11dAYWir6MVHz1VBNzJrCTApyPAkHqxSjMCB3iS+dUJFLDCohwg8i37wQ2pgAsT9CikilKUWImB6HJsjQi4QqsC3gQCEeoEIM4iiuOzYiIgZmwNQHSqSCqie575sIsFyHvMXxDqSSEHRbA6aImtENSJINP06V1xTUF7UtvNAlkMCEWukhB8jwo3xvf3t2WiL8PCSlcdvcwEhy3ow/QwcROO/bo1bc/rLzy6vGgCoMBzPCKoH84dObeBjRJOirfEc05EpS5I6KEqcaRJtwJQKXTmadvPbG9sLuh2AgyUBUYua6RChLtpN5mmeDD5AcBzwPXjS2564RyhBHASulBXcljhAyPJcN32yqAhjUi0WrJRVpG+4SXb1OlbKxNGkni4Q1GQVC2I4E9ipUhkeeDHBKeVyucZAxMS5wqcKe3H3eRaXcgsMMhrv9YcExpWqtChFUm3kZJMJPpNIzywvVGYmYqyFRhJcPsPypRJFJBz/1B5a2Tr3iGFIjmDO2KiRdgU5moqZATm+X5P8MWLtFHUEDqQpSK7XbBym2hRJ1IiARnM6hDLkaiR10kAz6k6wNloxQa6I2GSV6iGpZo3BKMWWoxZLe2ZLEZaGBOoSKfg0CPwkDh2uLDo5dIxh4q5hh4tPg5MkTgCBQFL+IH63DTj5MmWRIhOuDUlRQqfaHD6Xa68tL/KATDCtlC4mkUURLSuK0EwjroWEivBIKW+XCTlMU11suYimFgqtIz1RJFEmbeoHBo78hBP0olKqceJAvzLwua0kUmI4Nj8lIJ4l4qTS1Tn0ImLMgtWj2rKRXNwyW5eAHQFKGqtUjwnCAIQ90+uyfCuU4DGiLEe1q5iP+ieupGRyJ5pFzJTpUbTVBXtEMJCJSsYK+JdtHolnuVKWule34EKbIoKmgPgAAbormlwgWaAmjsoWhv4syN4MgrkZWYadUGmKiJ9I1ksJkGHbh0KyxJI1FXFngytAwS2QhCxXgkPSNeBkslIpxxGVSCeVUiQDd7pcETzHSSrrOlHSCuY5iQO045MLw4aYtO5Wkee/jaW9TsyLz2tjWabnATeu58VNYEnqUNcLyZaCiMVc4Xjcrlm0RCEBzdyoTVUq10yNajA0MwPBGYSwC4zWq7OqAieBy9gxoMCkB6BjGsEOa/Iy8eqYiY4iKuYXraMBSBvW2Mo02SjlwdGJE5k6gMPUUGt/F8yussVYlxe3ygP/QBzZ7ZI4AQQFSlnZaIIqTa4TmafrvFgeXCfWiVnD6gKYPzOhljguP2nTgOBe2DGS/L6QdGSuHryUFwzFVdh16QRCCnwxorplf7gL0gCFqpimO86olgJhX0Jv/QSyRky0uwUj3srwIgI6TXyMJNcH2bhSjabuBgEgHOL22qXxZ8gtYh5TcVOjihNXUGGNA1yDIIIa5XiFE0JiL6EBdMyQBU7L7ckFEozYPF56bXkmkmmTi8TTJVobcetwQXWITXDVACfugnrBXDzlJmWgHdc9kFBcDRT6sZpTQe0KQQVLkc/y0N/psHw1pDYLrWllIjYXkM3JAK2K6AVVY6SksjE4b9ksILYIpdLQ8KTd0WrxWGTJLFujCDSxdW67sGsNq2wdh2FBJkZZ1YgkJozZnM38AXFXQ+xZgBHshQqco8SPJ0Eh0sI0zZCEERW0IC25S47+2MvqSvGgzBZs72Oquych9RKX0LQqqSS2aYKI8a8GcJmp15GJGEq4Cm5/zphpRpfU8A4R5ag+srQNhgH5IwV29Y0xWgghKQIy9qRdhr4yoz7mxn9mhmpBvbXAMWeaKEKBbRWObNJSFIpiVlqiOiJetajFABx/TJbL4sgmAPhYeBCFBJJDn60h6rKKPMlrmv3yMPDDjp04LOhqnOjsSN0+QS7VI+nYY5RRw434oRzMkCfp4uDrnHhWlmFn0pnnin4IXhxajg8f3NIxzgEoSADo9zqovn0WTABzKZmW89qTslCkNAjUPI1r03O5uh49iR5p7aRuiqklrA04OY+n4dgw414AN+OZD2mOZSoEgSQNZTWo+fyOlqhZwDr1WyzyygVxApgAWo1k1XtxokTU+NlgebaBrJdFtBUnS9J+HBZKldr3tm0RuAKNs114Yh5BqAUyuk+il9OC6Tucing2EGT0IvbMSatqMwtyBYrXwFUmlyh0CNA3cNvFgZSyoCzx2wWxrdReJno92k7HTpI8G0FgL0cE+GRJx0lqQtd+E5MnNHkOFMvgQSm+I4Bh9Veqa9eu5XyJzZs38wQUTYmnoJUXLl7Is3o817Rrxy6/wYARQAcEjjLhMWCeNeeOqgyF86CWLBke3s0TStxn48kluOLkZPB5Sipx0lUKjBsXTCtD5NjjjuNdCqomcfdd9+CZsR6e0eIJqEcffZSn/ZCcext+KxmycMV9XmSBB/dqwV7s82jWIdUNCLJpH4Sdm+iZnCWuHgEz5odfBCEkoMepBQhFLNMvCWVeIvvU8lxI18hk0kglppes4qQRK+DApCyeHEZlvEVx3nnnYWRHrD/iO7fcwmcwXve613EiybNPc6DEhZ/97Gf5eAHugJcjL/vd32U6tXDBor98z19wb42HU6gL34bh8l4jz4jwZZUrr3wnXyJYvXbNv37sY298w29wogWP0/HVCqyTb1HceOONyfKMU/Eq9ugzFvErpobx4Vg5K42HQzlHG6kefGAjB6PwcDJsc/j1l770JZ4jxJNRZP8DlnFWOE+e8uIZBodLxsT9kQKeu0bGgSEdBcSLTnzI4NyXnsvrt48/ttUZyOrE4wlChLLwZiSlwoRAxOOApHBzcYKY8k3Z83vZp5YXRFVPRRutoTNpJMkaMQUQqmZILV+Y8N1vcZv1uuuu++pXv8rZtFf+8bsee+JxHp/8wN//PUQ4awfnY/6jxAuzjz/x+NWf+9yV77xyw8knbdy4CR+2ceNGDp2GoS99+cubNm36q7/8q0N0TmM/X1TjOU1anQc2eaiTx0t5hp625ys83kjeQ2CMRtWkTLNDKiQowWObOFK8Ho82cQYPbyQxymLrG07awGtvGNyRRx91UfHVnFt14w038DUiXpajH3B0Gk+Mciw9zhvLI8JzoyBwFtsLzngB01P6AHZ/zHHH8jGWxx/f5r1ROkrWbwYEV0D8ivtUdrQnB8IlEQIR5ZJvg3WESIyY4/m9v+ZdcU9ryGomEO4USApwb+Gymo40nJguvBhxK8isW8GAujJOolmWA/6gJc8kP/3MszgwHvclm2eMH8C+Nm/G92AKNCevCF1yySUHHHggX5/ibYbTTz/jLb//+7/22l978udPbX7ooQtf+aqnn33m8SefePkFryBJe/NaJKbG48FLli556UtfyhvjuCVvJJqOKmBGw6p4Ej+SxaZh/gOAGnnhcsOGk4457jgMcdvjj/PmB4/0YX3fveUWDgA97oQTeBeYueAR69efdvppvILOGx58T4vk1m3bOPbqvPPP5/tVRx1zNK/fXnrZZUwMeV0DIrE69BX1LBYUjBl4grGw+FXCAj+O03mVFArKcRk7cXoI6bHPQ+POu9TBMcA6QsT2BSSwGgs96T8hCKm2IsrVYUo7EXRgzUguTyExI+dtf6jU6qNk2KjAQ7kQ5/E4moNj/AsLFg7yBb1bvnsrn2/s76vWS40XnP4CrPPWW2+ZGBsZ2TN6910/eW779pM2nLJ129af3nNfX7m6eL8Kz1zyhOXFF7+uWez7p6v+ZWiounrd6sULF69ctfK1r3/dhz/84Ye3bjvtBS84fsOJ//HJTzb77J49bcsJLU1WLTwjo20R5nX0A0TQsxGaODKxK/SV+kb2jNx5x50PP/Sw9vAKxR07dzG84mW3bN327HPb+cb9fkuW7ty1+6c/u/fRLVt52eLQw1ZveXTbjud27tk1/MzTz/Jg6Cmnnj44sHDb1sfvve+BRx7dunsPXwca2zMyyjQQDWlJ1dR2TL1Z47EWjlzm6wWwxCkuMjJ+Szp5iEDv1Y8pHg173JNomLkEcR+U1TIU0dofnqlBZQzfmi82FpAsHUOYxaXHluc1G+ORCdmI3EOwNRM5cBytDfysDFIZWZZLR6UkGqE1cWz4F1QhhegBosbg4KLhkdGBwQWveMUrNpy84Ygj1n7t61+98/Y7Tjnp5Pe+9728xcOZip/65CcZNFlA8JzwOeecgx/gM1F33n5bsdnPGyK7d+4amxh+2csueOWFr3xg48P/97v/9L8/+2mu5WL5Pz7+75/4xCdoMF72+dd/++iXvvRF3jHTLp9qlx1hefYjdrU5pz4Fo7qwQmCex3yOjx287pJLGFWr1YFP//dnBqr9xx17DG/BgYMb5ssWD23exPWM00/jCzCMtnrqmJNPx0aHBgZ4f6XKEfITEw8/tJlXijhugNNF+Z7b/kuXrFu79snHt6ID2ZaHJhvgMKU3MOio6vcoqC4WyZf6M6GtgRyObVkzgSpXaRiAIAgBd6ImeIbK3kVbI/3e0dGi3XsVPDMkYSLaFyrrcSYoc330EU4x+8MHN26kM3ldCKaI+lObz3NDRF9ECKBotNX0SSooVxjgdDg/HZU5DBtvnAixauUq9s74wNDWrVtQPxsTTM5Wrlx5z4/vxpGwscJL/KwkeDlo7bq1P/jBnbWx4cY4p05hjXxYtrFg4ZIDDzysWK4WSqOPPPLQ2PAo9rN69WrOhWUdwpkca9eu3rJlC9NKVat2EVM88scjfDgYnjpSjzALoLm1caJW1EN1qw5dhdGDDWTzxk0MvmvXrHns8ceYCezezQu2i3jBjJUEJ9ryyvD99z/ADHVkzzAzV14XZ82BhjhIgC9d8d4an87iU0eaIx65Hjbue/CneLoSp6yIDWpkF1B/5b5+Vk6AyiUevmeDkOeoxa6CmZf9RoiB/eIK9yuvnfMG0OrVa2hWIFx5HpvHzDjFDG7V0JFUhsDsovNoedgET21Gy9P5ebxiuHHTJjc4sylZnrkNMW0JXdza2iF4fh7ZpYFpZXYc7I0KbbEygdNRNxTi4zl6L6Fgtt4s8Aogr16zhcFEkLh2KTBJe9mnqIFlotQcLNQ46Gx0fHy43MeZcIN8AaBSbbCuqJT76UnGIS84UlZPrDDtRPk8lUwzOIdyJSLqYxAdypi3Wwm4Pl7zkQPjtXBOl9JXDPR9SlpRrkXPIGnUJoF/Yq4AGnzCLcYKMnGzVXFBlqnGf2TzFKeuOqOqzJ8ZDXbAP6HxBKJgvIFZL/QVeWmDGiYKfMfSrEcFLchuPEgGBc9K11e/+tV8xHD1fFrevIy2LkzUlwsWxMMQUVtAsB+XlijKCGowRSjTxi4QFIqlsYmRYpl5layAZuPj2XR1bIbv5NAn+wf7Rof39PPiMzsaeEV9tQJL5angwniNb+uwN08pXJOGqEaRo+zoGpXh8ZFqlRZq1BrjnOI0OjHGsVWU1h0H2rDMzJKHfnnjekQEeE9Mrl03uLAZ3QFp8J4RPgVksciFKnAxDHkMuWyTMOCyCU1epb803uCzv/oiFy5NfrGML8Fr6bBHFra8xTRe47z5PiZoyIUuMFn6LqaPrZstUtptt6ATo2BIhiQzQ2HqDxiavgteHh+tV4qDQsYZm05hwNTphpd8oHRMEBW7OprB5v0yn5ZnzKtBQsdCeryOaSJI63GpI8lMxONeyuOF8kRfdWxocGLlocuq/Qts0aKbnzQYleCN6g2d8FAdHNw1Okpb0Qz27Lg/kMz9ALwcTrGGGTFYyGSLI6XGguLEwv7K/sPDO2nfSmXh8DAHtOPSaoUGK4bxqt7yL6tUs4Y188ZarTbO47p6ar0wgVMrlMeajSrH5+Fl1MpIIwnVxmBYpfJkiKD5ab2+cAHnJI+Ryy0KILhP6QMbLJWYiaIS2RkP8fO9XfuyPAg2xDHcI5M+78Zwz81A7JLpY22c7sTign4sndIj1EmYQdQKd//ovmZhKS4caKUyIL1bK8SGkKkFxVobZS/APWSB8xGfF8szCb0JiJp56SIlW8ogah7riO1iudjq2oYacEqF0fGRpSuGjjlu9dgofZrVbFW+RF2abbMaboiNWxzSkgP79fIErSjXotMUoWDbfkyAaBu5h0p/YWi/wq7tzcbIgmJzdNnypdr1LfQvK1RsrcrIJK/KTYJieQAfqWV1sY/bGAsWLLUzHXmdolbun1iwuDC8pzQ+qmP8MCYzAJdaHQvHxh08RDWQHrjiW3pc6RXsZttoi5XAuT3CIr60wJSf0wGS1mdsgoZHtIklGHqZQyM4FsV7cVYE+gyukKOTkF8dgvPyPff8xFw2E0BNyPChQY2u1ThRdSDqJ5K07REHtrdMj1M9s7zAcUYGNG56F8eYggcZmwYJe5gbW6TB9NAeUGFwBUJScNOITJVloDZoFnMPttHsv+brNzTqA8UC78wyZlGwz9Q7zsYLH97Rcs6pUYlXSrMUC2OjI339FNfQeOiag49/wdobrr11fNcQltdHy9a5E8VHycqNAu/pVBvypEAYglnjqv5iQR8fg+tysQobzdL44qV9Z7zwmB/94JGntg1XWEJKRGtlZhMuSxJexqcskLABwBifbhZjAfhCArVJRUF2XvpFfLRBPopiF0aHeIg4kwdNDU05xWatn6Faa7gCB6/orMVi3/iqw/fbcNIJ3Jdp1ipya8xDdHiXU1N1sRW8TnGlqqML9Fw4IUS+LOEXEUwjWMChSAZjFtGeWV7XOoN8EkOzEP7QASMMKkBcvATKECQoPwjDj0N0NZVjq5pPkzInV2JDpMmaAMPDwfFYANOy/gENl6N4CG1NoSANwjJi9rlgg4FMFTfrRJjFlRulvjqRftpNawbWiPpYIqvYwfHhWrHJF4QYsmvlZoV3whjqmDkNVobYhcFmmLNhjn31IhgQKfFlU7g08WgEjaDwrwW9gjeMNQ4rT03HAILB5yf5rdo3t729pSGtKwpV83xwj2ecGJtY2LcIZNek9CYdyt/xgpP6dshgccG3IZEW588fu4l0KiiqfreNwIklPC71WiDpfcAZtt4QshxhPq7za3mmZJkRMtrVLUlxDA6VSOB2sdBCwKRwVI3cAbMj2yDVBgZ2pUfs2LPFYxYHqgv47mazXh6oLLDpvHwDC4jaeJ1pO+Q0/trCktoAVnCO2pIplLEbplvGGjajXlAoVQvYdF9hYrSJpzWTxfcNlqqNcR1VUSlxO1/jGquYEqbZoBj7GvAjrk0m89lAJF/sVBJSvY9P/oKGwyNLozm7b0VOINCru9qCQh48Yp1ehfMuNCfqQ31DGCvrYqYNGCxqA0FktW/H+hU1xmrx/dricb0iSMWT3gSU8mDYwUtBJ4JFkzi5XIl7SLnzEZlvy4s8m4wIpoBoBo7i5WzPNOuIpgtDk91hVYXmaLMxVmzSoXnMjj81Qm1i+JJLLv75k7uvu/b6Srlx3svO45Cl279/20A/A7E2dYs6Zk/Hrg9VOU+43s88rjBeKtRKBR7dY8JEqGvl26jztZNXvOKVV131bxjASRued975F/3DP/wdq4Pxkd18Am94eHu9xlYf93nxTuPF4gj2gy8tM6vHbNVsMAlrkhAjRkoktdbUBcNef+TaN7/59zibh2kod4Q//vGPsz+HgG/+vUs5FZR7ZRjl//qjP2IHm92+N//uH3DOFceWfehDH+IJGpEzd6lRQjFcH2arrW1qkRvE8gpjHOhdLO0plIZZUxWINDgIPxxzJn6sMyCwz2dEMoaUFQEdv2o3b7qOrNkDTJzZF5tVCTMddUbv06Y0CaANCIA2pSNpxqa5DxGSktKC1cXQgZGAxH8K8N13vgvA7I0zTfg0Rf9DmzafcfrpAwNDBx5yyBHHHP3YU09yps3ao4588bnncqjECFO0Sh++aZwZHfdwocLQrfaj7fjOIu6vwEc+If3o1seGFi1Zf+QxrEcufPWrv3fbHbY92+wfGOKeFatc9mnV3LZFxmoSOkydtMeIQ8Z2ywWmhJgzA3ZNO8xclVRuqUjt/QsW3Lvxwff93d+980//pG9w4PiTNvA4HrmLl+1f7MefVi954xtedfFrBjiklq/ZH3zQ9+68/Zprvz08MQbboNmf7Ev7dvQWbEuOj0WtZhcoTKozPVqHQsU+ckqfHly3xA2rBRzEo0sAAEAASURBVEfTEaWVlZA9q4WRUPciso98no082JgMHeUQYZzV9Co8CiAJXHiUQYQ8rp6ruHbhGDcZUJhR85WLfuLs5dGgDbbcas3777v/1y5+06rDDh9atpDDzLY8/fPzX/OaI9cfxeMez42O3Xb793fv2cUxwhP1cbYu+MAKMz1m5/USB5roJkS9yYKR/VYG3OKdP7rn6BNO3DW+c8Wqw7//g48x5eO7zBMc2U3TlqsT3KRiLlWkLB88YGelxErE52TwHVrdIqFRvLmsiXk8lSdYVq5Z99ILLmRz+5ndezZve2xc/bEIvDgweOaLz1mw/7KNjz7K5s3+Bxz45PbtfL15w+mn3ffQZu7yoRA3BSmzwI4dPQUjJI5VM+Lz+V2OEWJQRjn4ORZhlBhnQG7ZV1QyGcm+XM+CmDl6xK9BBP8xhDbI3iV67POyQuJVtFuqZSxg5GfbXWaHVNIgXkxfK6CzMlnxrVPFbY9BEy4iymL+xW9xolHew5Zpo1nlhlCtMQYqiwm2f9l5ZVa3Z7h5/U3X//qvv+r4o9Y//vDDE3uGf/bjux564L5tj2ze/MC9hYmxAajUxtmTrdA+bGtoDKoV+3aUKxwgNVEqVphvsfTsK05sefT+5QcuePWrXvXtb35roNr8H7/9W+96x/+zZPEysdvYw4FV3ECW04TTRpXFRV9pjBiby/rTCkMTxpSkZ3OnBRUwFg9V+9knfPbnT/7krh8ddcS6kV07n37i8SWcUMsjVY36oQcf9GuvuWjliuX777ffy15yzrZHHvk/V3/22m9+85AVK9avWYMeoMAeif+hET66VihW6nq6vlyjP5TH6wUWWOic24u4xB2wisez4RH9S+HBujTYaLLMn+CepJGghAj0d5rIbhm5MZpDtSFo70wtV7rHlpeooxotXU00uXy6Jwai05n0XBMTaq4LFgxpo9VHBLlAMEwpimCc+p+0g5LZL7EznPgCto54YruB24g17k9oalW55dZbjjv+6BedeebdP/xhbWxs0wP3P3j/fT/+4Q+ffGwbX9NhQsi6gLOi8Azs/JYwGlxZgTNAd3HcDwZvOyjaG3to8/2DA+UXnn3W9dddv3PH0zwf+r6/+tvdu/aweVut8mwzJ9aO1DnWE4/XZBsZYUbwvGoeHKaubH4oSSta0i1GtcMVtz85e3nzxgff/7738oG/U04++W1X/OGaww9befBB27Y8etWHP/zZz3x6946dmx548IzTTjv/3HMHKv08Gr1rxw67NatOyJ91VE0/VIMqY5+SaQNbgMwaUBs6rtjzFaOIK3QL4Uf9WX6SX4YU5fBj6xREYTXNhNLMsamPf4BJy/nVIql99z4yf6MtnDKUMTGihbWSRT7ugnPVrgd9t+TfJdP9/yCc3KEGYrq3pI3Cuchq4zoU2cdnfqXuC0VOxatUqkBQEN/I+8xnPjM+VuO0ZCbwNAgf2gMH46VGbJnubTwRZdnBKduQK/IwVaFuzaN7YphRnWeG+V7tz+59kJv6dAFudtV1eqxONi711SqVIfY9GJblrZm5N3iNo6rlinczkwT+rX2xAviUHNbSeP0m29EPPvgA/W5kZBff9eNjGHf9+Mdvectbvve979199z26QVwsfu1rX/3pT3/C8/E8Wf2ud13Jo8ucZwonUR+hDnRoSqUrYXamLYaXGjs/nLZWr9LF6I+hFLnixSlYRNScN8igePa9efqVryHweA0b4zwGy3ed5TAMTR7A1eckenGdN8uTZWhUNXHtfJ1m45wXv/jee+/DGDAiVEkH5leuUXqRaIgJWA0FJP6X+xC1crXCqdmsCwfrjG/SOnfW9S6WbVXwNkP1mmu+wTN8FMSsG3Xu2AoNRAjSGIzOqkAWxgyR273apwDf7oZ5Ed2zHxubuPuen9zzk/uoE5PFSqDPFY9XwNXaEXX0KPaWmVFBR2ttiUBFoUGokagcvTZbVCf/AVHqkUe2cHK3d7877riTlSye/tpvX8uxtdpqkfkWP/Wp/1JXadT/4z/+X0RADdKSIq0gBYm0uoTUZb/qzqxT+gbLJW70NXg6ELgwKedoiigm1qyUx9E+33XmqX10ytr/iPVH8hlf3hFRq5hUSEsxrj0M82V5ME2PM5EZJFFvnfuevA7D+dcPPPAgT3Wzo+sjr8STQnSVmbio7SKSx1x6yf59hxx0yKmn1Ovj/c2JaqnMaKIlaUn3FVhyspWPJ9NSV/vLdtAs9dLMBB6G4zNOMILaly7b76Dlq04/9ezxETahmamLFd3XrY8zTMEEMXoFQO7PsjHLhJ35E+OyCDd49LJKBxlaWDj0kBWN8f1WHcQuD0yrWZL1EdFkwRqdC/+AoAXkQxsYGYMaT+zhyMnCzkDmQWW+4wPDcG4vBFFCW0LwjBvu9HlsN0pV+H8mliwjNOSOH7h84aqVq8847Sw9uFPUvTuzNSqJNmR6FqtkRLWTRFp6FR2PNwROPvnk/Zct44MwfscFqVwStVDvgtxST6hBR+q2K8/nMZPTig+BbPWK4tA1noMhbJj+bcd60rR6gqgf65eKxImWGvgP04oaU9oXe/Q5ua7RwaHynl31SnkBt/7Z6mfUGqgOjo3izwYLxTH2iauDC7nLTqU62xWPQpNimuwE6t0z2R/VMPnBM9YYtZmkc4CYloT4PNaR5V27d/IEPDZDk2MWumNb4t48BsOdYhwYc6Aq99mwn4n67v7B2gTWXhpkjigm24PpVTpJlscDcxgfWEgqtVgGXQ1dYW3oivkvEjPYcVA4xc0i0Zw6LnpsJ4+icKNoDAk1t2TIZSbJnTQ+Tjo6zA1i1lSctot1quensqZk16lgIamGoz/IDVEpPJszRiFVtI+7RXtwxUilR10H2GmnZpkyxUMDpQpmHJkXy8PIYNSU6c8kSXewyN4b7MIbSVSvEVAvXeO0zNqmYZrZNP6fB4fYRkanDJv0a162AILPwwx3Dwz2j3KnQbqjXjUZdmHasUHZ9oq5H8/6gGc6mO2xE4Hx2dCJfuGKzRZ5JkpCgZ7Drg22SisyeafXaONFt3e5A8EDI8z++AAfiwx9WdK7rxoyBm8VF03x0LswX4ioOWVhVR2La5rRww3UDBYdkpbWM6tjo/Lfdp4VpSLh8CvnbAagvgURvB7LEG6qcW+7MjA+xnKB4Rvx0Tn5sbQshpKyY+cWIhKUvfVxnYMLnCtOl++9sCJ0PdAPeSyozfKMnjMfSc/ut8eWhzRISSfG+Oy5njD1hkUCGoqTBVcFmpqJzUkkeQjbSkYztA5tx7TYtlQtyW4DO7WYDdOvFGTkSeUOjUmtD5iHwh7bFOoNZvy0bkCwOY0NUroTq2dY1KjgMTvUAojm1ELSiqsVZxJMhDZEc+uhzpTrNtqJJ4TIPrnMWuXxjCe7p6K8qFZMEqHgHLWw5s0Ua6PbSjAXcD6SDzPe6DhSIp1Ezcd2xMIFrBgBOrxVfvaxTDvNvnDXEs4WV9OLDZRmdiDjRdCIaQiB+LW4RJs+qHm1X4ZCuELbfQDWIysUIWqUPmRFrkQjGnp7bE5+DcG6PnErKETjImIpaRgAtBOrH8OIRhbqo2pDtcKKTxla1COaIKpJKunMjVj6NabVXRIwrNW108KsFI2oL3Gf2RCkHzElV8tvq1Qqno8IrS2oTFCeapfblAMMzdtCNXgrOeNY7y2Pqp27IHZGalexePPmJxKHIQGnCqgQQmhWK1NGFnNCQNCJ5dhvXnky0Kz6zG5knpSnrDiT6UX9ttcvZ+JBNGR5XNw8tEwBpOUt97HUBxJuLDPTX+Mhgyy63akFTOPcC1Cv/J5BiCtpowGYzqF4ZnfRJc1U0i0qJagKD+iIZFKMKNp8SQrL2GjsM7HYbH7nxfJggNZVe7Sp0QXLXsVpEq/Fdla4AIUQGsTswsRJTa5gXsdisfGT+ojEZhIMS+HHsLRz41HDCSUjATWA/4ENEFNXExrQcYjrhp61tI+5gZwx0v1CGVEQnY5gVE0Plptp2g5UF0BGYVhOjlL2h7goSTAsjzvGUfwkWSe5CFHFGTRKSnbvl+SZ7njwh3lzLLG3v723PHUKC2hBy3KEkFgSDDC/sSsZ1EFZoQ03dzGdhL5LXJNJPbeCFgR0+4ja98pUjzezyvr/nI0rab5BzUbwrpJtAFGGihGQc1ZVRpZZkSxP828yGYhm1B56sjNxpxpRiP3YJZPVjtRCacWiZUTbEmeuHx8BgLOkhXvmeaaYVlFiefpKa8Lv8MiTfgUk0Erk8UpAaK5ILZeM4Bn99t7yqNYZYj2BZluGJyMM1mPCS061q5rNZW5xHKUPELWZns/AknWLih1dtmVlN9oN1pYCewtabypBUS/tdUlrBtHAo4gQ+OGq7QgzPq6kNV80BFKgCpvdFfN4xPQeNVswNrbyFtKETFI3Ollq6BEWK0uJKQL1uxm3cEJbtwCKdQU6CkaQcDX/RHU8HqN5nl4MkPRaBdGdWHpzc9kQXBmpmAuWSQbK4q1F3IDSGyT5x3Kb5YV01rswj5ZHP5HZKdj0FKaNddJSr7UsIOukQSADuicIUqq1FLiCiG3pSylqfgzKHI6WmU5KI03onUbeC4JoZZ0KUQN73zBdBzSz4BgPlRonPoBpH45c3t+RTBKEBw6aw94BjMl8s0ziz4yPbhfXCDnZgo5obLUuDjQRnCX1HFMunZN35AAy3JgbxhKjLEHlwpPuWnCDWNKqECXJos7p/9R69oB+vuOo1jmHebE840Z9SJMyZGJ/3YK6j/aesgHcaGSgTh5Sw6SI46YGD4UjkRyakIO5KdqZq8yONrde0cYVBdvSItaFGsBMbQHHpoZmCF1oCCeEdt8jK+mKb847lpn0l+Vol7wcQd2x0YzZVq62u2elALKY9doV69BPF8ozBs2f5YkFeNVmfZQTsyNpt4yUC1xZGsaU0CVG+FU0/s/CFRccy25pIgA72jthhgg/XqhVVDkE1S/31hY0U20P5g2StYe8DCPt2JlUWHJRP8CO2h1R2ggiJIGU041+l37iRPJXUWqjBjn2saV3p6ufKBExDM+MjKvekSPI35v9GXt5+nNNz6/lwRUyIbdJp46FciWdTC75Px9vAYDJv5Z8mWgGHNUodfHfkFqYqqxdGcLJA1u6jrhGrcM9dJuDxvpjyWl/g0DSgeNORqGN8YhMkVQwW1VLTRloJ+akNK1NnDilMLAQ97Yy7wfcA+rVlAmMDk1mKp9ddN4tz7WMAMjm9pGEkSCyNP1o6RjmHm4pQUYvDmZLgzHWlhXbaZplv3PQrS1jTk59VBbr8xwNme2QNuZyxdVU7tOFFZnsKG9ooEaERMUnWimZjXTgKjNVkTDNYJKqjHVrgITszZGSYiUjoFi14V4kTEddmCdr9mHeLS/pQsZl2nITDHCzvCCVr0RkiZLOgYpYLNcqQjI4Fp2Vmhv9KenGlBhI8K4ROnkHXENPthlA0FLPGMoiyz4mC+pQIZcaOsuGctHEDCHiQ3YKwpNnZXmhK0Zy+uW/1GbBNcMVoC4x7f4uKNyBXoZ4oBVJ7MVvry0vw5r4jIGbzUSdT5RLnDkfSSTiBj8QAs2CVzRDk8YFEUZo5/jrNGzeIXr671l+5eEr11IO34tleQiEpvwRKScX0fR8f2zKCEs8JoC3WlwZRLllg1EJLdRsDKZBkKWGMoYe4llEsdW+EPHcKeiLipGjp6buCr7D2wuKNPCQ6+Xa5tXtvMwp1RvLM41J0UmQbMNn4zDpPi8NvnqMwITUVY3T3tRqiRZCl0b2suBop6BlJ0mVKZLVTxcgNt8q7bjULU+QLdg13oWa4eXhUOpSS4akF1CNrUoFy2gwZriaTDORgDA7ufWeS55lqXiIZaORaswUlv1lVaonPrrMCGL1s/ztjeVNWynCuvZSRLIJaLqSAu2/NbVTS8pQRsiWMoA7xBVoeUEfDjf0tksilaBdMTvQHNAVN1GaVQTuNZ+drkxCCOrIusqUZ2yFVAK6gjJJaVnVudmZypI8rsDET7ZUiHvZLnY/nQQzyO+N5bWMALOInm+y2rPIsiI0Ye4KFYTeHeWGAtmuGsHMUAGBFhRqrSg3mW2HySrOwt0TZCFWQRZg8dRMHTmzB5jgqkZEpyIc8+TX1Pgq0xFMLe05wYjagRQUXMBgfu5CIzDkZgq1N5BV7BxRPoPWwdHsAL2xvKnrRJKsOaZ4iPi0SUqmPZAt6N2tydKCeLMJRUYjBVhENScdKtERElo2p1O5omgtk0HzooGfDHxuUeqkEtUD6/7bkqGDZOSlrfYM2+qFHjJA11IHLQNkBGyVSLEUyRU2diMMfaQuH2Fz/t0XlgdzCJYswONZReS5N9SgiyirJ8nJwVVWRhrbIU9rqsbowM0BQlU56FyTUMNZyz/PgK7EmRINIm2LeuFnOEtlXe0p6SjZZKYhMuUV1dDCRSt8blfCdzL2HOKckvvI8nK8IbmEkihENcbyC45axWRt2an02bIqFXT5VUzBaKiMpXp78Xp7Sjn655wUOb6jcDlwNulc5XmL5FuYiVQuK8EdNZd0oPqzzM4bJ9MMLfJzj82L5aFWQk4YkgDbODUMAaUVgucaVoAAwhY9ZMu24sEAA0ocqkOR2fyIZIuslaTmWPlsKM0EV9qYlHoUPkvIWWtjxxKTU/HSuVYIwEgZEjmZY44kp6wjdKk84c010mvLy9mWcZ83OONVqg/Isq0gW8v9CQmEZFiJsEFS2Xa5w8oReq0Qa2lBusdUqK1gd7TeQWdXWQd2MKkOeCeDAbMjw+EQmExFrYKu/dQYHaTmAOi15c2GBQQz25LykvwOdDItySPZpKPOLEfBViNu+O2KmegkZGMiXzblTh2ZIbUZok1d19S5XYX1Iq0sDaI2q4m0WlkRYr9BG/yAMEfVtBFsS/wiLQ9GkCi1R4onMVNWYjllOaQDgfwOFXUgeb2J5t5HulTajegM0boV7QKbITWpI6cTDeZ5LXWn5kN5rngXXuYC2qeWh3idZpCTOYuQxU/3PJKUYObKKqtz2tIFqQtWIvvLGclbigkagGYZxDtFN4XkwdlSjpDHiCoIKwyS82B8vbe87gYRhckaU4S1/bbZCdOLjMzZrElrAb99wJX6OsJerEQ6aO0DQKfdYQyIZfBwcT/WKWtGgYHTSI0SZls2ud4HUrRX0XvLa6ffJTWF8XlWCyFja1lfCNEWTr6GjpGkszFUPl/sVy+dRDDbCqpKwChP0ltLl1JI6NJ2m7yrgmJ5+xXVTgtuQ5l1omeW507IrzyZ4hHYSZIniEmhftZV4slNKi8b6uig4CoK6vcaWlpTB1eJVhvkSc4xnUSZmnJCS9W0eEuguUYg3pVaF5YML9SjfgpKl1mQI+gxch2oxRmbvA3E40UoUOX3PvTM8rKsSJSOLpKHWLqzMaDThmn2KXETwWix3WZ5Kp3lRPHoEjA733XpwBBWhxFbUV3awlRoXhHoRITXgZtEaCOZT3RlL48UqbeQZ0a8k45DWnRaGBmKLpEA3RBbRWYR65nltSzDas8lJ+MItK7G18I38V3cgBkV0lUH0SxFIBEnImTq8jlgpNCqhcyZ2YroZOtwEolgK6L6svSV7iyYw/BkItI1NwKN4bZKqK/D2CP2tL/dKjWVpA6eItPSmhFCzywvW5taOpqUm0tX8+oKzNLJxaEJZCalEqZHbEixhu+m31CLaOdtJcdAxJwKzWvszuUUtXevaUpohgsXsEuXmJLAtJmomtC5qzBtwZkgzLPl0cujCTo3SDITtnI4lKJFZ1I2NHyufKaRcjk9T86Eyd5UiiKjXD6DjanekBcVhKG9rMUsMpe2m4ybebE8KnNDwV44CiZnfM6KJLHQ3VYsK+GQysa94LRXPEFSmw21oqLm6n0TTctL7xE0c5AKW+L00i4Cv2iqRZWW6qHmemx5iTfOIWSF6y/YJnaz1pONT9YsWRwoZ5OTFKEqziHIV+jmFosHa5yEwlRgky6SmQqxe15UThuFCJyqa0kea/S2ksEoWvfBcrnOhNHXiqdN7GROSVWR5TBwW5I6MW4730JH6nLYesTqwW8vaWXZEaN8eMRP/Ivvg3VVTQ4oTUUQv10bJuaHChNO7KBJr6LkubkiuWSW867xLJGZlM2w1KKXCnqEK2jR9bfQOmOSpyVTyPfiyunIMmCA2mN8Zl+x+jY71mxIgJhpyUTQ3wYkm1NnOM+Hcwg6LJXMuYX5sjzkwfLYB0IkPB+hk7+szEkdjqaspIz2kp1gh2SLEE9oKdJOZnapqYl0zXXpOqvJImfjjglksoI5UtNiOvGsqciisFMztXaDjdMS+VZviuAmaTgcHzBak6MHcjzsTXK+LA+e4FcsW8TXR64LvwJ3c1QygdpFSWCopH6YUFJuguQi0yLk8Pd9cm4cuk69rGu4k/NEueXz5LlSCKaWWgj9Kk6P9T1PXmfHd+gLDqZ4ey6ZWIZCIjXHyDxannOEzdFZeF1Ofs88H8J4ACFGJR65JFXKrnrDzhAEmSw4TjYXiPfpKcvOXIPGULaCwF4WRCNlk8S7lOrWbC5hKBuJ5GllqIUsx8xICrxrjVBOlqeyVrAVcTrGPb3f4XaVhel8FR0ModOYxGFkT/FehHm0PDcjZBD/ZiLOMPAgTBBAMgG0p/31vL/3LFbFptu2mXFeZOmJkMEJEAO3xhBLZi9ZtCy8Iw6NfOgo22l5bSyl8lawtRYVPEM9O7dPRULEBEwIFnGZU9UdTCU1xhxHTQVkSwrxR+9BY6ZBldYmsOeF1ZSZFsxzN6f0PFoeUsFxYloRRLGrZ0lsk9txlNBnpDjSyQ5j1JlaLZm8YEhLPaHNDK6m8EDSyFoKlAgP2XP4iRTaGJieToulhOu8Bb4dGsVwntuyUjFFAjUJZEoRZoyIwcy8VqiRZ3ISTYOFjHTGgBMR1ByciMvGLEAz1SIAiV6GebQ8mJUkpiBYdpUl3kkagvqSJHc0m8Qio4specnWfyuudrIcCti8JFEjYlhtteRq7ETOQrrGsxSy8a7I0wK7UADkfGcKd0HL5KZoDs2TLU1GhWfVknAcLSRN8wysYBISWSJSsx3M7dYcWzKxsFeRebS8aflCtNCTLObmJeE5pMcyJDniAoIWRueT3xjP0RdyDuRJL96eZVptB/2iUjNgxQ1lagZzZFLSI8F0zB06tQCfiTVZx5+69jnk/sIsD8mth8GzeXh042ZoupB2zOzMJcj6DEtWaPB0d8L8ZbA5Q7OCwokRc6eZVAveFuuO4Sy1Ie5FYibNPAl5V0gYGRzHDcIyQq7Dk9ElO4uRkJM1usQSJLqrQOA2+pNwOFvwvrY8N7ikIrQnPbjYbouW50pw25RydKMoLL5kr+AAdSs0fCPQpiLhWLABOqUitPO3m5G15kMRv5sDbRviHbErWqQxzW+wj2mwWudBZRGzRuXwOFCazswEgXeiZYl0i4dpTresOcL2teU5my65+TxzeKaLkMTM4mzDTUmt6PpTzLQmPcj+QhKiwsmbl6F3MQtDp2hbmGl7d9TSRiUmZkhNokY7iEWn+c1RniyZ4K0IhFFj5N+6+zR15bK76TiHMovkL8by2hh0ZbhYGZMCRzlRXLO/oDYzO2lRuSG4HcaU/VLcja8NOlnCqp4sc77g0RDi7/T1TIaZ4K0IxKKdia4y8p1z6vqSclNkavxZ5e4jy0NqQs4OgIhXsx48mI2t8WpCmLUlbUWtRVsEJYLkAH3jLego1pStQlUZWRXMNkkCZhAirONXJBKZmJuh5iwZVgYtI2ks47/TGEMSUNiZWpRyAgYP8axUKR5LAWgVaSsfCKXcgOl6phAREyUhpJr3JjLvluc2kJO6jWMXSHKaFfrVMExqbz9pI5hTjKlc3PlUIS/irks4sRLDs4SBEjzmh18N+8F8czltyRa1NnArIQQ3C4t5hhmYSdhCnDZmlpIh0l4AEQMg1NhmxCm3M9JOJpOKBEXItDHVkUGZcnOLzrvlzYotGUya5GGLNGEyOIsDkf0ldaqNg0UGmNJmhbFdxIDH3eaycOW1QiLVAs0sFnoXyLHxVE7OIpi585bNnAlhcTp5mYwOAjHw1Xnsn4O6ypo0NBMe5g9n3i0PBbn82WYgDjhBEC8lsxHgjil9xpYUvfY5mSBukaZ3jbytglJdqMjxBIgQi2cvGZQsOBPPMh3Bk5XKwrPxWK47H90xrUzXrK6mlsVM8VZEGmoLnWLlMdrQe5CYd8sTj5N0XFdEkllJdxKObxlBWeY7wv468KyyoZ+8oylEj1sw8ctUGokEDzQFS8qKjsqI5S/eY/LQlI61qqYsnQhPiB7pSq1Lk0dZumRBKAP1ejKAlvKtP+bqnyQ5C9RJKMwAvE8sz/hIFjYVV6ZiV5wNHMJVQcF96tY+GDutbMMIGWjeiIUY0RTPmoXSmZBFy4A9Cm3MpQPcAnheDk1ASnVUmkNLVbTIpdgktpvyFUk4XTl0zqQam420lQTYPknpSqG9yF6m9pHl5cwuKzzqyuW6SAluEYNJd7H92hsy6TyYVzDWqJxOPXYYQUSd/je24DSYWTRjfBIxpyHTyu5w9G1+vYXXLZb0o4g55DyWUY+dPJ85H+l5tLxkT0QQmOCQBEeelOXxySSkbLA5I0KSj6fxloegZDlQcXvIp30WaD5zEsJmf2kMdlvJshfsOFe6w2qNvTak/GibMjv7QMpKkSz9DOnEpyNKCZp36GEyAg+eDQwMpGccU7kU8VJt0qUaY0TIESNXMKL07HceLa9nPLYIuW340FCYGB9H6TyljY4UQOto16jGFokuMfcBHWVtHdP2ED/UUlVtdLK20pbRlpgRM+ph+heCUW6DxByN3UYRa/NQ6avYsz5hMIVGzlhT0akirsmpMHqTt08tD6GS9rNxFyWJnMVpSalVA6alkIDE9dSsHmnMQC07q3QvECDelobewnHTcRqpehmBQrag0vmqBMuHnN+17PC84UyKG75qnxo52KVhM7/lPQnDp2Ao63JZ/qwuUufUVc+KXDfkfWd5CJNp0268TAUzTZpCWzYmiugnBC9NIkT8J2NSISNbS2qYWMoyQQzG5tSyBWcsAhSy5UQ48ZZloROYqlD5Nsay5aDu70yIV7Z8KeUdM4sEcYB5RlIFWdR9Hp9fy0syooFsPInZqXeyEjAVCfhSoyYirmK5OvuWFS+qBOV2eJrO9s/TTKykSJe2Ut70BRMFIkmGLNDjGUJdsTqBXU0QNPuOozIh6YEXd0KngQXvQMrPhZCThVI8V2+XctkCex2fX8vbS/ak3OSWjJbbnLsk6RrLY44jPLLNZNqdRE6bnfrNctjWIBlnSXUa6o2y2qO9ClFoZ1IAQScJOZ46sGKTSxxCTObxXBaQGMRhTkqw0Rb8IGYHV3kSk6SDkjvFnAR/buD5sjyEJzhPk6la8EwTpajpWin+G47lmCLMBtCzTeyA8GeTvOBjOlvJiTpc5PJaijwK7rgBA0zbGdQv9bTyOkh4wRzYdxVztZkIVlOLXA6lM5lFzVUSkN36dIgIANDRj+fE3yxRE7iTjtcCXOWhoDR0A0FFMirI0ptzfL4srytDyRZbuVKO5FNIViAhBeS/ihhOaH2Znl4NkkW63XI1FUlXNu0TqRjIIngF6elSIEL24HmKG+kA5UdEVYtynIdWXj7maFloi2wWGuOd+DFnil+RzBT0WzUR363NdNCU+4N3k5FCLVkdmXSQKxbWryufchaxMurhhuIU8nSypecQ36eWNzV/qKOLaWbKSItmDxlYJtpFncHmHMmLmtdsg0cSyid08uCEO+Gx4L74zZkdVQZ1ZUwLSAod9haZBCNGZ/KbkHsu/j61PJd6Chmsp7b1LYp0xRcQxKAYKVx6jHYZ3FeiRGaMt+yvq+Kj13QDzaKEKrKgKeOpzRJWEMR+ErUUSWgzj3gVUJiESMhvCT856UShFUnanbzU3uTsU8ubntFoOlllmS7CyGqjAdYRKJm9hXxAKm3BIz5bAQw0xLP2F2i0/cQijFWJWBtCbxNRjjlRVWHJHsdJ4iGYJlxj0kgUek61zFuhX4DloZ6ubmx6Ga2hpN0Makp0WkoWQlwN4JOfyZvCizgmtQQKSnv7mmmnKiMbMxRHi1CzA6Mss4kEZv1rSoCacapEGy0lYl7oQzNgMctNNj5r5mZWIP/Y6cxKzRGrXT9zIZKlIK3nAiqfXGfkkD0VRqTmmEL3oHSMR5zsr7hq/+uObdyHLOKWzNKZYTyVMwqxqm4cxrxp+A/1Zilk4zNka5Zo8+vzpJpuMmSBwZnMhO/Uce2mGQcFsfpSiCZiik6puFZw9cepn2yknaVAVeVaLRXYyTCXK5XjN19yMmxVnqk+G89RbE92IsZ9TOkAERyBK8Eksu09TUzEGtJHuOgSd/JJo57M4ZAksGNPXWASSDrm3l/n1/L2nr82CiY3ri4vvRtNHuodPbsazhTNOEyomll2lm+r/JctAdvIHTpUnrlgIC7lJDj5Mp5GCxnddMfpCfQXb3ldGrxbx7ItNTex2GdN9xktGCUnZ8oLaSukTp+x2LSScDVnszIEFe3CXjvGvmmn9jqdsSiYMyltBGbt11YY6lStx22EgOPK0ALigFS25Q8zaPMR/YVbHurLNy4Pm3V0vKBMV4GpXJDMKjeYCFnSrPJaGvZOb+lgf6LgdYTKu/uFVntMrnsn0KrMMAEaH5MXm1VOYLKtjPNmGjCJO9TYvdd0iCSApM9JoLoAdYG2cTH3xDxanuYFFjqEnTu7sWRLIRBXMEvSb9K3unub/WXVCCa6zhiHE4jk02/GfBOsa6SLbXQBdS26V8BOi5FoM2Y71A2rGlNaHGfje8Xf5IXn0fImr3SanG5i29iBQk07UmzL9iK1jOIcJEU6sKXSiCwD1b9JentA68LJrFu1VeM8xbx7dyVuFtU1Z8bAjBF30caMyXQizq/lOa/Zdu/QRacFwWQnMI0qZi04K/1hV26DUo/ZZraqIKyDDCErfqhCueb6Mhpu4QIMFJNZd1O/pge5mgP5bI3d44m9THaOViYnE6XSwIt6D/xRyv/4MZF0Ma1kSk0flczGgK6Sn2exugk9PaWpMebX8kLdWf9vQrQ7jlm0EtqQOmVz+mPWZmbqBiKFm8rzIgsX5Ixx5TGMZgZBLFFGZ5dOH2iYfF+xwTxfcor2UyO3sWdtnyGQT3vvVDGQIGzHtrtqBJDp2UDs89q8GPm0lfDaREP/Q0pK4HOPOm64s5DjzPG6TyxvjrxNWgwtJEV4c7pt+TVXDARHTpEcQko6qYQMHJNKjWDJSaZQVJyoeGQv3ISxkaeXI2/M6JkdWb0eB1XH6sQRpF0EQYTYgdxRYQdARXsYfvUszy3Dr6h+el10NAll3cimL9uO4ZW2w/Y2tTc0k/mgBUQyi0qwyRlTP8nrLbHR0kweZXKCc8qZR8tDGA9zYmyaQihID8O3HhEVPuNLF51GSjATo5P+tuPMUPdq906K7aSU32rUTuwWBLdKoo2g+Ojax0DVrEy64OXHFg3h52i0ZXZNiL0wRhvNLvbZtdwcgfNoeXPkaAbFTNW8fMHrF26AXiY0Ts5esABvOWmW5pjS4TlOIGcTnmnZocF9mpnFpKosqWxWZzyPafx2ouUgMjRKaryVEhqFuOCIeG57OW2Q2W6hARsailmZbO8N8IDVy59fGctLKnBfojmvNKW7iqYPeQrGm05FJ205BQ3QNmtO8BQBITkqR7YVS9eWSoWsRhY27RV35SSJkApnu0HKlSQ5cqlAWwQk/nGquyZ5yEVI/AtRaTOmtlLSkv5NEiiUy+mE5BDmlpxHy4NjzILA4oj3sf2us3PZVZikNY/kcBIQUk4Eyt7sgSY/1mU9ma55OmR0c3vQ9yq8YIxP2kKJPhGN+ZaOpbKZrbhz4jidmEBEJPmeVrnuMfdMTpOrIjZOt2EnK8rUl4m2cFXcAj+ipbdblObLdSicLycSpwWVFTENfe6XebM85OOrRVEXXaXNcY1IjjaFbImO40TygVLSc45yZzLR6czaG0hGBHctLWKR4alMWXkSaeZytOhPE0ucuWF1WE9SSOCBh1PEReCW0gTSPeRsviwPlv3PNZIEaynIraZDBS2EKWMQlFbaNQHEPUG2aJeqs9nZeM6Qs1mTx91TpXxaSIxFVgKbJmaLk9lX5IKK8iyD+ImqFhGPdzCQpW/8+5AsJ0dxrowwXINLniUPXdHny/KyJpHVvsmeUWAc+Fqt0pXNGQM76UhfHaETTSjdMDuKTgOIlGdaaSd7HVZhNTpv3fOmYaktGzrd5nnOhpiOjeMPuQD3nWTNbXoa5svyaEV49e/bulTeJLFhJEQ23lWoLEJnC3Upgk73vm260J0KRGvx2GQHRhsjJKbmvw0758mNdBtCW6Kj5nZAF1yNC106BuXEpKaLEocYESBc+UJ7ml63k597ar4sD47hNWt5OR6TRlIkh5BN5nBCspuL6tRormyWbA/jNubGsczoeut67d5+XatL7KWI0HKWDC3zVZZjeTmEQLqNhsNUsEvIl8+nzS8k5isVTqn6VfF5duIJ7MI9IchPLGrBo2iFaRFfeOSPLZFSs1xs8tEzbsA3mmxR2VON5QbbpHZ/KI6HKgshff0XchnNAmxSssGUhGkJEXvUz6vU9oPytfOijQUrpnpFgI7eKJBdaRTrpcJEpViqiyM+wSZ8foWiEsT0J78goSSXfvsKdT0vTr1Ioz8rICYFRCIVsC+oOr8yJYBGSXQlkHFGtE9sI29/rdycEC/NMmqp85Fj2h6G66YWaiUpHqNG234d7uwJTaxYUCzEXSITS7WDnCWmFWKjga/rx+4qFcuNRNqqmmNivnwe7GB2/f39nHJXq6MsCx16wjrYDq6X6jU+vlwolxrFvlqZpqqznC+NlCvFRq1WHy9X+wZqaF2KD8KrcXSegzUhtJ1yAxJ9NhMu1Ou1RqPmHVXIhbIsRqVllaIjYL1erDewODw00EK5v1EYKzRGS4XKxARxvgpNrbRbH2auhmjUSZRLWBMNo7YiUx0EK+AL2Fypqt7EOKhBPGEyfBcbbBEp9NGZYIGEjAamqZmC/BnQGh9Ga+P1ZnmsWa1VGhOleqk5UUQnjUFu0IJWLKEJjqyUeYpvV6w4UX1wKHArBGOy/AAFISUVieht5QyXQZZAI/Z8qIX8PFoeUsFxsVrtszZzgZNeiBB4h4dmLKBfWR6z2XJfoa/eHOvvLz359JM7dm/HSPob1b5iebS2x8iYyVhZuMfIrAnRnv8r1MY5TbTWaNbprH0Vdv70LDiniw5UB3ft2jM6Mop+S6U+/IgZRmO8UKsXcKrWQvVmdaIwVqztrjaWlSqHVAYW7t5VqdtUmxMiK9j/wESxPA6vfX31Ir6Y+mXQhUqhNjZSrE1U5TXpR/UKJkmkWegv9+3YuWfHs9sbtYlSo2YeUcYPv4hjnh3OaXxZg7pEX9+ucmX5cRvKB6+ZqBQmihOj5Xq5Xhoo1BrUhfcsjVOaf3Rs+9VmIkHaoKOw2QnUksoVWjzZMqLZr/A9BGQrEmHhFzWTC9ksZg5nzsl5tDznG11IHd2CEOSIaJ5CnR93BXTp0mCzNHbjLdd94auf377rub5GZWzPcL0xZgfUyvwoCD2/thNGoaVavVat9h900IoDD1yGPr1LL1q0+NFHtjz++BMjI2M4D1melN+UDyuQwBr7aKqBZqlOR1lUPnbpipMWLVu06eFFuClGuEaxf3DhogOW9++3pLJoyeCyZdWF+xX6q7jdOjbV3F0b2d3YM9zYuWvP08/sevKp+shI0fwp53jWx2u1iYkqk/T6uJwdDQnriMCEgsm7SQ0zeEz8db3SP37ImnVHHb9s9Spy6tTdhwXjnc3tatxmAEEszM4caEZ+TNi34Wxn221LZgZ+Bssrd60I7JaXRUhxt7mk5ykwU5GZR+bR8nKMIkAO0p40DaEQKareKEyMNnYP7t+/h2XK6HihXCzXqoAxPlb5iKemM/vLxvGa5tCYrRWe2vPczvoeiGKp+LzFi/fbsXsn/qOwoI9uDMhbBB5o8n4mlaVCDUNkvO8vVBYVluzXt7zS3H/HzqU1oTCMN0dqxeGJ6tLR6tKJwo7hRv9Tjb7+ggy2MVDfXhofru3aM/b0s31PP7tkdIw7Noy3mDIumo7CH9WVGDWZC+imDuaqvsbcjU5pt5/Nt5RLE/39e3bvXoJoOExqZTSWhGZkDAmhH5HnpZSZAtUxO8gF76Q5YHJjOXgumTTc3lI5rDkm59HychzNhnssrzHWmKguHhgoDY6NTBQYJMdLxTqTKFmeWV2wPItbw1g3pl1pKFwL/0ewTz3VWGbAfAaHRGzhQuyaImXaUjhYA6uDoixPw3Ox2t9XrjT7hkoLFw4W99SqNFF9ollv9JUqjNn1CZzvzpFnnuxftKhvaKhcZXTFtdVrE6O14T31PcPNkdHi6HhZ81qtB5jg1Ww6SIQOkLyWJnh0MPjQdI2IPJgCP/UCU+Nys0YfYJg1SzPjw3Llnul1Kmoh/oZk68c0IfpyaOphcwx7U3baKveR5UnJ7Y49QFCjzXNYV6FaZ1dOotgYb9b6Fw1WKwuLQ7XyWKE5xgxKPg8HRnNp0G1giZSAEj8q65oCXuYtcGymLlMlj5kOuBW7d6zxiAbGa3DlX7FYaZYGmuV6pVSrlCr9mCeHrBcHBwaLu4dt8LLJJMbE7K2PaWi9vmdsYvg5xmymsSVWGywo8IsMnXXsl0ljHVnoCnhQmQljuC8wGqWa/uT4mbaLKOxp1iqvLGuSV+xrMjsl3qyPF5qsKZRr7k9yypRAlMsn4RIrbgEluApIKaKf8Ospvwa1d8vKoiXk+TO+fWR5nQJkIaYHdMmf+jfT9rFGvX9waGDR4gUDhdLIRN9Eo1lrsjvIswcyvvBFgjC0oE0aT8pC+7IrvJirzuZRAkNZQUsamh57YTpVmwC1v6+vQoPXi5hdsVxYsHCwUJgYHCgvGlhaZlXQYLnTKNP2clPNItak5YjMybidwHpxLGPFPhmUzIhVrpiwGjWXlJ+q1Qp0AfoTduvmQHdASEwXXphl9pUnJFut0g8jzWa1MlFqjhcKVZZe1IdBljFT1w+cUGeUz4TyS1afGXA+OkO0WdHM1zGz9D6yvOmYcbXGPlosTdQa5Ur/4IKFE/ViX7VOu9QmxpgcqZ1pYpyEWVuKmDPQKqwxofmT/ulPwXHkA7UU9ZGrxL7FUHlIO/NmMf1sZVRKE+XiIKNtqTq0oH+ob+Fw/bHFWIe8kzYJMQk5SRkxcQhre00/WqCMw5b5RgHwyCpiK3cRsK1Jko0i61MzGuwT89fC2DYutf1UYvOpMTFS7B/aXmhUli9nJ4edRbP1IIhEtxptUeQxu/5qXn55LC+q0rzI6NhYX6WycOHiRq1cGyhM1MabhVFcnZCKBR7aYbWY8WTyMbSPN4nZAG2EBdhwxmhrAXPlDwLsPeAZZQkYDZ5O9lis4XhKzWqhNDTYr+2Lct/AkgVaV2ItoquS5i8xVe0kYnEa7BUrVAt1BkGZhbI0yGqchSxujg1LFgps0OH7mqNaImB8DOn2B2H+mogy0Rzo0wp7oq+04pijCwcdXGMGCT04k8xUjp1LKKNtv5ahzF/N8EtiedKp2iRql52RhQsXFhcX9isuYtMRm6s1GHH1EhTBfCAuQo1tSwo5Nvk2vIvaVIEsTQtZQpqpOZArpMbHxyvVCmtPWYbZHS60xp5vf7VvnPsfDKjNpY2B4n7bx/tK46wLzIjMZsJ9FewNExCzMh1cEYXkkOQekYS1ELWbd8QGMRn5tmKTbWGmgbYaIonFY/ayaghUqv2sRfoGqgcddfTRr764sHhpVVbHPACCPBuHAbqHla16zbr+KodfAsuzNlSDmdmZYnFJhcHB/kaJxSVtyFjX1ygM4NdoWlyJry3UZKZ6ETCfBwEtTVvtAYo2NaIh6pkfGhuE2sR4iS2Ueo1xtNinzewJmr+/Oojjwav0lxc0B5YedfyWFZtZWOMBteONjcMW/lIGo5SsXgZRLFcG3MIAYcBYFGj8aWw1jpmnCTzILgxWxL4dUzuGeq1YQMBBVgZZ5JSWHLBs0YknFg47vFCqVKMUxToc9JNyYfVr1hrzf1V/fwksD9UxKTKX4cbHMlKehMbk7hE3UJvNSqkPF0djEbAxtm7l4awR8HE0nrcGzct+DAgENRVBa098kExAdwCwqnp94v9v79x+27jyO87hXDjDi0jdFVkXO7EVJ07bXbvpYtFLgt1g0bTbogUK9KXoS1ugKNCHPiz61/RP6OsWLVoUu4ttsuvFrpNN7HXs2LJkOZLNm6gZci7ksJ/fGVJSEidVGnFJOXMkDIfDmTNzzvnyd//9GOJOMMAFfFAzM7ppxjhJxOkAdxXpq92JO31t46Xf/r1/+WuELkF4AnIha2ql2Qry6JYjiGTCRYXFKiqs6JM8gHwqyFSncQCezCF2eJVPBYbyRh0Wom/wVvzHhACbzAKfYF+EnsLA1SVsVL+K8NHtWW4TgDw172r6URtR9TCCsAKgIRuAMT20YhunUt4yoSQHtYOdBzutxgGkCiCWp6cK5XxlvqzjXcLWhwKMJ0tQC8oMKJ7EGmAUQ+IL+nnTaTX2u+1+HGk3b73/+NFHei+uVGam5sqrL61NLVaifuj3Q6hgFyOer0c9Ky7NCj1ktZN/9agD3ByuuiYGFM6AWsoolCh5iCcFFPmYhtPuCMHDy8UAQ7fYsTlJvm1YDvtiWcH3K9CiSziu7Kk36hbJmzO+HTPymFLIRPLdl6+7rKC42OGECF5+P+7lYl6m85WO573zi3d/ef29+dLi+uL6lFOR0J1Qe3J/r/Vkf/nSgjllIEUl1EHRS7RJzCFIgzBPYJt7539ulM3CKxeuzc4unreedy+4Bauw/8TdfLT5/g/vnru8uPLysqe7se5retTvlCzN4cFYavn/vHZkxZGz5Jqjllx6HDhHn6k9IbZqxzq6i9obHGffSs5gb3iK+p5+oqOz9nbMyGO6hrOpZk69ATA5OwdijKwehZmyUwla3Zvv3qttH/zVX/xNXi86esHS8B+gI/SWO/VmWL/z/u0XXr6QK1qdOIy1CGswIS6iZgC/EOeB+eP//un9m/f/8W//HjqGx2F5afm+d392fm5pdnn90trj6PF/vvUfuVJu7kIlQOkF/gby3FlbzDP1vB//hv7aHz35HifgUyxJJBjkH1Fj2Yu1XJZQF/PRvd3XXv32n7/5l241yBtTepzT+7aJc6OtzRSfW5174drlb27d3Mv1ioVcAVLXw+GlYw4RA27eKng1/63/uv69f/jnjbXL04UZ4lmQoa5dvVYsFtgDwdNT03/6h3/2ztvv5TPFTIBnH/DFGSJaBnzy1z4vX4Ebjhl5zLComqqxzLLSilOK9oq/IqM7en7rg+1ithQ146I+dWltY768uDCzJAwUz75TzoTZjG+UstO/deHa7t1qySraJuyph7wXY0xDsgq1f/vXf/+nv/tefJDt1MNzi+tIjWZWHLRQVhi7k3eAOJa0P3rtuz//4bvTziysGXu0VbCGjzZ4wvTlFGdg/MiTwSjaIjKeIA/8oc6KHpjtaaEbvv2Dn15c2yg7xcD1HMsqFuxKpVAq2baD3xS9IrJUsMlccbqQtb2qZ2UsJe2JaQbzx93b977xtW8ulZdxUwRu2On4c/PzXssVcqtrxVKx43cs0W/N5fI5J877zdDK5lBzAoL3eJ60jWYGJgN5w7GpdU4UOTGBmJreeNx4slOdKc2sn1teX1l2Dxq12m5GC/NFozhlzcyW7BxxIASNdwmAWplfbu21CkbBJAxAEVA2O1uPVhbWcI2hs4RBt9naNyxx4we+j2tkTmL4NELorL6p+dmvX77q1dtE7xENIIbm4YOlr6c+AxOFvETqkzHiUIX38t5zvRcvXW7Wmp7nmZZ56dJF4pQ2tz7MEkVnZ/fdRrlShLYhz/WiyDFtJ+sUzAKMGJcHtlt8/jPlmbxTAGoQ0qAbEudcbVYr0xXfDxzH8TyXewE0QvLB6/z0AjYS+cFcIZcTNTmnvvRj7nAyJheISTu0zIrIh4EfPaNRr6+trYVRd2dnt1ptuF5nfnEpZzsPtrYINlldX9178hhxzTAtLM5R0HUsxzZt7DIG8SNd0ROKpSm8wGIo1DNRHJl5qx20idDcbzUd2242m3nHgamiCAO4MAiITcBeA8k0jfEr/sm8PJPbyUAeoBPYYQUBIGKbx9ku/v5+r1Qmjh3XLam7mueFjYa7t1c3DNuyAN+jre2PlpZX3LZv4PjMOcBnZ+ch6KETkEcaG+kXWGckwczQSPaBf7f9dhgFjf16txfValU7l+N8bkQYFiSy1nyytLwEF4YQ9lV8wjO56pMwqLEjD5UCr1PSFM0THQOzioARwmXaRnW/hueWqCIEszAktcc6cDutlgc3rlVrruvOzM7uPt69eftWEAfb1e2DsBXj2hVNWXWC+pA3vcDVTVJwel2flIjc9s62H/r1Rr1ClHyjiQ8V72wQ+9u7D5ZXF2GzQJHYuAEtHj5f+nqKMzB25DEWUJaARL3KeovgFgQdzHKLy4t3N+9AvxC7yKZBOOu0O90wYmdra6vd6ezt7TX36+vPryHz/ejtH5QWi0EmINCTHolbCcLwyisv1xrVXCEXYVsmLABPbS/j+aRpNKGrUdjttNtkDIW9oOHVNq68EMV+EHaYF1M3BblpG80MjB15IERgR5NFVu+gTMRz5HI5QkFLleLC8sLek124YdQNCgUiVjD1dU1de25h7mfX3/J91/WatdpHb/7xG9/6zmvrG6sdcnVUojZxeHQJe603a41WnbeSXxmQM62vrJ6rN2rtdrteqwHoO3c+wGd3++6t51+8EPR8bsCZcZiyW1mXEbWxIw+8yTMcoQ+KR3iw5Fj0EPmjMP7G66++t3XjibubycXt4ICQcUgXYlwhX/r2t954+NFObPZ33b2b2+8/qG/a03aknO/KCyyZ3nE2eunqxnubNx5U74VmV3M0Qq7aHX9mZoaw4GantXjhuV89uPX9H33//G+c36lu1d1aNkcUCyRTBb2PaOK/8t1OAPJIBFOOjAH4VPah1KfIkGdK6IDRzrYu/c76rrdT9fZ6RgQekPAMij8EEnq3sLx4a/NXD5rbH+7fz68Uvbgt8cGEHYgZuQsl6xvdg17j4tXVh+7m9Q9+9rD1sJcjRcjA4OJ1vIOel5nSzr+yml/Oa7PZVrcZaWgcURLNPHikrzxKRjEBk2g4QM9FHyXIRA0Ys1o2VzBmLi/U95pPHj1eXVpDAiNxB5vLvte8cefnO/WHL379xcVz80GvQxQyMJaYPbh3EsaOQZi0MttY3ThHD7+4c/3+nc2Z/AxE8eVXLruBf7d6e2V94crKFezR+62GUeSbkNENyzSIzkzlvFGgTvqcROQlY2XNCYokeL0nJSgo7tCfXilrduYnt95uVBtYSPww8CP/wsbad157wyga4ObA27cNoo0kzVBgpxIxNC4Wyo6bIi4s2K+ev3rtd7/mNrBMu4aVXcovLizNBUGrFewTesyZAUoHLDprhKGUaE3biGZgcpHHgIEOxI/UBTy5WdtoduvmrPmbv3+lG0TEkZMpaNkmCkGYCQ78FlFyCIiSM0FQL6ZoWDHhAhBA5LqcsX/QLBVL/Vzf6zVjo2/MG5X5Ivbkbj/biOo6rjcp6YPpxggAeabv+77kQ6ZtZDMwociD2oEcrG84FwAZidgEDCO7kf7dJcWQCjp9v6uL9onlhX/xfhFFaljU/RoGvwjRFMea1u8EHbtgd0IPbBFyrFs6sfUwZGgb4fDgrR+HQNCESYO/jJTAIr9fPL9pG9kMTCLyIFhABuAAJsnQQCIjQ1FnS5qOFqkQEigbmklIrTHTEo2DyF0AKvmsxPIK9VIlgsSaDIA7QjVeAAAGsElEQVQs08YiI7ADoyT7UFmHRESisDgtFi8ZIDdMB7+ZwX1RhyWrjS7TNsIZmETkMVwIEgIeyw9cBHYAMOKnDSRnEchJ1DCiW58cVQtwgjWD9EAqYsCXxfOARUbiSkU/UK4M8Gf0ideT1H6uQpBTZfbEU2LqRs/vYqjpBWQbwV5jUoCANRpOir0R4m5iNQxxWUjqLK5/XfL7yc7ua1EQCbakyJ4etH2ZF1Uxh0gT08a0jD5qh+RMqwkToiVAkzxIdghHofCO6/pACkyKD5cM625IbABv/XZQKE/D2IX6ifOOnkVUVD2lm5HMwITSPJAndQGUYU6sJCKEGbd+eevGu+8IPzRQPaUSGQ045p3863/w+trKWtiLJG0NuEEjJTAUdJHOCuZ6xB/jA/nJj6/f+/AuwVFSW0JoJ9V3TFTkuZnSm9/9E6dAobSupNYCeQX8kUx52qmagUlEHshJWuLZYJ9H7fb6PkUt4rgyVQF8SYoQmbMuVRNJskWpFTEO1KFTyMi4Ri4Eh8h5lkG9HKRGCGlpqlwoFi2baBcjCumy33ZdMEyclUTICK3jOoAnZfbUFKWbkczAJCIvGSgUSawqKBKAQSx02WJ56vmLF8FFuVzGq4vmyx+xKgcHLdIqusS8kNet7M8KqwBQ/hENqRyFhRkdZapSwULs5PP5UpFKYlQawEPbrNfdZk04K1AT8HFPIZaSrZu2kc3AJCIPCetwvII/2KKWCQhvoqpcLCU82SF+AHiRYk0AFZjjHzNI2/MdkzJkcoUQL7HpUZNKvP9SnjPuY/zzgnZheoqM7tgnQF4jm7/h7hMkJRVPFIkUXi33R8lRuduHj5LunOoMTADygAgMTvHH4dCE3FHYiex9SqF3NcqLoW5QX0wnRKpYKrX2D2C4RA6Lqqtpc3Pz2FbQXAnzFAtd0osS9cSaR9EnjDNS+CIqlUpwbL/Ttih5LWQtQwr4/Pw0dZwkBEaCQyF6WZvKuFijcYvQHWaatI1gBsaOPCFpjAtKM6B0YgnBykYSN1Elvmb6/DxBj8SMXgEdYvXcGlGcQgcFrZAlgRlbMb4EuLxQLVBaB4dVFIz81IacRR1wI3fl8hUhfbzBCIPdROw1dCWeEgTFuEsJRlsLtULfyVoY99rCeVPkjQB2dDl25CnoHMJuOEhMJHgjKKSCV8HIWgAk1sJYFw5LvDFYATCCM0Xg5KCgTRqKL9tBN/IKqhKYYu+T+shypSqABxnEfiI0UcmG6LLCmynkIkZmAvykbJBcmbbRzMDYkXeM2g1HiFxGGLwGp8V4HBMyYlAw1u+FqiQsaWEwQmmEOXFFQvmkjoUibGwU8IbgE5QJUjmcGJfZFweGaMIJQkGiFEGmJIacQxCBKn9nO/mciIyH/QwfLn09pRkYP/IGTDYZj7Bc4X/8HstCZcnvtUO0Agkw5hcAJB8MOpeQNDlJXSnvhdsmpC5RSDnAp0egUacM3qqPAKolV9GD0DySLmLcwzRqwEuVqjibt5xSvyKutLSNZgZk4kfT84l7PX5/QR40irSvrhe6xJ4oRVMeUX77S9FH2ap2KCAeOyIMevjp8DzBIJccAyJUU1FGBSv6FtsNV3GQwBhoqpSNFYoI507Vi2Q6T387SchTBA8AAKmwFxL+qeifYAIOqPMjOE9tCaLkLEUEDwHGkcOPPn3wsKvkQk5I/hHtgBz8WTi5FBA7htjDa9KdU5iBSUQeqw3mIDlCqxIAsT1E0uePOkHS559zHIjSL2hT95Sr1GdyTO1IxEzaRjIDk4U8hphgbjBWhQrZB4Enw4CC6v+NPoW1Q5TJHbiv4rkCd241vFsq58nkjKJ9Bgsbxa0+q8/hIiefC51L2sfxozjvZ3VxeBx8Jprs4ZGn7AA7KYk7QJjcjlsdv4xDouge4e8pnaSHvuQMjJ/mAalkDAPMfRxwg+EpUnayoXL9U7s4fvXQEAi2hucmmB0+iegg0obfguR4uj3FGRgzzVOw+4xFHqy6KBxAAPPbyYZ9MlIFzJPbJlsFQQmcUveQOx3tney26VlfcAbGjDy1xCyyiFafaAko2fIvnPGEprWTAFRYsvyyj4BUbqykyCHsBo/BcQHfp5/rE4+Zvv1/zsD4kfdU2B1b8aeA8vPGeiKogLmEpiU9JfrGp3pNQPmpw+mBU5mB8ct5pzKMtJMzNwOp1eDMLdkz8sAp8p6RhTxzw0iRd+aW7Bl54BR5z8hCnrlhTIJue+YmLX3gLzUDkjRNrsGX6iO9OJ2BLzgDYI6fZE+R9wWnLT39NGag2yVtOv5fLRxqzA6ILLoAAAAASUVORK5CYII=;" vertex="1" parent="1">
          <mxGeometry x="390" y="493" width="79.94" height="183" as="geometry" />
        </mxCell>
        <mxCell id="snpll3BRzH3zYnskAG-O-5" style="edgeStyle=orthogonalEdgeStyle;rounded=0;orthogonalLoop=1;jettySize=auto;html=1;" edge="1" parent="1" source="snpll3BRzH3zYnskAG-O-6" target="snpll3BRzH3zYnskAG-O-4">
          <mxGeometry relative="1" as="geometry" />
        </mxCell>
        <mxCell id="snpll3BRzH3zYnskAG-O-6" value="" style="shape=image;verticalLabelPosition=bottom;labelBackgroundColor=default;verticalAlign=top;aspect=fixed;imageAspect=0;image=https://magazine.odroid.com/wp-content/uploads/Home-Assistant-Figure-0-1.png;" vertex="1" parent="1">
          <mxGeometry x="100" y="514" width="210" height="140.44" as="geometry" />
        </mxCell>
      </root>
    </mxGraphModel>
  </diagram>
</mxfile>
